<?xml version="1.0" encoding="UTF-8"?>
<svg width="585px" height="397px" viewBox="0 0 585 397" version="1.1" xmlns="http://www.w3.org/2000/svg" xmlns:xlink="http://www.w3.org/1999/xlink">
    <!-- Generator: Sketch 57.1 (83088) - https://sketch.com -->
    <title>Group 50</title>
    <desc>Created with Sketch.</desc>
    <defs>
        <linearGradient x1="50%" y1="-2.48949813e-15%" x2="50%" y2="100%" id="linearGradient-1">
            <stop stop-color="#C51F25" offset="0%"></stop>
            <stop stop-color="#9C171C" offset="100%"></stop>
        </linearGradient>
        <linearGradient x1="50%" y1="0%" x2="50%" y2="100%" id="linearGradient-2">
            <stop stop-color="#161617" offset="0%"></stop>
            <stop stop-color="#000000" offset="100%"></stop>
        </linearGradient>
        <linearGradient x1="50%" y1="0%" x2="50%" y2="100%" id="linearGradient-3">
            <stop stop-color="#202570" offset="0%"></stop>
            <stop stop-color="#0E103D" offset="100%"></stop>
        </linearGradient>
        <rect id="path-4" x="30.6594079" y="179.391635" width="106.463878" height="106.463878" rx="6.3878327"></rect>
        <filter x="-23.5%" y="-32.9%" width="165.8%" height="165.8%" filterUnits="objectBoundingBox" id="filter-5">
            <feOffset dx="10" dy="0" in="SourceAlpha" result="shadowOffsetOuter1"></feOffset>
            <feGaussianBlur stdDeviation="10" in="shadowOffsetOuter1" result="shadowBlurOuter1"></feGaussianBlur>
            <feColorMatrix values="0 0 0 0 0   0 0 0 0 0   0 0 0 0 0  0 0 0 0.2 0" type="matrix" in="shadowBlurOuter1"></feColorMatrix>
        </filter>
        <rect id="path-6" x="87.3003802" y="104.334601" width="9.58174905" height="9.58174905" rx="1.19771863"></rect>
        <filter x="-140.9%" y="-130.5%" width="465.3%" height="465.3%" filterUnits="objectBoundingBox" id="filter-7">
            <feOffset dx="4" dy="5" in="SourceAlpha" result="shadowOffsetOuter1"></feOffset>
            <feGaussianBlur stdDeviation="5" in="shadowOffsetOuter1" result="shadowBlurOuter1"></feGaussianBlur>
            <feColorMatrix values="0 0 0 0 0.31372549   0 0 0 0 0.341176471   0 0 0 0 0.368627451  0 0 0 0.1 0" type="matrix" in="shadowBlurOuter1"></feColorMatrix>
        </filter>
        <rect id="path-8" x="217.186312" y="297.034221" width="9.58174905" height="9.58174905" rx="1.19771863"></rect>
        <filter x="-140.9%" y="-130.5%" width="465.3%" height="465.3%" filterUnits="objectBoundingBox" id="filter-9">
            <feOffset dx="4" dy="5" in="SourceAlpha" result="shadowOffsetOuter1"></feOffset>
            <feGaussianBlur stdDeviation="5" in="shadowOffsetOuter1" result="shadowBlurOuter1"></feGaussianBlur>
            <feColorMatrix values="0 0 0 0 0.31372549   0 0 0 0 0.341176471   0 0 0 0 0.368627451  0 0 0 0.1 0" type="matrix" in="shadowBlurOuter1"></feColorMatrix>
        </filter>
        <rect id="path-10" x="459.923954" y="286.387833" width="15.9695817" height="15.9695817" rx="2.02281369"></rect>
        <filter x="-140.9%" y="-122.1%" width="456.9%" height="456.9%" filterUnits="objectBoundingBox" id="filter-11">
            <feOffset dx="6" dy="9" in="SourceAlpha" result="shadowOffsetOuter1"></feOffset>
            <feGaussianBlur stdDeviation="8" in="shadowOffsetOuter1" result="shadowBlurOuter1"></feGaussianBlur>
            <feColorMatrix values="0 0 0 0 0.31372549   0 0 0 0 0.341176471   0 0 0 0 0.368627451  0 0 0 0.1 0" type="matrix" in="shadowBlurOuter1"></feColorMatrix>
        </filter>
        <rect id="path-12" x="151.178707" y="2.12927757" width="17.0342205" height="17.0342205" rx="2.12927757"></rect>
        <filter x="-140.9%" y="-123.3%" width="452.2%" height="452.2%" filterUnits="objectBoundingBox" id="filter-13">
            <feOffset dx="6" dy="9" in="SourceAlpha" result="shadowOffsetOuter1"></feOffset>
            <feGaussianBlur stdDeviation="8.5" in="shadowOffsetOuter1" result="shadowBlurOuter1"></feGaussianBlur>
            <feColorMatrix values="0 0 0 0 0.31372549   0 0 0 0 0.341176471   0 0 0 0 0.368627451  0 0 0 0.1 0" type="matrix" in="shadowBlurOuter1"></feColorMatrix>
        </filter>
        <rect id="path-14" x="380.076046" y="48.973384" width="14.904943" height="14.904943" rx="1.86311787"></rect>
        <filter x="-134.2%" y="-127.5%" width="448.9%" height="448.9%" filterUnits="objectBoundingBox" id="filter-15">
            <feOffset dx="6" dy="7" in="SourceAlpha" result="shadowOffsetOuter1"></feOffset>
            <feGaussianBlur stdDeviation="7.5" in="shadowOffsetOuter1" result="shadowBlurOuter1"></feGaussianBlur>
            <feColorMatrix values="0 0 0 0 0.31372549   0 0 0 0 0.341176471   0 0 0 0 0.368627451  0 0 0 0.1 0" type="matrix" in="shadowBlurOuter1"></feColorMatrix>
        </filter>
        <rect id="path-16" x="104.334601" y="322.585551" width="17.0342205" height="17.0342205" rx="2.12927757"></rect>
        <filter x="-140.9%" y="-123.3%" width="452.2%" height="452.2%" filterUnits="objectBoundingBox" id="filter-17">
            <feOffset dx="6" dy="9" in="SourceAlpha" result="shadowOffsetOuter1"></feOffset>
            <feGaussianBlur stdDeviation="8.5" in="shadowOffsetOuter1" result="shadowBlurOuter1"></feGaussianBlur>
            <feColorMatrix values="0 0 0 0 0.31372549   0 0 0 0 0.341176471   0 0 0 0 0.368627451  0 0 0 0.1 0" type="matrix" in="shadowBlurOuter1"></feColorMatrix>
        </filter>
        <rect id="path-18" x="542.965779" y="200.152091" width="13.8403042" height="13.8403042" rx="1.73003802"></rect>
        <filter x="-140.9%" y="-126.4%" width="454.0%" height="454.0%" filterUnits="objectBoundingBox" id="filter-19">
            <feOffset dx="5" dy="7" in="SourceAlpha" result="shadowOffsetOuter1"></feOffset>
            <feGaussianBlur stdDeviation="7" in="shadowOffsetOuter1" result="shadowBlurOuter1"></feGaussianBlur>
            <feColorMatrix values="0 0 0 0 0.31372549   0 0 0 0 0.341176471   0 0 0 0 0.368627451  0 0 0 0.1 0" type="matrix" in="shadowBlurOuter1"></feColorMatrix>
        </filter>
        <rect id="path-20" x="198.022814" y="186.311787" width="13.8403042" height="13.8403042" rx="1.73003802"></rect>
        <filter x="-140.9%" y="-126.4%" width="454.0%" height="454.0%" filterUnits="objectBoundingBox" id="filter-21">
            <feOffset dx="5" dy="7" in="SourceAlpha" result="shadowOffsetOuter1"></feOffset>
            <feGaussianBlur stdDeviation="7" in="shadowOffsetOuter1" result="shadowBlurOuter1"></feGaussianBlur>
            <feColorMatrix values="0 0 0 0 0.31372549   0 0 0 0 0.341176471   0 0 0 0 0.368627451  0 0 0 0.1 0" type="matrix" in="shadowBlurOuter1"></feColorMatrix>
        </filter>
        <rect id="path-22" x="335.361217" y="144.790875" width="20.2281369" height="20.2281369" rx="2.52851711"></rect>
        <filter x="-131.0%" y="-121.1%" width="451.0%" height="451.0%" filterUnits="objectBoundingBox" id="filter-23">
            <feOffset dx="9" dy="11" in="SourceAlpha" result="shadowOffsetOuter1"></feOffset>
            <feGaussianBlur stdDeviation="10" in="shadowOffsetOuter1" result="shadowBlurOuter1"></feGaussianBlur>
            <feColorMatrix values="0 0 0 0 0.31372549   0 0 0 0 0.341176471   0 0 0 0 0.368627451  0 0 0 0.1 0" type="matrix" in="shadowBlurOuter1"></feColorMatrix>
        </filter>
        <rect id="path-24" x="388.593156" y="352.395437" width="14.904943" height="14.904943" rx="1.86311787"></rect>
        <filter x="-134.2%" y="-127.5%" width="448.9%" height="448.9%" filterUnits="objectBoundingBox" id="filter-25">
            <feOffset dx="6" dy="7" in="SourceAlpha" result="shadowOffsetOuter1"></feOffset>
            <feGaussianBlur stdDeviation="7.5" in="shadowOffsetOuter1" result="shadowBlurOuter1"></feGaussianBlur>
            <feColorMatrix values="0 0 0 0 0.31372549   0 0 0 0 0.341176471   0 0 0 0 0.368627451  0 0 0 0.1 0" type="matrix" in="shadowBlurOuter1"></feColorMatrix>
        </filter>
        <rect id="path-26" x="529.125475" y="59.6197719" width="19.1634981" height="19.1634981" rx="2.39543726"></rect>
        <filter x="-138.3%" y="-122.6%" width="449.6%" height="449.6%" filterUnits="objectBoundingBox" id="filter-27">
            <feOffset dx="7" dy="10" in="SourceAlpha" result="shadowOffsetOuter1"></feOffset>
            <feGaussianBlur stdDeviation="9.5" in="shadowOffsetOuter1" result="shadowBlurOuter1"></feGaussianBlur>
            <feColorMatrix values="0 0 0 0 0.31372549   0 0 0 0 0.341176471   0 0 0 0 0.368627451  0 0 0 0.1 0" type="matrix" in="shadowBlurOuter1"></feColorMatrix>
        </filter>
        <rect id="path-28" x="2.12927757" y="160.760456" width="12.7756654" height="12.7756654" rx="1.59695817"></rect>
        <filter x="-137.0%" y="-129.2%" width="452.2%" height="452.2%" filterUnits="objectBoundingBox" id="filter-29">
            <feOffset dx="5" dy="6" in="SourceAlpha" result="shadowOffsetOuter1"></feOffset>
            <feGaussianBlur stdDeviation="6.5" in="shadowOffsetOuter1" result="shadowBlurOuter1"></feGaussianBlur>
            <feColorMatrix values="0 0 0 0 0.31372549   0 0 0 0 0.341176471   0 0 0 0 0.368627451  0 0 0 0.1 0" type="matrix" in="shadowBlurOuter1"></feColorMatrix>
        </filter>
    </defs>
    <g id="web" stroke="none" stroke-width="1" fill="none" fill-rule="evenodd">
        <g id="Group-50" transform="translate(5.000000, 5.000000)">
            <g id="Group-12" fill-rule="nonzero">
                <rect id="Rectangle" fill="url(#linearGradient-1)" x="192.69962" y="17.3422438" width="106.463878" height="106.463878" rx="6.3878327"></rect>
                <rect id="Rectangle-Copy-4" fill="url(#linearGradient-1)" transform="translate(316.197719, 280.000000) rotate(-435.000000) translate(-316.197719, -280.000000) " x="262.965779" y="226.768061" width="106.463878" height="106.463878" rx="6.3878327"></rect>
                <rect id="Rectangle-Copy-3" fill="url(#linearGradient-2)" transform="translate(460.167256, 135.664003) rotate(-30.000000) translate(-460.167256, -135.664003) " x="406.935317" y="82.4320637" width="106.463878" height="106.463878" rx="6.3878327"></rect>
                <g id="Rectangle-Copy" transform="translate(83.891347, 232.623574) rotate(-405.000000) translate(-83.891347, -232.623574) ">
                    <use fill="black" fill-opacity="1" filter="url(#filter-5)" xlink:href="#path-4"></use>
                    <use fill="url(#linearGradient-3)" xlink:href="#path-4"></use>
                </g>
                <g id="Rectangle" opacity="0.5" transform="translate(92.091255, 109.125475) rotate(-330.000000) translate(-92.091255, -109.125475) ">
                    <use fill="black" fill-opacity="1" filter="url(#filter-7)" xlink:href="#path-6"></use>
                    <use fill="#FFFFFF" xlink:href="#path-6"></use>
                </g>
                <g id="Rectangle-Copy-14" opacity="0.400000006" transform="translate(221.977186, 301.825095) rotate(-30.000000) translate(-221.977186, -301.825095) ">
                    <use fill="black" fill-opacity="1" filter="url(#filter-9)" xlink:href="#path-8"></use>
                    <use fill="#FFFFFF" xlink:href="#path-8"></use>
                </g>
                <g id="Rectangle-Copy-6" opacity="0.600000024" transform="translate(467.908745, 294.372624) rotate(-30.000000) translate(-467.908745, -294.372624) ">
                    <use fill="black" fill-opacity="1" filter="url(#filter-11)" xlink:href="#path-10"></use>
                    <use fill="#FFFFFF" xlink:href="#path-10"></use>
                </g>
                <g id="Rectangle-Copy-13" opacity="0.699999988" transform="translate(159.695817, 10.646388) rotate(-345.000000) translate(-159.695817, -10.646388) ">
                    <use fill="black" fill-opacity="1" filter="url(#filter-13)" xlink:href="#path-12"></use>
                    <use fill="#FFFFFF" xlink:href="#path-12"></use>
                </g>
                <g id="Rectangle-Copy-7" opacity="0.300000012" transform="translate(387.528517, 56.425856) rotate(-345.000000) translate(-387.528517, -56.425856) ">
                    <use fill="black" fill-opacity="1" filter="url(#filter-15)" xlink:href="#path-14"></use>
                    <use fill="#FFFFFF" xlink:href="#path-14"></use>
                </g>
                <g id="Rectangle-Copy-9" opacity="0.5" transform="translate(112.851711, 331.102662) rotate(-60.000000) translate(-112.851711, -331.102662) ">
                    <use fill="black" fill-opacity="1" filter="url(#filter-17)" xlink:href="#path-16"></use>
                    <use fill="#FFFFFF" xlink:href="#path-16"></use>
                </g>
                <g id="Rectangle-Copy-16" opacity="0.5" transform="translate(549.885932, 207.072243) rotate(-60.000000) translate(-549.885932, -207.072243) ">
                    <use fill="black" fill-opacity="1" filter="url(#filter-19)" xlink:href="#path-18"></use>
                    <use fill="#FFFFFF" xlink:href="#path-18"></use>
                </g>
                <g id="Rectangle-Copy-10" opacity="0.300000012" transform="translate(204.942966, 193.231939) rotate(-15.000000) translate(-204.942966, -193.231939) ">
                    <use fill="black" fill-opacity="1" filter="url(#filter-21)" xlink:href="#path-20"></use>
                    <use fill="#FFFFFF" xlink:href="#path-20"></use>
                </g>
                <g id="Rectangle-Copy-11" opacity="0.800000012" transform="translate(345.475285, 154.904943) rotate(-330.000000) translate(-345.475285, -154.904943) ">
                    <use fill="black" fill-opacity="1" filter="url(#filter-23)" xlink:href="#path-22"></use>
                    <use fill="#FFFFFF" xlink:href="#path-22"></use>
                </g>
                <g id="Rectangle-Copy-15" opacity="0.800000012" transform="translate(396.045627, 359.847909) rotate(-330.000000) translate(-396.045627, -359.847909) ">
                    <use fill="black" fill-opacity="1" filter="url(#filter-25)" xlink:href="#path-24"></use>
                    <use fill="#FFFFFF" xlink:href="#path-24"></use>
                </g>
                <g id="Rectangle-Copy-12" opacity="0.5" transform="translate(538.707224, 69.201521) rotate(-15.000000) translate(-538.707224, -69.201521) ">
                    <use fill="black" fill-opacity="1" filter="url(#filter-27)" xlink:href="#path-26"></use>
                    <use fill="#FFFFFF" xlink:href="#path-26"></use>
                </g>
                <g id="Rectangle-Copy-17" opacity="0.5" transform="translate(8.517110, 167.148289) rotate(-15.000000) translate(-8.517110, -167.148289) ">
                    <use fill="black" fill-opacity="1" filter="url(#filter-29)" xlink:href="#path-28"></use>
                    <use fill="#FFFFFF" xlink:href="#path-28"></use>
                </g>
            </g>
            <g id="steering-wheel" opacity="0.5" transform="translate(84.000000, 233.000000) rotate(-45.000000) translate(-84.000000, -233.000000) translate(54.000000, 203.000000)">
                <path d="M29.9415205,7.1374269 C17.365731,7.1374269 7.13450292,17.368655 7.13450292,29.9444444 C7.13450292,42.5202339 17.365731,52.751462 29.9415205,52.751462 C42.5173099,52.751462 52.748538,42.5202339 52.748538,29.9444444 C52.748538,17.368655 42.5173099,7.1374269 29.9415205,7.1374269 Z M29.9415205,10.6461988 C39.3845614,10.6461988 47.2643275,17.4640936 48.9191813,26.4356725 C47.8176608,26.2659649 41.2995322,27.4746199 36.3392982,22.1887719 C33.5327485,19.1976608 29.8352047,19.3954386 29.9407018,19.4180117 C27.4920468,19.4180117 25.220117,20.4022222 23.5438596,22.188655 C21.0112281,24.8876023 17.3460819,26.4355556 13.4884211,26.4355556 L10.9638596,26.4355556 C12.6187135,17.4640936 20.4984795,10.6461988 29.9415205,10.6461988 Z M12.0467836,37.1669006 C18.8469006,35.7355556 25.3651462,41.4355556 24.6366082,48.5010526 C18.9069006,46.8607018 14.2604678,42.6318129 12.0467836,37.1669006 Z M28.0933333,49.1538012 C29.2839766,39.5061988 20.3957895,31.6550877 11.0306433,33.8009357 C10.7769591,32.554386 10.6432749,31.2647953 10.6432749,29.9444444 C11.8054971,29.7595322 19.9311111,31.1660819 26.1026901,24.5897076 C28.1768421,22.3789474 31.6901754,22.3617544 33.7805848,24.5898246 C39.9580117,31.1725146 48.0497076,29.7550877 49.239883,29.9444444 C49.239883,31.2647953 49.1061988,32.554386 48.8525146,33.8009357 C39.4683041,31.6511111 30.6017544,39.5265497 31.7898246,49.1538012 C30.5948538,49.2678363 29.3819883,49.2767251 28.0933333,49.1538012 Z M35.2464327,48.5010526 C34.517076,41.4277193 41.0442105,35.737076 47.8363743,37.1667836 C45.6226901,42.6318129 40.9761404,46.8607018 35.2464327,48.5010526 Z" id="Shape" fill="#000000" fill-rule="nonzero"></path>
                <path d="M35.2046784,31.6988304 C35.2046784,28.7967251 32.8437427,26.4356725 29.9415205,26.4356725 C27.0392982,26.4356725 24.6783626,28.7967251 24.6783626,31.6988304 C24.6783626,34.6009357 27.0392982,36.9619883 29.9415205,36.9619883 C32.8437427,36.9619883 35.2046784,34.6010526 35.2046784,31.6988304 Z M29.9415205,33.4532164 C28.974152,33.4532164 28.1871345,32.6663158 28.1871345,31.6988304 C28.1871345,30.731462 28.974152,29.9444444 29.9415205,29.9444444 C30.9090058,29.9444444 31.6959064,30.731462 31.6959064,31.6988304 C31.6959064,32.6663158 30.9090058,33.4532164 29.9415205,33.4532164 Z" id="Shape" fill="#FFFFFF"></path>
                <path d="M51.0891228,8.79684211 C45.4183626,3.12596491 37.9079532,0.00292397661 29.9415205,0.00292397661 C13.4549708,0.00292397661 0,13.4589474 0,29.9444444 C0,46.4311111 13.4560234,59.8859649 29.9415205,59.8859649 C37.9079532,59.8859649 45.4183626,56.762924 51.0891228,51.0920468 C62.820117,39.3610526 62.8240936,20.5319298 51.0891228,8.79684211 Z M29.9415205,56.377193 C15.3664327,56.377193 3.50877193,44.5195322 3.50877193,29.9444444 C3.50877193,15.3693567 15.3664327,3.51169591 29.9415205,3.51169591 C44.5166082,3.51169591 56.374269,15.3693567 56.374269,29.9444444 C56.374269,44.5195322 44.5166082,56.377193 29.9415205,56.377193 Z" id="Shape" fill="#FFFFFF" fill-rule="nonzero" opacity="0.800000012"></path>
            </g>
            <g id="steering-wheel-copy" transform="translate(84.000000, 233.000000) rotate(-45.000000) translate(-84.000000, -233.000000) translate(61.000000, 210.000000)" fill="#FFFFFF">
                <path d="M22.9415205,0.137426901 C10.365731,0.137426901 0.134502924,10.368655 0.134502924,22.9444444 C0.134502924,35.5202339 10.365731,45.751462 22.9415205,45.751462 C35.5173099,45.751462 45.748538,35.5202339 45.748538,22.9444444 C45.748538,10.368655 35.5173099,0.137426901 22.9415205,0.137426901 Z M22.9415205,3.64619883 C32.3845614,3.64619883 40.2643275,10.4640936 41.9191813,19.4356725 C40.8176608,19.2659649 34.2995322,20.4746199 29.3392982,15.1887719 C26.5327485,12.1976608 22.8352047,12.3954386 22.9407018,12.4180117 C20.4920468,12.4180117 18.220117,13.4022222 16.5438596,15.188655 C14.0112281,17.8876023 10.3460819,19.4355556 6.48842105,19.4355556 L3.96385965,19.4355556 C5.61871345,10.4640936 13.4984795,3.64619883 22.9415205,3.64619883 Z M5.04678363,30.1669006 C11.8469006,28.7355556 18.3651462,34.4355556 17.6366082,41.5010526 C11.9069006,39.8607018 7.26046784,35.6318129 5.04678363,30.1669006 Z M21.0933333,42.1538012 C22.2839766,32.5061988 13.3957895,24.6550877 4.03064327,26.8009357 C3.77695906,25.554386 3.64327485,24.2647953 3.64327485,22.9444444 C4.80549708,22.7595322 12.9311111,24.1660819 19.1026901,17.5897076 C21.1768421,15.3789474 24.6901754,15.3617544 26.7805848,17.5898246 C32.9580117,24.1725146 41.0497076,22.7550877 42.239883,22.9444444 C42.239883,24.2647953 42.1061988,25.554386 41.8525146,26.8009357 C32.4683041,24.6511111 23.6017544,32.5265497 24.7898246,42.1538012 C23.5948538,42.2678363 22.3819883,42.2767251 21.0933333,42.1538012 Z M28.2464327,41.5010526 C27.517076,34.4277193 34.0442105,28.737076 40.8363743,30.1667836 C38.6226901,35.6318129 33.9761404,39.8607018 28.2464327,41.5010526 Z" id="Shape"></path>
            </g>
            <g id="gift-(4)" transform="translate(217.000000, 40.000000)" fill="#FFFFFF" fill-rule="nonzero" opacity="0.5">
                <path d="M52.8205848,17.4915789 L49.8205848,9.24888889 C48.8280702,6.52187135 45.8018713,5.11052632 43.0749708,6.10339181 L37.5590643,8.11111111 C37.5679532,8.05719298 37.577193,8.00327485 37.5849123,7.94888889 C37.9466667,5.40538012 36.8815205,2.94982456 34.7362573,1.38046784 C32.7079532,-0.103391813 30.1122807,-0.411461988 27.7932164,0.556023392 C25.4739181,1.52362573 23.8669006,3.58491228 23.4956725,6.06152047 L22.7076023,11.1442105 L18.6325146,7.5419883 C16.7495906,5.87754386 14.1935673,5.33111111 11.7950877,6.08105263 C6.51426901,7.73134503 5.06923977,14.497193 9.16409357,18.1722807 C9.23766082,18.2382456 9.31274854,18.3018713 9.38853801,18.3645614 L3.50994152,20.5042105 C0.776959064,21.4989474 -0.630526316,24.5161404 0.364561404,27.2497076 L3.36467836,35.4923977 L7.1005848,34.1410526 L7.1005848,54.620117 C7.1005848,57.5221053 9.43812865,59.8831579 12.3402339,59.8831579 C12.8536842,59.8831579 46.3395322,59.8831579 47.4270175,59.8831579 C50.3290058,59.8831579 52.6900585,57.5222222 52.6900585,54.620117 L52.6900585,28.0711111 C51.562807,28.0711111 23.754269,28.0711111 23.754269,28.0711111 L52.8205848,17.4915789 Z M44.2749708,9.40046784 C45.1837427,9.0697076 46.1927485,9.54 46.5233918,10.4490058 L48.3236257,15.3946199 L31.8382456,21.3948538 L29.4382456,14.8007018 L44.2749708,9.40046784 Z M26.9643275,6.59017544 C27.1529825,5.33005848 27.9679532,4.28491228 29.1438596,3.79426901 C30.3090058,3.30818713 31.6264327,3.4528655 32.6645614,4.2122807 C35.0217544,5.93672515 34.4566082,9.24 31.7683041,10.2188304 C31.3176608,10.382807 28.38,11.4521637 28.2380117,11.5037427 L26.0807018,12.2888889 L26.9643275,6.59017544 Z M26.1409357,16.0007018 L28.5409357,22.5947368 C27.3878363,23.0145029 26.3969591,23.3750877 25.2438596,23.7948538 L22.8438596,17.2007018 L26.1409357,16.0007018 Z M12.8415205,9.4297076 C14.0425731,9.05450292 15.3416374,9.31578947 16.308655,10.1705263 L20.8560234,14.1904094 C19.5367251,14.6706433 16.417193,15.8060819 15.1519298,16.2664327 C13.8782456,16.7297076 12.5160234,16.4659649 11.5074854,15.5607018 C9.39730994,13.6669006 10.2016374,10.2547368 12.8415205,9.4297076 Z M5.46152047,30.9952047 L3.66140351,26.0495906 C3.3297076,25.1388304 3.79859649,24.1326316 4.70994152,23.8008187 L19.5467836,18.4007018 L21.9467836,24.9947368 L5.46152047,30.9952047 Z M35.1464327,31.5797661 L49.2045614,31.5797661 L49.2045614,54.620117 C49.2045614,55.5874854 48.394152,56.3745029 47.4267836,56.3745029 L35.1464327,56.3745029 L35.1464327,31.5797661 Z M28.1291228,31.5797661 L31.6611696,31.5797661 L31.6611696,56.374386 L28.1291228,56.374386 L28.1291228,31.5797661 Z M24.6437427,31.5797661 L24.6437427,56.374386 L12.34,56.374386 C11.3726316,56.374386 10.585614,55.5873684 10.585614,54.62 L10.585614,32.8639766 L14.1138012,31.5797661 L24.6437427,31.5797661 Z" id="Shape"></path>
            </g>
            <g id="gift-(4)-copy" transform="translate(217.000000, 40.000000)" fill="#FFFFFF">
                <path d="M52.8205848,17.4915789 L49.8205848,9.24888889 C48.8280702,6.52187135 45.8018713,5.11052632 43.0749708,6.10339181 L37.5590643,8.11111111 C37.5679532,8.05719298 37.577193,8.00327485 37.5849123,7.94888889 C37.9466667,5.40538012 36.8815205,2.94982456 34.7362573,1.38046784 C32.7079532,-0.103391813 30.1122807,-0.411461988 27.7932164,0.556023392 C25.4739181,1.52362573 23.8669006,3.58491228 23.4956725,6.06152047 L22.7076023,11.1442105 L18.6325146,7.5419883 C16.7495906,5.87754386 14.1935673,5.33111111 11.7950877,6.08105263 C6.51426901,7.73134503 5.06923977,14.497193 9.16409357,18.1722807 C9.23766082,18.2382456 9.31274854,18.3018713 9.38853801,18.3645614 L3.50994152,20.5042105 C0.776959064,21.4989474 -0.630526316,24.5161404 0.364561404,27.2497076 L3.36467836,35.4923977 L7.1005848,34.1410526 C18.2030409,30.094425 23.754269,28.0711111 23.754269,28.0711111 L52.8205848,17.4915789 Z M44.2749708,9.40046784 C45.1837427,9.0697076 46.1927485,9.54 46.5233918,10.4490058 L48.3236257,15.3946199 L31.8382456,21.3948538 L29.4382456,14.8007018 L44.2749708,9.40046784 Z M26.9643275,6.59017544 C27.1529825,5.33005848 27.9679532,4.28491228 29.1438596,3.79426901 C30.3090058,3.30818713 31.6264327,3.4528655 32.6645614,4.2122807 C35.0217544,5.93672515 34.4566082,9.24 31.7683041,10.2188304 C31.3176608,10.382807 28.38,11.4521637 28.2380117,11.5037427 L26.0807018,12.2888889 L26.9643275,6.59017544 Z M26.1409357,16.0007018 L28.5409357,22.5947368 C27.3878363,23.0145029 26.3969591,23.3750877 25.2438596,23.7948538 L22.8438596,17.2007018 L26.1409357,16.0007018 Z M12.8415205,9.4297076 C14.0425731,9.05450292 15.3416374,9.31578947 16.308655,10.1705263 L20.8560234,14.1904094 C19.5367251,14.6706433 16.417193,15.8060819 15.1519298,16.2664327 C13.8782456,16.7297076 12.5160234,16.4659649 11.5074854,15.5607018 C9.39730994,13.6669006 10.2016374,10.2547368 12.8415205,9.4297076 Z M5.46152047,30.9952047 L3.66140351,26.0495906 C3.3297076,25.1388304 3.79859649,24.1326316 4.70994152,23.8008187 L19.5467836,18.4007018 L21.9467836,24.9947368 L5.46152047,30.9952047 Z" id="Shape"></path>
            </g>
            <g id="hot-sale" transform="translate(316.000000, 279.500000) rotate(-345.000000) translate(-316.000000, -279.500000) translate(290.000000, 247.000000)" fill="#FFFFFF">
                <path d="M26.0225977,26.4736621 C17.4074316,26.4736621 10.3983496,33.4827441 10.3983496,42.0979102 C10.3983496,50.7130762 17.4073047,57.7220312 26.0225977,57.7220312 C34.6378906,57.7220312 41.6468457,50.7130762 41.6468457,42.0979102 C41.6468457,33.4827441 34.6377637,26.4736621 26.0225977,26.4736621 Z M27.9268945,53.7593164 L27.9268945,51.2569434 L24.1183008,51.2569434 L24.1183008,53.7593164 C19.1256152,52.9469434 15.1736914,48.9948926 14.3611914,44.002334 L16.8635645,44.002334 L16.8635645,40.1937402 L14.3611914,40.1937402 C15.1736914,35.2010547 19.1256152,31.2490039 24.1183008,30.4366309 L24.1183008,32.9390039 L27.9268945,32.9390039 L27.9268945,30.4366309 C32.9195801,31.2491309 36.8715039,35.2010547 37.6840039,40.1937402 L35.1816309,40.1937402 L35.1816309,44.002334 L37.6840039,44.002334 C36.8715039,48.9948926 32.9195801,52.9469434 27.9268945,53.7593164 Z" id="Shape"></path>
                <path d="M45.248252,22.5037109 L44.2398633,21.0056641 L42.6904004,21.9331836 C41.7796387,22.4783203 40.7346875,22.766377 39.6684082,22.766377 L39.6540625,22.766377 C36.5296191,22.7591406 33.8924219,20.2163965 33.7753711,17.0979199 C33.7719434,17.0048633 33.7705469,16.9120605 33.7713086,16.8205273 C33.8175195,11.1103027 31.476123,5.58682617 27.348877,1.66740234 L25.5574414,-2.84217094e-14 L24.3672559,2.09269531 C21.6899414,6.80011719 17.7428418,10.3791797 13.9254883,13.8405566 C7.11673828,20.0144141 0.076171875,26.3985059 0.076171875,39.0479883 C0.076171875,53.3548437 11.7156152,64.9944141 26.0224707,64.9944141 C40.3293262,64.9944141 51.9687695,53.3548437 51.9687695,39.0479883 C51.9687695,32.9708691 49.0562109,28.1606152 45.248252,22.5037109 L45.248252,22.5037109 Z M26.0225977,61.1858203 C13.8158008,61.1858203 3.88489258,51.2547852 3.88489258,39.0479883 C3.88489258,34.0631738 5.08383789,29.9368164 7.65819336,26.0619531 C9.99273437,22.5480176 13.1458691,19.6889062 16.4841016,16.6619629 C19.9379883,13.5301562 23.4922949,10.3071973 26.3120508,6.16446289 C28.683916,9.15979492 29.9941992,12.9220508 29.9629687,16.7904395 C29.9618262,16.940625 29.9641113,17.0920801 29.9696973,17.2407422 C30.0636426,19.7455273 31.1177344,22.0914941 32.9378613,23.8463672 C34.7568457,25.6000977 37.1389941,26.5691309 39.6454297,26.5748437 L39.6687891,26.5748437 C40.8087012,26.5748437 41.9343945,26.3743848 42.9949609,25.9876855 C46.0643066,30.6386133 48.1606836,34.474375 48.1606836,39.0478613 C48.1606836,51.2547852 38.2293945,61.1858203 26.0225977,61.1858203 Z" id="Shape" fill-rule="nonzero" opacity="0.5"></path>
                <polygon id="Path" points="27.9268945 36.3666113 24.1183008 36.3666113 24.1183008 44.002334 30.1485742 44.002334 30.1485742 40.1937402 27.9268945 40.1937402"></polygon>
            </g>
            <g id="percentage-(2)" transform="translate(460.000000, 136.000000) rotate(-30.000000) translate(-460.000000, -136.000000) translate(430.000000, 106.000000)" fill="#FFFFFF">
                <path d="M57.9255584,33.9406753 C57.1987013,32.4682597 56.4481558,30.945974 56.4481558,29.9273766 C56.4481558,28.9087792 57.1987013,27.3864935 57.9230649,25.9153247 C59.1698182,23.3831688 60.5836364,20.5131429 59.4204156,17.7091948 C58.2172987,14.8092468 55.1191169,13.7682078 52.384987,12.8505974 C50.9537143,12.3705974 49.3316883,11.8257662 48.6783896,11.1737143 C48.0288312,10.5241558 47.484,8.90212987 47.004,7.4721039 C46.0876364,4.73797403 45.0478442,1.63854545 42.1466494,0.435428571 C39.3414545,-0.727792208 36.4726753,0.686025974 33.9417662,1.93153247 C32.4693506,2.65714286 30.9470649,3.40644156 29.925974,3.40644156 C28.9073766,3.40644156 27.3850909,2.65714286 25.9139221,1.93277922 C23.383013,0.686025974 20.5104935,-0.726545455 17.7077922,0.435428571 C14.8078442,1.63854545 13.7680519,4.73797403 12.8504416,7.4721039 C12.3691948,8.90212987 11.8256104,10.5241558 11.1735584,11.174961 C10.524,11.827013 8.90072727,12.3705974 7.46945455,12.8518442 C4.73657143,13.7694545 1.63714286,14.8104935 0.432779221,17.7091948 C-0.730441558,20.5143896 0.684623377,23.3831688 1.93262338,25.9165714 C2.65823377,27.388987 3.40877922,28.910026 3.40877922,29.9286234 C3.40877922,30.9472208 2.65823377,32.4695065 1.93387013,33.9419221 C0.68961039,36.4728312 -0.724207792,39.3416104 0.439012987,42.1455584 C1.64212987,45.0467532 4.74031169,46.0877922 7.47568831,47.0054026 C8.90571429,47.4854026 10.5277403,48.0302338 11.1785455,48.6797922 C11.8293506,49.3318442 12.3741818,50.9538701 12.8554286,52.3851429 C13.7717922,55.1192727 14.8128312,58.2174545 17.7127792,59.4205714 C18.4483636,59.7247792 19.1876883,59.8531948 19.9232727,59.8531948 C21.9966234,59.8531948 24.050026,58.8420779 25.9176623,57.9232208 C27.3888312,57.1976104 28.9098701,56.4483117 29.9297143,56.4483117 C30.9495584,56.4483117 32.4718442,57.1988571 33.9442597,57.9232208 C36.4764156,59.169974 39.3464416,60.5825455 42.1466494,59.4205714 C45.0465974,58.2187013 46.0876364,55.1192727 47.0052468,52.3851429 C47.4864935,50.9538701 48.0313247,49.3318442 48.6833766,48.6797922 C49.3341818,48.028987 50.9562078,47.4854026 52.3862338,47.0041558 C55.1203636,46.0865455 58.2197922,45.0467532 59.4229091,42.1468052 C60.5861299,39.3428571 59.1723117,36.4728312 57.9255584,33.9406753 Z M53.4484675,36.1436883 C54.1503896,37.5687273 55.1116364,39.5186494 54.8136623,40.2355325 C54.4795325,41.0409351 52.3513247,41.7553247 50.7978701,42.2764675 C48.7507013,42.9634286 46.634961,43.6740779 45.1563117,45.153974 C43.6751688,46.6338701 42.9645195,48.7508571 42.2775584,50.7967792 C41.7551688,52.3514805 41.0407792,54.4796883 40.2353766,54.8125714 C39.511013,55.113039 37.5673247,54.1480519 36.146026,53.4486234 C34.1611948,52.4711688 32.1102857,51.4600519 29.9284675,51.4600519 C27.7478961,51.4600519 25.6957403,52.4711688 23.7134026,53.4473766 C22.2896104,54.1492987 20.3459221,55.113039 19.6215584,54.8125714 C18.8174026,54.4796883 18.103013,52.3514805 17.5818701,50.798026 C16.8949091,48.7508571 16.1842597,46.6338701 14.7031169,45.1527273 C13.2232208,43.6740779 11.1087273,42.9646753 9.06280519,42.2764675 C7.50935065,41.7553247 5.3798961,41.0396883 5.04576623,40.233039 C4.74779221,39.5161558 5.70903896,37.5662338 6.41096104,36.1424416 C7.38841558,34.1588571 8.39953247,32.1067013 8.39953247,29.9261299 C8.39953247,27.7455584 7.38716883,25.6934026 6.40971429,23.7098182 C5.70779221,22.286026 4.74654545,20.3348571 5.04202597,19.6204675 C5.3774026,18.8150649 7.50561039,18.0994286 9.06031169,17.5782857 C11.1074805,16.8900779 13.2244675,16.1794286 14.7031169,14.6995325 C16.183013,13.2208831 16.8924156,11.1051429 17.5806234,9.05797403 C18.1017662,7.50327273 18.8174026,5.37381818 19.6215584,5.04093506 C19.7138182,5.00228571 19.826026,4.98607792 19.9544416,4.98607792 C20.8309091,4.98607792 22.4728831,5.79397403 23.7146494,6.40612987 C25.6994805,7.38358442 27.7503896,8.39345455 29.9297143,8.39345455 C32.1102857,8.39345455 34.1636883,7.38233766 36.1472727,6.40612987 C37.5723117,5.70545455 39.5172468,4.74296104 40.2378701,5.04218182 C41.0432727,5.37631169 41.7576623,7.50451948 42.2788052,9.05922078 C42.9657662,11.1063896 43.6751688,13.2221299 45.1550649,14.702026 C46.6362078,16.1819221 48.7519481,16.8925714 50.7991169,17.5795325 C52.3525714,18.1006753 54.4807792,18.8163117 54.8149091,19.6217143 C55.1128831,20.3385974 54.1528831,22.2897662 53.4497143,23.7135584 C52.4735065,25.6971429 51.4623896,27.7492987 51.4623896,29.9286234 C51.4611429,32.1079481 52.4722597,34.1601039 53.4484675,36.1436883 Z" id="Shape" fill-rule="nonzero" opacity="0.5"></path>
                <path d="M41.4272727,18.4210909 C40.4535584,17.4473766 38.8739221,17.4473766 37.9002078,18.4223377 L18.4296623,37.9090909 C17.4571948,38.8828052 17.4571948,40.4624416 18.4309091,41.4349091 C18.9183896,41.9223896 19.5554805,42.1642597 20.1938182,42.1642597 C20.8321558,42.1642597 21.4704935,41.9211429 21.957974,41.4336623 L41.4285195,21.9469091 C42.400987,20.9719481 42.400987,19.3935584 41.4272727,18.4210909 Z" id="Path"></path>
                <path d="M21.1874805,15.8502857 C17.4871169,15.8502857 14.4762078,18.8611948 14.4762078,22.5615584 C14.4762078,26.2631688 17.4871169,29.2740779 21.1874805,29.2740779 C24.8878442,29.2740779 27.8975065,26.2631688 27.8975065,22.5615584 C27.8975065,18.8611948 24.8878442,15.8502857 21.1874805,15.8502857 Z M21.1874805,24.2870649 C20.2374545,24.2870649 19.4632208,23.5128312 19.4632208,22.5615584 C19.4632208,21.6102857 20.2362078,20.8372987 21.1874805,20.8372987 C22.1375065,20.8372987 22.9104935,21.6115325 22.9104935,22.5615584 C22.9104935,23.5128312 22.1375065,24.2870649 21.1874805,24.2870649 Z" id="Shape"></path>
                <path d="M38.6694545,30.5806753 C34.9690909,30.5806753 31.9594286,33.5928312 31.9594286,37.2944416 C31.9594286,40.9948052 34.9690909,44.0044675 38.6694545,44.0044675 C42.3698182,44.0044675 45.3807273,40.9935584 45.3807273,37.2944416 C45.3807273,33.5915844 42.3698182,30.5806753 38.6694545,30.5806753 Z M38.6694545,39.0174545 C37.7194286,39.0174545 36.9464416,38.2444675 36.9464416,37.2944416 C36.9464416,36.3419221 37.7194286,35.5676883 38.6694545,35.5676883 C39.6207273,35.5676883 40.3937143,36.3419221 40.3937143,37.2944416 C40.3937143,38.2444675 39.6194805,39.0174545 38.6694545,39.0174545 Z" id="Shape"></path>
            </g>
        </g>
    </g>
</svg>