<?xml version="1.0" encoding="UTF-8"?>
<svg width="100px" height="100px" viewBox="0 0 100 100" version="1.1" xmlns="http://www.w3.org/2000/svg" xmlns:xlink="http://www.w3.org/1999/xlink">
    <title>ikona-skla</title>
    <g id="ikona-skla" stroke="none" stroke-width="1" fill="none" fill-rule="evenodd">
        <g id="windshield" transform="translate(0.000000, 21.000000)" fill="#FFFFFF" fill-rule="nonzero">
            <path d="M84.371875,0.1890625 C92.8824314,0.1890625 99.8256758,7.02851958 99.9937575,15.4995832 L99.996875,15.8140625 L99.996875,15.8140625 L100,56.4515625 C100,57.3140625 99.3015625,58.0140625 98.4375,58.0140625 L98.366,58.0100625 L1.6341104,58.0124572 C1.61037568,58.0135236 1.58650174,58.0140625 1.5625,58.0140625 C0.6984375,58.0140625 0,57.315625 0,56.4515625 L0,15.8140625 C0,7.1984375 7.009375,0.1890625 15.625,0.1890625 L84.371875,0.1890625 L84.371875,0.1890625 Z M84.371875,3.3140625 L15.625,3.3140625 L15.625,3.3140625 C8.83568097,3.3140625 3.2926835,8.75572685 3.12873333,15.5063298 L3.125,15.8140625 L3.125,15.8140625 L3.125,54.8850625 L96.875,54.8850625 L96.871875,15.8140625 C96.871875,8.921875 91.2640625,3.3140625 84.371875,3.3140625 Z" id="Combined-Shape" opacity="0.5"></path>
            <path d="M82.6177241,6 C88.2458869,6 92.8440485,10.5084043 92.9932954,16.1043967 L92.9970345,16.3850868 L93,50.5164162 C93,51.2885779 92.4128892,51.9214368 91.6602067,51.9932189 L91.5172414,52 L8.48275862,52 C7.6627931,52 7,51.336838 7,50.5164162 L7,16.3850868 C7,10.6599368 11.6573448,6 17.3793103,6 L82.6177241,6 Z M82.6177241,8.96716764 L51.543,8.967 L51.543,10.453 L60.3793103,10.4537186 C61.1992759,10.4537186 61.862069,11.1168806 61.862069,11.9373025 L61.862069,16.3880539 C61.862069,17.2084758 61.1992759,17.8716377 60.3793103,17.8716377 L39.6206897,17.8716377 C38.8007241,17.8716377 38.137931,17.2084758 38.137931,16.3880539 L38.137931,11.9373025 C38.137931,11.1168806 38.8007241,10.4537186 39.6206897,10.4537186 L48.578,10.453 L48.578,8.967 L17.3793103,8.96716764 C13.3731041,8.96716764 10.0988552,12.1630701 9.96948772,16.1406079 L9.96551724,16.3850868 L9.965,49.032 L41.665,49.031 L29.068,46.065 L15.8995172,46.0656647 C15.0795517,46.0656647 14.4167586,45.4025027 14.4167586,44.5820809 C14.4167586,43.761659 15.0795517,43.0984971 15.8995172,43.0984971 L42.5951034,43.0984971 C43.415069,43.0984971 44.0778621,43.761659 44.0778621,44.5820809 C44.0778621,45.4025027 43.415069,46.0656647 42.5951034,46.0656647 L42.019,46.065 L54.615,49.031 L74.287,49.031 L61.689,46.065 L48.5202069,46.0656647 C47.7002414,46.0656647 47.0374483,45.4025027 47.0374483,44.5820809 C47.0374483,43.761659 47.7002414,43.0984971 48.5202069,43.0984971 L75.2157931,43.0984971 C76.0357586,43.0984971 76.6985517,43.761659 76.6985517,44.5820809 C76.6985517,45.4025027 76.0357586,46.0656647 75.2157931,46.0656647 L74.641,46.065 L87.238,49.031 L90.034,49.032 L90.0315172,16.3850868 C90.0315172,12.2948462 86.7056897,8.96716764 82.6177241,8.96716764 Z M58.8965517,13.4208863 L41.1034483,13.4208863 L41.1034483,14.9044701 L58.8965517,14.9044701 L58.8965517,13.4208863 Z" id="Combined-Shape"></path>
        </g>
    </g>
</svg>