<?xml version="1.0" encoding="UTF-8"?>
<svg width="100px" height="100px" viewBox="0 0 100 100" version="1.1" xmlns="http://www.w3.org/2000/svg" xmlns:xlink="http://www.w3.org/1999/xlink">
    <!-- Generator: Sketch 53.1 (72631) - https://sketchapp.com -->
    <title>wallet</title>
    <desc>Created with Sketch.</desc>
    <g id="web" stroke="none" stroke-width="1" fill="none" fill-rule="evenodd">
        <g id="Kariera" transform="translate(-280.000000, -799.000000)" fill="#FFFFFF">
            <g id="Group-9" transform="translate(150.000000, 759.000000)">
                <g id="wheel">
                    <g id="wallet" transform="translate(130.000000, 40.000000)">
                        <path d="M98.2809168,6.66311301 L93.2835821,6.66311301 L93.2835821,1.66577825 C93.2835821,0.745435821 92.5381463,0 91.6178038,0 L63.5044643,0 C60.1054437,0.00249866738 56.9217251,1.66119733 54.9706823,4.44429638 C53.0196396,1.66078092 49.8359209,0.00249866738 46.4369003,0 L18.3235608,0 C17.4032183,0 16.6577825,0.745435821 16.6577825,1.66577825 L16.6577825,6.66311301 L11.6604478,6.66311301 C10.7401053,6.66311301 9.99466951,7.40854883 9.99466951,8.32889126 L9.99466951,36.6471215 L13.326226,36.6471215 L13.326226,9.99466951 L16.6577825,9.99466951 L16.6577825,36.6471215 L19.989339,36.6471215 L19.989339,3.3315565 L46.4369003,3.3315565 C49.6381097,3.32822495 52.4470283,5.46167047 53.3049041,8.54502601 L53.3049041,33.315565 L56.6364606,33.315565 L56.6364606,8.54502601 C57.4943364,5.46167047 60.3032549,3.32822495 63.5044643,3.3315565 L76.6257996,3.3315565 L76.6257996,14.9920043 C76.6257996,15.9123467 77.3712354,16.6577825 78.2915778,16.6577825 L89.9520256,16.6577825 L89.9520256,64.9653518 L73.2942431,64.9653518 L73.2942431,68.2969083 L91.6178038,68.2969083 C92.5381463,68.2969083 93.2835821,67.5514725 93.2835821,66.6311301 L93.2835821,9.99466951 L96.6151386,9.99466951 L96.3448661,71.499367 L73.2942431,71.6284648 L73.3104844,74.9600213 L98.0210554,74.8221781 C98.9372335,74.816348 99.6764226,74.0721615 99.6764226,73.1563999 L99.9466951,14.3723348 L99.9466951,8.32889126 C99.9466951,7.40854883 99.2012593,6.66311301 98.2809168,6.66311301 Z M89.9520256,10.9708156 L82.3127665,3.3315565 L89.9520256,3.3315565 L89.9520256,10.9708156 Z M79.9573561,13.326226 L79.9573561,5.68696695 L87.5966151,13.326226 L79.9573561,13.326226 Z" id="Shape" fill-rule="nonzero" opacity="0.300000012"></path>
                        <polygon id="Path" opacity="0.300000012" points="23.3208955 13.326226 49.9733475 13.326226 49.9733475 16.6577825 23.3208955 16.6577825"></polygon>
                        <polygon id="Path" opacity="0.300000012" points="43.3102345 23.3208955 49.9733475 23.3208955 49.9733475 26.652452 43.3102345 26.652452"></polygon>
                        <polygon id="Path" opacity="0.300000012" points="23.3208955 23.3208955 39.978678 23.3208955 39.978678 26.652452 23.3208955 26.652452"></polygon>
                        <polygon id="Path" opacity="0.300000012" points="79.9573561 23.3208955 86.6204691 23.3208955 86.6204691 26.652452 79.9573561 26.652452"></polygon>
                        <polygon id="Path" opacity="0.300000012" points="59.9680171 23.3208955 76.6257996 23.3208955 76.6257996 26.652452 59.9680171 26.652452"></polygon>
                        <polygon id="Path" opacity="0.300000012" points="79.9573561 33.315565 86.6204691 33.315565 86.6204691 36.6471215 79.9573561 36.6471215"></polygon>
                        <polygon id="Path" opacity="0.300000012" points="59.9680171 33.315565 76.6257996 33.315565 76.6257996 36.6471215 59.9680171 36.6471215"></polygon>
                        <polygon id="Path" opacity="0.300000012" points="79.9573561 43.3102345 86.6204691 43.3102345 86.6204691 46.641791 79.9573561 46.641791"></polygon>
                        <polygon id="Path" opacity="0.300000012" points="66.6311301 43.3102345 76.6257996 43.3102345 76.6257996 46.641791 66.6311301 46.641791"></polygon>
                        <polygon id="Path" opacity="0.300000012" points="79.9573561 53.3049041 86.6204691 53.3049041 86.6204691 56.6364606 79.9573561 56.6364606"></polygon>
                        <polygon id="Path" opacity="0.300000012" points="66.6311301 53.3049041 76.6257996 53.3049041 76.6257996 56.6364606 66.6311301 56.6364606"></polygon>
                        <polygon id="Path" opacity="0.300000012" points="59.9680171 13.326226 73.2942431 13.326226 73.2942431 16.6577825 59.9680171 16.6577825"></polygon>
                        <path d="M8.32889126,99.9466951 L61.6337953,99.9466951 C62.5541377,99.9466951 63.2995736,99.2012593 63.2995736,98.2809168 L63.2995736,84.9546908 L68.2969083,84.9546908 C69.2172507,84.9546908 69.9626866,84.209255 69.9626866,83.2889126 L69.9626866,66.6311301 C69.9626866,65.7107876 69.2172507,64.9653518 68.2969083,64.9653518 L63.2995736,64.9653518 L63.2995736,41.6444563 C63.2995736,40.7241139 62.5541377,39.978678 61.6337953,39.978678 L53.7205158,39.978678 L53.2653418,37.9480943 C53.1633129,37.4966684 52.8792977,37.1085421 52.4811768,36.8753332 C52.08139,36.6412913 51.603728,36.5846548 51.160631,36.7175006 L44.4346349,38.7343417 L39.7471349,30.8023221 C39.2790512,30.0098281 38.2566797,29.7470516 37.4654351,30.2155517 L20.9421642,39.978678 L8.32889126,39.978678 C3.73134328,39.9845083 0.00583022388,43.7100213 0,48.3075693 L0,91.6178038 C0.00583022388,96.2153518 3.73134328,99.9408648 8.32889126,99.9466951 Z M66.6311301,81.6231343 L54.9706823,81.6231343 C51.2909781,81.6231343 48.3075693,78.6397255 48.3075693,74.9600213 C48.3075693,71.2803172 51.2909781,68.2969083 54.9706823,68.2969083 L66.6311301,68.2969083 L66.6311301,81.6231343 Z M54.9706823,64.9653518 C49.451959,64.9653518 44.9760128,69.441298 44.9760128,74.9600213 C44.9760128,80.4787447 49.451959,84.9546908 54.9706823,84.9546908 L59.9680171,84.9546908 L59.9680171,96.6151386 L8.32889126,96.6151386 C5.56952964,96.6151386 3.3315565,94.3771655 3.3315565,91.6178038 L3.3315565,54.9706823 C3.39652186,55.0202392 3.47148188,55.0548041 3.53894584,55.1018624 C3.67304104,55.1976446 3.81629797,55.2805171 3.95622335,55.3683869 C4.23982207,55.5445429 4.5342484,55.7044576 4.83533785,55.8460488 C5.00233209,55.9201759 5.15766588,55.991388 5.32299446,56.0567697 C5.65073625,56.1808701 5.9838919,56.2845649 6.32371066,56.3661881 C6.48029382,56.4049174 6.62979744,56.4536414 6.79012857,56.483209 C7.29694158,56.5819063 7.8125,56.633129 8.32889126,56.6364606 L59.9680171,56.6364606 L59.9680171,64.9653518 L54.9706823,64.9653518 Z M59.9680171,43.3102345 L59.9680171,53.3049041 L56.7093384,53.3049041 L54.4709488,43.3102345 L59.9680171,43.3102345 Z M53.2969916,53.3049041 L8.32889126,53.3049041 C8.11150725,53.2974081 7.89578891,53.2757529 7.68090352,53.2399387 L50.4043677,40.4238572 L53.2969916,53.3049041 Z M37.7265458,33.9323194 L41.1447228,39.7208988 L14.2990405,47.7766025 L37.7265458,33.9323194 Z M8.32889126,43.3102345 L15.3039212,43.3102345 L3.70010991,50.16866 C3.45857207,49.5773087 3.33238934,48.9455624 3.3315565,48.3075693 C3.3315565,45.5482077 5.56952964,43.3102345 8.32889126,43.3102345 Z" id="Shape" fill-rule="nonzero"></path>
                        <path d="M58.3022388,74.9600213 C58.3022388,76.8002899 56.8109509,78.2915778 54.9706823,78.2915778 C53.1304138,78.2915778 51.6391258,76.8002899 51.6391258,74.9600213 C51.6391258,73.1197528 53.1304138,71.6284648 54.9706823,71.6284648 C56.8109509,71.6284648 58.3022388,73.1197528 58.3022388,74.9600213 Z" id="Path"></path>
                        <path d="M79.9573561,99.9466951 C83.2880797,99.9308701 86.2898122,97.9419309 87.6032783,94.8810634 C87.8331557,94.8998034 88.052622,94.9493603 88.2862473,94.9493603 C92.4540245,94.9518591 95.98131,91.8726679 96.5435101,87.7440365 C97.1065432,83.6141558 94.5295842,79.7049906 90.5133929,78.5935001 C86.4963687,77.4815932 82.2765358,79.5096781 80.6353278,83.3405517 C80.4091984,83.3188966 80.1801539,83.2889126 79.9573561,83.2889126 C75.3577259,83.2889126 71.6284648,87.0181737 71.6284648,91.6178038 C71.6284648,96.217434 75.3577259,99.9466951 79.9573561,99.9466951 Z M88.2862473,81.6231343 C90.2485341,81.5977312 92.0446595,82.7233808 92.8775486,84.5015991 C93.7100213,86.279401 93.4243403,88.3799473 92.1475213,89.8708189 C90.8702858,91.3616904 88.8384529,91.9667844 86.9536247,91.417494 C86.9427972,91.4104145 86.932386,91.4045842 86.9203092,91.3995869 C85.8791978,91.1034948 84.9626033,90.4788279 84.3067031,89.6188699 C84.176356,89.4439632 84.0572528,89.2607276 83.9518923,89.0695795 C83.9102479,88.9942031 83.8673541,88.9188267 83.8294576,88.8405351 C83.7478345,88.6822861 83.6766225,88.5198727 83.6145723,88.3528785 C83.563766,88.2146189 83.5204558,88.0717784 83.4825593,87.9272721 C83.44383,87.7815165 83.4063499,87.6678272 83.3826126,87.5324827 C83.3222281,87.2326426 83.2914113,86.9269723 83.2889126,86.6204691 C83.2951593,83.8627731 85.5285514,81.629381 88.2862473,81.6231343 Z M79.9573561,86.6204691 C79.9623534,87.1097915 80.0119103,87.5991139 80.1056103,88.078858 C80.1322628,88.2366904 80.1664113,88.389942 80.2038913,88.5423608 C80.284265,88.8717684 80.3842117,89.1961787 80.5049807,89.5122601 C80.5920176,89.7471349 80.6886327,89.9736807 80.7964919,90.196895 C80.9276719,90.4734142 81.0738439,90.7441032 81.2354244,91.0047974 C81.3724348,91.221765 81.5194397,91.4258229 81.6747735,91.6294643 C81.7851312,91.7727212 81.9017357,91.909315 82.0191731,92.0459088 C82.64384,92.766358 83.3871935,93.3731177 84.2167511,93.8416178 C84.2717217,93.8728512 84.3221115,93.9132463 84.3833289,93.9436467 C83.2431036,96.1112407 80.6994603,97.1348614 78.3756996,96.3573594 C76.0527719,95.5815232 74.6347781,93.2344416 75.0274853,90.8165645 C75.4189433,88.3982709 77.5078292,86.6213019 79.9573561,86.6204691 Z" id="Shape" fill-rule="nonzero" opacity="0.300000012"></path>
                    </g>
                </g>
            </g>
        </g>
    </g>
</svg>