<?xml version="1.0" encoding="UTF-8"?>
<svg width="100px" height="100px" viewBox="0 0 100 100" version="1.1" xmlns="http://www.w3.org/2000/svg" xmlns:xlink="http://www.w3.org/1999/xlink">
    <!-- Generator: Sketch 53.1 (72631) - https://sketchapp.com -->
    <title>multimeter</title>
    <desc>Created with Sketch.</desc>
    <g id="web" stroke="none" stroke-width="1" fill="none" fill-rule="evenodd">
        <g id="Hlavni" transform="translate(-816.000000, -907.000000)" fill="#FFFFFF">
            <g id="Group-8" transform="translate(150.000000, 867.000000)">
                <g id="Group-9-Copy-2" transform="translate(585.000000, 0.000000)">
                    <g id="wheel">
                        <g id="multimeter" transform="translate(81.000000, 40.000000)">
                            <path d="M48.3333333,0 L8.33333333,0 C3.73333333,0.00541666667 0.00541666667,3.73333333 0,8.33333333 L0,91.6666667 C0.00541666667,96.2666667 3.73333333,99.9945833 8.33333333,100 L48.3333333,100 C52.9333333,99.9945833 56.66125,96.2666667 56.6666667,91.6666667 L56.6666667,8.33333333 C56.66125,3.73333333 52.9333333,0.00541666667 48.3333333,0 Z M53.3333333,91.6666667 C53.3333333,94.428125 51.0947917,96.6666667 48.3333333,96.6666667 L8.33333333,96.6666667 C5.571875,96.6666667 3.33333333,94.428125 3.33333333,91.6666667 L3.33333333,8.33333333 C3.33333333,5.571875 5.571875,3.33333333 8.33333333,3.33333333 L48.3333333,3.33333333 C51.0947917,3.33333333 53.3333333,5.571875 53.3333333,8.33333333 L53.3333333,91.6666667 Z" id="Shape" fill-rule="nonzero" opacity="0.300000012"></path>
                            <path d="M46.6666667,8.33333333 L10,8.33333333 C9.07958333,8.33333333 8.33333333,9.07958333 8.33333333,10 L8.33333333,33.3333333 C8.33333333,34.25375 9.07958333,35 10,35 L46.6666667,35 C47.5870833,35 48.3333333,34.25375 48.3333333,33.3333333 L48.3333333,10 C48.3333333,9.07958333 47.5870833,8.33333333 46.6666667,8.33333333 Z M45,31.6666667 L11.6666667,31.6666667 L11.6666667,11.6666667 L45,11.6666667 L45,31.6666667 Z" id="Shape" fill-rule="nonzero" opacity="0.300000012"></path>
                            <path d="M42.595,46 C42.5516667,45.9516667 42.5216667,45.8983333 42.475,45.8516667 C42.4283333,45.805 42.375,45.775 42.3266667,45.7316667 C34.520625,37.92875 21.8670833,37.9314583 14.0641667,45.7375 C6.26125,53.5435417 6.26395833,66.1970833 14.07,74 C14.1133333,74.0416667 14.145,74.0966667 14.19,74.1416667 C14.235,74.1866667 14.29,74.2183333 14.3366667,74.2616667 C22.1408333,82.065 34.7933333,82.0641667 42.5966667,74.26 C50.4,66.4558333 50.3991667,53.8033333 42.595,46 Z M14.19,67.0716667 C13.9741667,67.290625 13.779375,67.529375 13.6083333,67.785 C12.3322917,65.3885417 11.6654167,62.715 11.6666667,60 C11.65625,50.8054167 19.1016667,43.3433333 28.29625,43.3329167 C31.0233333,43.3297917 33.709375,43.9966667 36.1183333,45.275 C35.8627083,45.4466667 35.6239583,45.641875 35.405,45.8583333 L14.19,67.0716667 Z M16.5933333,71.815 L16.5183333,71.74 C15.9054167,71.0866667 15.91875,70.065625 16.5483333,69.4283333 L37.7616667,48.215 C38.3997917,47.58375 39.4233333,47.57125 40.0766667,48.1866667 L40.145,48.2566667 C40.7610417,48.9095833 40.7491667,49.933125 40.1183333,50.5716667 L18.905,71.785 C18.2677083,72.4145833 17.2466667,72.4279167 16.5933333,71.815 Z M36.1504167,74.725625 C31.2710417,77.3135417 25.4258333,77.3133333 20.5466667,74.725 C20.803125,74.5539583 21.0425,74.3585417 21.2616667,74.1416667 L42.4766667,52.9283333 C42.6925,52.709375 42.8872917,52.470625 43.0583333,52.215 C47.366875,60.33875 44.2741667,70.4170833 36.1504167,74.725625 Z" id="Shape" fill-rule="nonzero" opacity="0.300000012"></path>
                            <circle id="Oval" fill-rule="nonzero" opacity="0.300000012" cx="10" cy="88.3333333" r="3.33333333"></circle>
                            <circle id="Oval" fill-rule="nonzero" opacity="0.300000012" cx="21.6666667" cy="88.3333333" r="3.33333333"></circle>
                            <circle id="Oval" fill-rule="nonzero" opacity="0.300000012" cx="33.3333333" cy="88.3333333" r="3.33333333"></circle>
                            <circle id="Oval" fill-rule="nonzero" opacity="0.300000012" cx="45" cy="88.3333333" r="3.33333333"></circle>
                            <rect id="Rectangle" fill-rule="nonzero" opacity="0.300000012" x="8.33333333" y="38.3333333" width="5" height="3.33333333"></rect>
                            <rect id="Rectangle" fill-rule="nonzero" opacity="0.300000012" x="43.3333333" y="38.3333333" width="5" height="3.33333333"></rect>
                            <path d="M96.6666667,28.3333333 L96.6666667,20 C96.666875,19.8210417 96.638125,19.643125 96.5816667,19.4733333 L94.915,14.4733333 C94.688125,13.7925 94.0510417,13.333125 93.3333333,13.3333333 L93.3333333,0 L90,0 L90,13.3333333 C89.2822917,13.333125 88.6452083,13.7925 88.4183333,14.4733333 L86.7516667,19.4733333 C86.6952083,19.643125 86.6664583,19.8210417 86.6666667,20 L86.6666667,28.3333333 L83.3333333,28.3333333 L83.3333333,31.6666667 L86.6666667,31.6666667 L86.6666667,73.3333333 C86.6666667,74.25375 87.4129167,75 88.3333333,75 L90,75 L90,86.6666667 C90,88.5077083 88.5077083,90 86.6666667,90 L60,90 L60,93.3333333 L86.6666667,93.3333333 C90.3485417,93.3333333 93.3333333,90.3485417 93.3333333,86.6666667 L93.3333333,75 L95,75 C95.9204167,75 96.6666667,74.25375 96.6666667,73.3333333 L96.6666667,31.6666667 L100,31.6666667 L100,28.3333333 L96.6666667,28.3333333 Z M93.3333333,71.6666667 L90,71.6666667 L90,31.6666667 L93.3333333,31.6666667 L93.3333333,71.6666667 Z M93.3333333,28.3333333 L90,28.3333333 L90,20.27 L91.2016667,16.6666667 L92.1316667,16.6666667 L93.3333333,20.27 L93.3333333,28.3333333 Z" id="Shape"></path>
                            <rect id="Rectangle" fill-rule="nonzero" opacity="0.300000012" x="38.3333333" y="25" width="3.33333333" height="3.33333333"></rect>
                            <rect id="Rectangle" fill-rule="nonzero" opacity="0.300000012" x="31.6666667" y="25" width="3.33333333" height="3.33333333"></rect>
                            <rect id="Rectangle" fill-rule="nonzero" opacity="0.300000012" x="25" y="25" width="3.33333333" height="3.33333333"></rect>
                            <path d="M76.6666667,28.3333333 L76.6666667,20 C76.666875,19.8210417 76.638125,19.643125 76.5816667,19.4733333 L74.915,14.4733333 C74.688125,13.7925 74.0510417,13.333125 73.3333333,13.3333333 L73.3333333,0 L70,0 L70,13.3333333 C69.2822917,13.333125 68.6452083,13.7925 68.4183333,14.4733333 L66.7516667,19.4733333 C66.6952083,19.643125 66.6664583,19.8210417 66.6666667,20 L66.6666667,28.3333333 L63.3333333,28.3333333 L63.3333333,31.6666667 L66.6666667,31.6666667 L66.6666667,73.3333333 C66.6666667,74.25375 67.4129167,75 68.3333333,75 L70,75 L70,81.6666667 C70,82.5870833 69.25375,83.3333333 68.3333333,83.3333333 L60,83.3333333 L60,86.6666667 L68.3333333,86.6666667 C71.0947917,86.6666667 73.3333333,84.428125 73.3333333,81.6666667 L73.3333333,75 L75,75 C75.9204167,75 76.6666667,74.25375 76.6666667,73.3333333 L76.6666667,31.6666667 L80,31.6666667 L80,28.3333333 L76.6666667,28.3333333 Z M73.3333333,71.6666667 L70,71.6666667 L70,31.6666667 L73.3333333,31.6666667 L73.3333333,71.6666667 Z M73.3333333,28.3333333 L70,28.3333333 L70,20.27 L71.2016667,16.6666667 L72.1316667,16.6666667 L73.3333333,20.27 L73.3333333,28.3333333 Z" id="Shape"></path>
                            <rect id="Rectangle" fill-rule="nonzero" opacity="0.300000012" x="18.3333333" y="25" width="3.33333333" height="3.33333333"></rect>
                        </g>
                    </g>
                </g>
            </g>
        </g>
    </g>
</svg>