<?xml version="1.0" encoding="UTF-8"?>
<svg width="100px" height="100px" viewBox="0 0 100 100" version="1.1" xmlns="http://www.w3.org/2000/svg" xmlns:xlink="http://www.w3.org/1999/xlink">
    <title>ikona-pisty</title>
    <g id="ikona-pisty" stroke="none" stroke-width="1" fill="none" fill-rule="evenodd">
        <g id="pistons" transform="translate(0.000000, 6.000000)" fill="#FFFFFF" fill-rule="nonzero">
            <path d="M32.2074891,24.0470887 C29.9293518,21.7697145 26.2359619,21.7704773 23.9585877,24.0486145 C21.6812133,26.3267518 21.6812133,30.0193787 23.9585877,32.2975158 C26.2359619,34.5756531 29.9293518,34.5756531 32.2074891,32.2990418 C34.4833375,30.0178527 34.4825744,26.3252258 32.2059631,24.0455627 L32.2074891,24.0470887 Z M29.8492432,29.938507 C29.1343689,30.6541443 28.0586242,30.8677674 27.1247863,30.480957 C26.1901855,30.0941467 25.5813598,29.182434 25.5813598,28.1715393 C25.5813598,27.1598816 26.1901855,26.2481689 27.1247863,25.8613586 C28.0586242,25.4745484 29.1343689,25.6889344 29.8492432,26.4038086 C30.8250428,27.3796082 30.8250428,28.9627074 29.8492432,29.938507 Z" id="Shape" opacity="0.5"></path>
            <path d="M73.5374451,81.1233789 C75.5249023,81.1286926 77.4314881,80.3390504 78.8322449,78.9306641 C81.3697814,76.3992309 81.7649842,72.4281311 79.7767639,69.4465637 C77.7877809,66.4649963 73.9700316,65.3045654 70.6581115,66.6740418 C67.3469543,68.043518 65.4640197,71.5621949 66.1628723,75.0770568 C66.8609619,78.5919189 69.9455262,81.124115 73.5290527,81.1233789 L73.5374451,81.1233789 Z M70.5894471,70.6802367 C72.2167969,69.0528869 74.8550414,69.0528869 76.4823914,70.6802367 C78.1097412,72.3075867 78.1097412,74.9465941 76.4823914,76.5739441 C74.8321533,78.1440734 72.2396852,78.1440734 70.5894471,76.5739441 C69.807434,75.7919313 69.3687439,74.7322082 69.3687439,73.626709 C69.3687439,72.5219727 69.807434,71.4614867 70.5894471,70.6802367 Z" id="Shape"></path>
            <path d="M81.3461305,1.07345586 C80.7205199,0.448608398 79.8728943,0.0968933594 78.9886475,0.0968933594 C78.1044006,0.0968933594 77.2560119,0.448608398 76.6311645,1.07345586 L73.0957031,4.60205078 L68.3822633,9.31549062 L51.8829346,25.8155822 C50.9445191,26.7532348 50.4180908,28.0250549 50.4180908,29.3510437 C50.4180908,30.6777953 50.9445191,31.9496154 51.8829346,32.887268 L52.4909973,33.4922791 C53.6132813,34.6084594 55.1986695,35.1272582 56.7642211,34.8907471 C56.7718506,34.8892211 56.780243,34.8892211 56.7878723,34.8907471 L56.9358826,34.8739625 L56.9625855,34.8739625 L53.729248,38.1072998 C52.6939393,39.1418457 51.4160156,40.3434754 49.9992371,41.6236877 C48.5160828,40.2900695 47.2328186,39.0853883 46.2593078,38.1134033 L43.0328369,34.8739625 C43.0892945,34.8739625 43.1472777,34.8838807 43.1991578,34.892273 C43.2067871,34.89151 43.2151795,34.89151 43.2228088,34.892273 C44.7883605,35.131073 46.3737488,34.6130371 47.4960328,33.4953309 L48.1056213,32.887268 C50.0579834,30.9349061 50.0579834,27.7694703 48.1056213,25.8171082 L31.6062928,9.3170166 L26.9027711,4.60205078 L23.3673096,1.07345586 C22.0481873,-0.186157227 19.971466,-0.186157227 18.6523438,1.07345586 L0.975799609,18.7400818 C-0.325012109,20.0424195 -0.325012109,22.1519471 0.975799609,23.4535217 L4.51126094,26.990509 L25.7240295,48.2070922 C26.661682,49.1447449 27.9342652,49.6719359 29.2602539,49.6719359 C30.5862426,49.6719359 31.8580627,49.1447449 32.7957152,48.2070922 L33.4022521,47.5990295 C34.4535828,46.5332031 34.9693299,45.0515746 34.8060607,43.5638428 C34.8060607,43.5470582 34.8159789,43.5340881 34.8159789,43.5173035 C34.8144531,43.4356689 34.8083496,43.3540344 34.7976684,43.2739258 C34.7976684,43.2235719 34.7892762,43.1785584 34.7824098,43.1304932 L38.0195617,46.35849 C38.8626098,47.202301 39.8361207,48.2269287 40.8363342,49.3240355 C34.3711854,54.3701172 27.5024414,58.9439393 23.5023498,59.7923279 C22.5616455,59.9998475 21.6453553,60.3073121 20.7695008,60.7086182 L20.0592041,59.9990844 C19.4343566,59.3734742 18.585968,59.021759 17.7017211,59.021759 C16.8174744,59.021759 15.9690857,59.3734742 15.3442383,59.9990844 L12.9989625,62.3489379 C12.374115,62.9737854 12.0224,63.822174 12.0224,64.7064209 C12.0224,65.5906678 12.374115,66.4382934 12.9989625,67.0639039 L13.6276246,67.6902771 C11.5318299,72.151184 11.9255066,77.3841857 14.6659852,81.4804078 C15.7180785,83.0337523 17.0562744,84.3727111 18.6073303,85.4270936 C22.6997375,88.192749 27.9487609,88.5894775 32.4111938,86.4723205 L33.0345154,87.097168 C33.6593629,87.7227783 34.5077516,88.0737305 35.3919982,88.0737305 C36.2762451,88.0737305 37.1238709,87.7227783 37.7494813,87.097168 L40.0978088,84.740448 C41.3986207,83.4388732 41.3986207,81.3285828 40.0978088,80.027008 L39.3875121,79.3151855 C39.7872926,78.4416199 40.0939941,77.5283812 40.3007508,76.5907287 C41.1079406,72.8073121 45.262909,66.4352418 49.9893188,60.2737426 C55.5442811,67.5086975 58.9889527,73.273468 59.7007752,76.5800477 C59.9067688,77.5215148 60.2134705,78.4378051 60.6140137,79.3136598 L59.9029541,80.0254822 C59.2773438,80.6503297 58.9256287,81.4987184 58.9256287,82.382965 C58.9256287,83.2672119 59.2773438,84.1156006 59.9029541,84.740448 L62.2589111,87.097168 C62.8845215,87.7227783 63.7321473,88.0737305 64.617157,88.0737305 C65.5014039,88.0737305 66.3490295,87.7227783 66.9746398,87.097168 L67.5979613,86.4738465 C72.0573426,88.5879516 77.3025512,88.1919861 81.3941955,85.432434 C82.1723937,84.9067687 82.8979492,84.3078613 83.5609436,83.6441039 C84.2201232,82.9856873 84.8136902,82.2639465 85.3324891,81.490326 C88.0775451,77.3925781 88.4735107,72.1557617 86.3761902,67.6918029 L87.0040895,67.0639039 C87.6296996,66.4382934 87.9814148,65.5906678 87.9814148,64.7064209 C87.9814148,63.822174 87.6296996,62.9737854 87.0040895,62.3489379 L84.6496582,59.992218 C83.3473205,58.6906434 81.237793,58.6906434 79.9362184,59.992218 L79.2243957,60.7040406 C78.3523559,60.2981566 77.4368285,59.9929809 76.4961242,59.7938537 C73.0178832,59.0522766 66.8861389,55.3237914 59.1629027,49.307251 C60.1806641,48.1987 61.1312867,47.202301 61.9773865,46.3554383 L65.2107238,43.1221008 C65.2023316,43.1838988 65.2008057,43.2373047 65.1924133,43.3036805 C65.1824951,43.3891297 65.1779176,43.4761047 65.1779176,43.5623168 C65.1779176,43.5768127 65.1863098,43.5905457 65.1863098,43.6050414 C65.0337219,45.0813293 65.5487061,46.5484619 66.5908812,47.605133 L67.1974182,48.2139588 C68.1350707,49.1516113 69.4068908,49.6788025 70.7336426,49.6788025 C72.0596312,49.6788025 73.3314514,49.1516113 74.2691039,48.2139588 L95.4879762,26.9935607 L99.0226746,23.4573363 C100.324249,22.1557617 100.324249,20.0454711 99.0226746,18.7438965 L81.3461305,1.07345586 Z M91.9525146,25.8239746 L89.5942688,28.1806945 L71.9177246,10.4934691 L74.2744445,8.13674922 L83.1077576,16.9700623 L91.9525146,25.8239746 Z M16.8861389,16.9906617 L25.719452,8.15734863 L28.0761719,10.5140686 L10.4042053,28.1723023 L8.04595937,25.8155822 L16.8861389,16.9906617 Z M21.0090637,3.43704219 L23.3673096,5.79528809 L5.70068359,23.4619141 L3.33251953,21.1006164 L21.0090637,3.43704219 Z M31.0462951,45.2400207 L30.4389953,45.8488465 C30.1269531,46.1616516 29.7027588,46.3378906 29.2602539,46.3378906 C28.817749,46.3378906 28.3935547,46.1616516 28.0807496,45.8488465 L12.7609254,30.5290223 L30.4374695,12.8501893 L45.7595824,28.1723023 C46.409607,28.8230896 46.409607,29.8782348 45.7595824,30.5290223 L45.1492309,31.135559 C44.7631836,31.5071105 44.2245484,31.6749572 43.6958313,31.5887451 C43.6607361,31.5887451 43.6279297,31.5887451 43.5928344,31.5803527 C43.2891846,31.5422059 42.9824828,31.5055848 42.5643922,31.490326 L42.4995422,31.490326 C42.2729492,31.490326 42.047882,31.490326 41.8212891,31.5071105 C41.7243957,31.5071105 41.6259766,31.5071105 41.532898,31.5071105 L41.4222717,31.5071105 C40.6280518,31.5635682 39.8414611,31.7085266 39.0792848,31.9404602 C39.000702,31.9641113 38.935852,31.9717406 38.8557434,31.9969178 L38.8206482,32.0106506 C38.7992859,32.019043 38.7794494,32.0220947 38.7596131,32.0304871 C38.4994508,32.1189881 38.2492066,32.2288514 37.9959105,32.3371887 C37.9241943,32.3669434 37.8425598,32.3936463 37.7746582,32.4234008 L37.7441406,32.4371338 L37.5778199,32.5157166 C37.3939514,32.5965881 37.2154236,32.6889039 37.0445252,32.7934266 L36.6622926,33.0123902 C36.6172791,33.0406189 36.5707398,33.063507 36.5257264,33.0917359 L36.4692688,33.1237793 C36.228943,33.2901 35.9695434,33.4571838 35.7475281,33.6235047 L35.7040406,33.6624145 C35.5957031,33.744049 35.4911805,33.8287354 35.3858947,33.9118957 C35.1028441,34.1354371 34.8335266,34.375 34.5794678,34.6305848 C34.323883,34.8861695 34.083557,35.1554871 33.8592529,35.4385375 C33.7745666,35.5422973 33.692932,35.6468201 33.6128234,35.7521057 L33.5739137,35.7986449 C33.4312439,35.9855652 33.2794189,36.2068176 33.0993652,36.4807129 C33.0642699,36.5356445 33.0245973,36.5890504 32.989502,36.6470336 L32.7926637,36.9956971 C32.7278137,37.0986938 32.6927186,37.1917725 32.6377869,37.2955322 C32.3806762,37.77771 32.1617127,38.2789611 31.9824219,38.7954711 C31.9709777,38.8206482 31.9656371,38.8473512 31.9557189,38.8717652 C31.9458008,38.8969422 31.9557189,38.9083863 31.941223,38.9251709 L31.9175721,38.9854432 C31.8878174,39.0853883 31.8695068,39.1921996 31.8412781,39.2936707 C31.7375184,39.6514893 31.652832,40.0154113 31.5879822,40.3823852 C31.5528869,40.5685426 31.52771,40.7371521 31.5124512,40.8821105 C31.4842225,41.1140441 31.4613342,41.3452148 31.4460754,41.5786742 L31.4460754,41.5969848 C31.4193727,41.847992 31.4109803,42.1012879 31.4208984,42.3538207 L31.4208984,42.5773621 L31.4208984,42.7536012 C31.4323426,43.0335998 31.4659119,43.3135986 31.5040588,43.6157227 L31.5040588,43.6286926 C31.5040588,43.675232 31.5040588,43.7217713 31.513977,43.7690734 C31.603241,44.3061828 31.4292908,44.8532105 31.0462951,45.2400207 Z M40.3793336,43.9918518 L35.4545594,39.0823363 C35.6758117,38.6230469 35.9436035,38.1881715 36.2541199,37.7838135 C36.2808227,37.7487184 36.3090516,37.7204895 36.3296508,37.6907348 C36.3494873,37.6602172 36.4074707,37.5953674 36.442566,37.5503539 L36.4593506,37.5289918 C36.6073609,37.3519898 36.75766,37.1757508 36.9224549,37.008667 C37.0872498,36.8423461 37.2558594,36.6989137 37.4343871,36.5524293 C37.5015258,36.5104676 37.5640869,36.4616395 37.6213074,36.4067078 C37.6678467,36.3754273 37.7075195,36.3388062 37.751007,36.3037109 C38.1217957,36.0237121 38.5185242,35.7795715 38.935852,35.5735779 C38.9556885,35.5735779 38.9709473,35.5552674 38.9923096,35.5453492 L43.9041137,40.4701232 C44.8562621,41.4222717 46.0708617,42.5750732 47.4876404,43.8484191 C46.2059021,44.9554443 44.8509217,46.09375 43.447876,47.2335816 C42.3606873,46.0372926 41.2979125,44.9157715 40.3762816,43.9933777 L40.3793336,43.9918518 Z M75.832367,63.0584717 C76.8615723,63.2637023 77.8503418,63.6337281 78.7612914,64.1555785 C78.8101195,64.1792297 78.8604736,64.1998291 78.9123535,64.2173768 C78.9459229,64.2318727 78.9779664,64.2456055 79.0107727,64.2570496 C79.3769836,64.4126893 79.7912598,64.4126893 80.1574707,64.2570496 C80.19104,64.2456055 80.2223205,64.2318727 80.2558898,64.2173768 C80.4496766,64.1357422 80.6259156,64.0174865 80.7739258,63.8687133 L82.2944641,62.3489379 L84.651184,64.705658 L83.177948,66.1788941 C83.1474305,66.2101746 83.1375121,66.2506104 83.1092834,66.2818908 C83.0375672,66.3696289 82.9750061,66.4634705 82.9223633,66.5634156 C82.8094482,66.7396545 82.7430725,66.9418336 82.7308654,67.150116 C82.713318,67.2554016 82.7064514,67.3622131 82.7110291,67.4690246 C82.7217102,67.5697326 82.7407836,67.6696777 82.7690125,67.767334 C82.7949523,67.878723 82.8330994,67.9870605 82.8826904,68.0900574 C82.901001,68.1289672 82.901001,68.170166 82.9223633,68.2067871 C84.9777223,71.775818 84.840393,76.1993408 82.5675965,79.6340941 C82.2937012,80.0346375 81.99234,80.4161072 81.665802,80.7754516 C81.6513063,80.7922363 81.6291809,80.8006287 81.6139221,80.8189393 C81.4933777,80.9730529 81.362915,81.1203004 81.2240602,81.2583924 L81.1996461,81.287384 L81.1660766,81.3171387 C81.0264588,81.4544678 80.8799744,81.5841676 80.7273865,81.7070008 C80.709076,81.7207336 80.7029725,81.7405701 80.6846619,81.755066 C80.3222656,82.0838928 79.9392699,82.3875428 79.535675,82.6637268 C76.1024475,84.9304199 71.6835021,85.0654602 68.1175232,83.0123902 C68.0809021,82.9902648 68.0389404,82.9902648 68.0007934,82.9719543 C67.8985596,82.9223633 67.7902223,82.8842164 67.6795959,82.8590393 C67.5811768,82.8292848 67.4797059,82.8102111 67.3774719,82.800293 C67.2729492,82.7964783 67.1676637,82.8025818 67.0646668,82.8186035 C66.9586182,82.8285217 66.8540955,82.8491211 66.7526246,82.8804016 C66.5519715,82.9589844 66.3635254,83.0665588 66.192627,83.1985473 C66.1605836,83.2267762 66.1193848,83.2366943 66.0896301,83.2672119 L64.6156311,84.740448 L62.2589111,82.3837281 L63.7908936,80.8517457 C63.8145447,80.8273316 63.8229371,80.7937621 63.8458252,80.7685852 C63.9289855,80.6724549 63.999176,80.5656434 64.0556336,80.4519652 C64.1006469,80.3764344 64.1395568,80.2970887 64.1723633,80.2154541 C64.2082215,80.0994873 64.2318727,79.9797059 64.2425537,79.8583984 C64.2822266,79.6562195 64.2662049,79.4464111 64.1960145,79.2518615 C64.1738891,79.1526795 64.1426086,79.0550232 64.1006469,78.9619445 C64.0846252,78.9253234 64.0846252,78.8856506 64.0640258,78.8505555 C63.545227,77.9281617 63.1729125,76.9294738 62.9623414,75.8918762 C61.9125367,70.9838867 56.6558838,63.4086609 52.1179199,57.5584412 C53.7429809,55.530548 55.3779602,53.5850525 56.9358826,51.8051148 C62.9989625,56.550598 70.7893371,61.98349 75.832367,63.0584717 L75.832367,63.0584717 Z M59.626007,43.9987184 C58.5975646,45.0256348 57.145691,46.5751648 55.480957,48.4420777 C55.4656982,48.4603883 55.4443359,48.4672547 55.4290771,48.487091 C55.4145812,48.5069275 55.419159,48.5107422 55.4107666,48.5221863 C48.7442016,56.0218811 38.5559082,68.7835693 37.0391846,75.9040832 C36.8270875,76.9378662 36.454773,77.9327393 35.9359742,78.8520812 C35.9176637,78.8856506 35.9191895,78.9207459 35.9024047,78.9535523 C35.8551025,79.0603637 35.8192443,79.1725158 35.7955934,79.2869568 C35.7315063,79.4853211 35.7192992,79.6974182 35.7627869,79.9018859 C35.773468,80.0064086 35.7940674,80.1101684 35.824585,80.2101135 C35.9092713,80.4092406 36.0176086,80.5961609 36.1473084,80.7685852 C36.1724854,80.7952881 36.1808777,80.8319092 36.2075805,80.8586121 L37.7410889,82.3905945 L35.382843,84.740448 L33.9111328,83.2672119 C33.8790895,83.2366943 33.8394164,83.2267762 33.807373,83.1985473 C33.6364746,83.0657959 33.4472656,82.9582215 33.2458496,82.8788758 C33.1459045,82.849884 33.0444336,82.8308105 32.9406738,82.8201293 C32.8353883,82.8025818 32.7278137,82.7964783 32.6210021,82.800293 C32.5202941,82.8109742 32.4211121,82.8300477 32.3242188,82.8590393 C32.2090148,82.8834533 32.0968629,82.9216004 31.9908143,82.9719543 C31.9526672,82.9902648 31.9107055,82.9902648 31.8740844,83.0123902 C28.3065797,85.067749 23.8830566,84.9311828 20.4490662,82.6583863 C20.0492859,82.3852539 19.6685791,82.0838928 19.3092346,81.7588807 C19.290924,81.7436219 19.2825316,81.7207336 19.2626953,81.703949 C18.9331055,81.4453125 18.6363221,81.1485291 18.3776855,80.8189393 C18.3624268,80.8006287 18.3410645,80.7937621 18.3258057,80.7754516 C17.9962158,80.4138184 17.692566,80.028534 17.4179078,79.6234131 C15.1481629,76.1917113 15.0138855,71.7712402 17.0692443,68.2067871 C17.0906066,68.1686402 17.0906066,68.1274414 17.1112061,68.0885314 C17.1577453,67.9870605 17.1951293,67.8810119 17.2210693,67.7719117 C17.2935486,67.46521 17.286682,67.1455383 17.2012328,66.8418885 C17.1669006,66.745758 17.1226502,66.6534424 17.0692443,66.5672303 C17.0166016,66.4649963 16.9540406,66.368866 16.8807984,66.280365 C16.8525695,66.2490844 16.8426514,66.2086486 16.8128967,66.1788941 L15.3396605,64.705658 L17.6979064,62.3489379 L19.2276,63.8801574 C19.3695068,64.0167236 19.5350646,64.125824 19.7158812,64.2036437 C19.7601318,64.2250061 19.8059082,64.2440797 19.8524475,64.2601014 C20.0286865,64.32724 20.2156066,64.363098 20.4040527,64.3669129 C20.5924988,64.3623352 20.7794189,64.326477 20.955658,64.2601014 C21.0014344,64.2448426 21.0456848,64.2257691 21.0891723,64.2051697 C21.13266,64.1853332 21.1791992,64.176941 21.2226867,64.1517639 C22.1458436,63.6322021 23.1437684,63.2591248 24.1806031,63.0455018 C29.3106078,61.9537354 37.3840332,56.3484191 44.3008422,50.8033752 C44.3191527,50.7888793 44.3412781,50.7835389 44.3595887,50.769043 C44.3778992,50.7537842 44.3725586,50.7469178 44.380951,50.7385254 C46.8811035,48.7251281 49.2279053,46.7384338 51.2275695,44.9653625 C53.2707215,43.1533812 54.9713135,41.5672303 56.060791,40.4655457 L60.999298,35.5438232 C61.4852906,35.7765197 61.9438172,36.0610961 62.3672484,36.3937379 C62.4191285,36.4387512 62.4725342,36.4868164 62.5343322,36.5303039 L62.5579834,36.5486145 C62.7342225,36.6973877 62.9089355,36.845398 63.0760193,37.010193 C63.24234,37.1757508 63.3911133,37.3535156 63.5391234,37.5305176 L63.5528564,37.5473023 C63.5955811,37.6052855 63.6413574,37.6609803 63.6909484,37.713623 L63.7176514,37.7517699 L63.6779785,37.713623 C63.7023926,37.7502441 63.7428283,37.7952576 63.7794494,37.8402711 C63.910675,38.0073547 64.0426637,38.1904602 64.1555785,38.3750916 C64.2837523,38.583374 64.4004822,38.798523 64.5057678,39.0190125 C64.5141602,39.037323 64.5240783,39.0541076 64.5339965,39.0739441 L59.626007,43.9987184 Z M71.9177246,45.8503723 C71.6049195,46.1631775 71.180725,46.3394164 70.7382203,46.3394164 C70.2964783,46.3394164 69.8715211,46.1631775 69.5594787,45.8503723 L68.9529418,45.2423096 C68.5806273,44.8554992 68.4127809,44.3161012 68.5012816,43.787384 C68.5012816,43.7522889 68.5012816,43.7156678 68.5089111,43.6790467 C68.5478211,43.3769227 68.5844422,43.0717469 68.5989379,42.6551818 L68.5989379,42.5933838 C68.6073303,42.3118592 68.5989379,42.0318604 68.5791016,41.7602539 C68.5791016,41.7152404 68.5791016,41.6687012 68.5791016,41.6236877 L68.5791016,41.570282 C68.5264588,40.7356262 68.3746338,39.9101258 68.1274414,39.1105652 C68.1106566,39.0518188 68.1045531,39.0052795 68.0862426,38.9434814 L68.0763244,38.9190674 C67.9695129,38.597107 67.8390504,38.2835389 67.7024842,37.9737854 C67.6856994,37.9371643 67.6727295,37.8936768 67.6574707,37.8585816 L67.6574707,37.8440857 C67.627716,37.7807617 67.6010133,37.7151488 67.5712586,37.651825 C67.49115,37.4710082 67.3988342,37.2947693 67.2958375,37.1253967 L67.0906066,36.7721559 C67.0578004,36.7156982 67.0272828,36.656952 66.9929504,36.6050721 L66.9662477,36.5585328 C66.7991639,36.3174438 66.632843,36.0588074 66.455841,35.835266 L66.4207459,35.7940674 C66.3391113,35.6857301 66.254425,35.5804443 66.1712646,35.4751586 C65.9461975,35.1928711 65.7058715,34.9227906 65.4510498,34.6672059 C65.1153564,34.3383789 64.7598266,34.0301514 64.3859863,33.745575 L64.3676758,33.7303162 C64.3394471,33.7074279 64.3112184,33.682251 64.2829895,33.6601258 C64.1807557,33.5823059 64.0693664,33.4938049 63.949585,33.4190369 C63.8290406,33.3435059 63.7359619,33.2717895 63.6276246,33.2023621 C63.55896,33.1573486 63.5040283,33.1184387 63.4262086,33.0688477 L63.0928039,32.8834533 C62.8929139,32.7705383 62.6876832,32.6667785 62.4809266,32.5668336 C62.4229432,32.5401307 62.3558045,32.4974061 62.3008729,32.4737549 C62.2726441,32.4623107 62.2390746,32.4523926 62.2108459,32.4386598 C61.9033812,32.2998047 61.5890504,32.1762086 61.2678527,32.068634 C61.2075805,32.0472717 61.1595154,32.0236207 61.1007691,32.0022582 L61.0496521,31.9885254 C60.5659484,31.8405152 60.0730896,31.7260742 59.5741271,31.6467285 C59.489441,31.6322326 59.4078064,31.6223145 59.33609,31.6123963 C59.0576172,31.5734863 58.7776184,31.5452576 58.5029602,31.5284729 C58.3206176,31.5116883 58.1443787,31.5055848 57.9795838,31.5040588 C57.9376221,31.5040588 57.8956604,31.5040588 57.8544617,31.5040588 C57.8125,31.5040588 57.7842713,31.5040588 57.750702,31.5040588 L57.3394775,31.5040588 C57.0526123,31.5170289 56.7657471,31.5490723 56.4811707,31.5872191 L56.4559937,31.5872191 C56.414032,31.5872191 56.3728332,31.5872191 56.3293457,31.5956115 C55.7998656,31.6818238 55.2612305,31.5132141 54.8744201,31.1424256 L54.2678832,30.5351258 C53.6170959,29.8843383 53.6170959,28.8291932 54.2678832,28.1784059 L69.5892334,12.8570557 L87.2375488,30.5290223 L71.9177246,45.8503723 Z M94.3092346,23.4573363 L76.6426086,5.79071055 L79.0008545,3.43170156 L96.6659547,21.1006164 L94.3092346,23.4573363 Z" id="Shape" opacity="0.5"></path>
            <path d="M67.7925109,24.0455627 C65.5143738,26.3237 65.5151367,30.0170898 67.7932738,32.2944641 C70.0706482,34.5726014 73.7640381,34.5726014 76.0421754,32.2944641 C78.3203125,30.0170898 78.3203125,26.3237 76.0429383,24.0455627 C73.7617492,21.7720031 70.0714111,21.772766 67.7909852,24.0470887 L67.7925109,24.0455627 Z M73.6839295,29.940033 C72.7081299,30.9165955 71.1250305,30.9158324 70.1492309,29.9392699 C69.1734314,28.9634705 69.1734314,27.381134 70.1492309,26.4045715 C71.1250305,25.428009 72.7081299,25.428009 73.6839295,26.4038086 C74.1531371,26.8722535 74.4171143,27.5085449 74.4171143,28.1723023 C74.4171143,28.8352967 74.1531371,29.4715881 73.6839295,29.940033 Z" id="Shape" opacity="0.5"></path>
            <path d="M21.1662293,68.3235168 C18.2373047,71.2524414 18.2373047,76.0017395 21.1662293,78.9306641 C24.0951539,81.8595887 28.8436891,81.8595887 31.7726135,78.9306641 C34.7015381,76.0017395 34.7015381,71.2524414 31.7726135,68.3235168 C30.3726195,66.9044494 28.4622191,66.1064148 26.4694215,66.1064148 C24.4758605,66.1064148 22.566223,66.9044494 21.1662293,68.3235168 L21.1662293,68.3235168 Z M29.4158936,76.5739441 C27.7656555,78.1440734 25.1731873,78.1440734 23.5229492,76.5739441 C21.8955994,74.9465941 21.8963623,72.3083496 23.5229492,70.6817627 C25.150299,69.0544129 27.7885437,69.0544129 29.4151307,70.6817627 C31.0424805,72.3083496 31.0424805,74.9465941 29.4158936,76.5739441 Z" id="Shape"></path>
        </g>
        <path d="M43.0328369,40.8739625 C43.0892945,40.8739625 43.1472777,40.8838807 43.1991578,40.892273 C43.2067871,40.89151 43.2151795,40.89151 43.2228088,40.892273 C44.7883605,41.131073 46.3737488,40.6130371 47.4960328,39.4953309 L48.1056213,38.887268 C50.0579834,36.9349061 50.0579834,33.7694703 48.1056213,31.8171082 L31.6062928,15.3170166 L26.9027711,10.6020508 L23.3673096,7.07345586 C22.0481873,5.81384277 19.971466,5.81384277 18.6523438,7.07345586 L0.975799609,24.7400818 C-0.325012109,26.0424195 -0.325012109,28.1519471 0.975799609,29.4535217 L4.51126094,32.990509 L25.7240295,54.2070922 C26.661682,55.1447449 27.9342652,55.6719359 29.2602539,55.6719359 C30.5862426,55.6719359 31.8580627,55.1447449 32.7957152,54.2070922 L33.4022521,53.5990295 C34.4535828,52.5332031 34.9693299,51.0515746 34.8060607,49.5638428 C34.8060607,49.5470582 34.8159789,49.5340881 34.8159789,49.5173035 C34.8144531,49.4356689 34.8083496,49.3540344 34.7976684,49.2739258 C34.7976684,49.2235719 34.7892762,49.1785584 34.7824098,49.1304932 C35.9491714,45.9623752 36.9909092,43.9196201 37.9076233,43.0022278 C38.8243375,42.0848355 40.532742,41.3754138 43.0328369,40.8739625 Z M16.8861389,22.9906617 L25.719452,14.1573486 L28.0761719,16.5140686 L10.4042053,34.1723023 L8.04595938,31.8155822 L16.8861389,22.9906617 Z M21.0090637,9.43704219 L23.3673096,11.7952881 L5.70068359,29.4619141 L3.33251953,27.1006164 L21.0090637,9.43704219 Z M31.0462951,51.2400207 L30.4389953,51.8488465 C30.1269531,52.1616516 29.7027588,52.3378906 29.2602539,52.3378906 C28.817749,52.3378906 28.3935547,52.1616516 28.0807496,51.8488465 L12.7609254,36.5290223 L30.4374695,18.8501893 L45.7595824,34.1723023 C46.409607,34.8230896 46.409607,35.8782348 45.7595824,36.5290223 L45.1492309,37.135559 C44.7631836,37.5071105 44.2245484,37.6749572 43.6958313,37.5887451 C43.6607361,37.5887451 43.6279297,37.5887451 43.5928344,37.5803527 C43.2891846,37.5422059 42.9824828,37.5055848 42.5643922,37.490326 L42.4995422,37.490326 C42.2729492,37.490326 42.047882,37.490326 41.8212891,37.5071105 C41.7243957,37.5071105 41.6259766,37.5071105 41.532898,37.5071105 L41.4222717,37.5071105 C40.6280518,37.5635682 39.8414611,37.7085266 39.0792848,37.9404602 C39.000702,37.9641113 38.935852,37.9717406 38.8557434,37.9969178 L38.8206482,38.0106506 C38.7992859,38.019043 38.7794494,38.0220947 38.7596131,38.0304871 C38.4994508,38.1189881 38.2492066,38.2288514 37.9959105,38.3371887 C37.9241943,38.3669434 37.8425598,38.3936463 37.7746582,38.4234008 L37.7441406,38.4371338 L37.5778199,38.5157166 C37.3939514,38.5965881 37.2154236,38.6889039 37.0445252,38.7934266 L36.6622926,39.0123902 C36.6172791,39.0406189 36.5707398,39.063507 36.5257264,39.0917359 L36.4692688,39.1237793 C36.228943,39.2901 35.9695434,39.4571838 35.7475281,39.6235047 L35.7040406,39.6624145 C35.5957031,39.744049 35.4911805,39.8287354 35.3858947,39.9118957 C35.1028441,40.1354371 34.8335266,40.375 34.5794678,40.6305848 C34.323883,40.8861695 34.083557,41.1554871 33.8592529,41.4385375 C33.7745666,41.5422973 33.692932,41.6468201 33.6128234,41.7521057 L33.5739137,41.7986449 C33.4312439,41.9855652 33.2794189,42.2068176 33.0993652,42.4807129 C33.0642699,42.5356445 33.0245973,42.5890504 32.989502,42.6470336 L32.7926637,42.9956971 C32.7278137,43.0986937 32.6927186,43.1917725 32.6377869,43.2955322 C32.3806762,43.77771 32.1617127,44.2789611 31.9824219,44.7954711 C31.9709777,44.8206482 31.9656371,44.8473512 31.9557189,44.8717652 C31.9458008,44.8969422 31.9557189,44.9083863 31.941223,44.9251709 L31.9175721,44.9854432 C31.8878174,45.0853883 31.8695068,45.1921996 31.8412781,45.2936707 C31.7375184,45.6514893 31.652832,46.0154113 31.5879822,46.3823852 C31.5528869,46.5685426 31.52771,46.7371521 31.5124512,46.8821105 C31.4842225,47.1140441 31.4613342,47.3452148 31.4460754,47.5786742 L31.4460754,47.5969848 C31.4193727,47.847992 31.4109803,48.1012879 31.4208984,48.3538207 L31.4208984,48.5773621 L31.4208984,48.7536012 C31.4323426,49.0335998 31.4659119,49.3135986 31.5040588,49.6157227 L31.5040588,49.6286926 C31.5040588,49.675232 31.5040588,49.7217713 31.513977,49.7690734 C31.603241,50.3061828 31.4292908,50.8532105 31.0462951,51.2400207 Z" id="Shape-Copy" fill="#FFFFFF" fill-rule="nonzero"></path>
        <path d="M81.3461305,7.07345586 C80.7205199,6.4486084 79.8728943,6.09689336 78.9886475,6.09689336 C78.1044006,6.09689336 77.2560119,6.4486084 76.6311645,7.07345586 L73.0957031,10.6020508 L68.3822633,15.3154906 L51.8829346,31.8155822 C50.9445191,32.7532348 50.4180908,34.0250549 50.4180908,35.3510437 C50.4180908,36.6777953 50.9445191,37.9496154 51.8829346,38.887268 L52.4909973,39.4922791 C53.6132812,40.6084594 55.1986695,41.1272582 56.7642211,40.8907471 C56.7718506,40.8892211 56.780243,40.8892211 56.7878723,40.8907471 L56.9358826,40.8739625 L56.9625855,40.8739625 C60.1288385,42.0402155 62.1701949,43.0815718 63.0866547,43.9980316 C64.0031145,44.9144914 64.7111375,46.6225145 65.2107238,49.1221008 C65.2023316,49.1838988 65.2008057,49.2373047 65.1924133,49.3036805 C65.1824951,49.3891297 65.1779176,49.4761047 65.1779176,49.5623168 C65.1779176,49.5768127 65.1863098,49.5905457 65.1863098,49.6050414 C65.0337219,51.0813293 65.5487061,52.5484619 66.5908812,53.605133 L67.1974182,54.2139588 C68.1350707,55.1516113 69.4068908,55.6788025 70.7336426,55.6788025 C72.0596312,55.6788025 73.3314514,55.1516113 74.2691039,54.2139588 L95.4879762,32.9935607 L99.0226746,29.4573363 C100.324249,28.1557617 100.324249,26.0454711 99.0226746,24.7438965 L81.3461305,7.07345586 Z M91.9525146,31.8239746 L89.5942687,34.1806945 L71.9177246,16.4934691 L74.2744445,14.1367492 L83.1077576,22.9700623 L91.9525146,31.8239746 Z M71.9177246,51.8503723 C71.6049195,52.1631775 71.180725,52.3394164 70.7382203,52.3394164 C70.2964783,52.3394164 69.8715211,52.1631775 69.5594787,51.8503723 L68.9529418,51.2423096 C68.5806273,50.8554992 68.4127809,50.3161012 68.5012816,49.787384 C68.5012816,49.7522889 68.5012816,49.7156678 68.5089111,49.6790467 C68.5478211,49.3769227 68.5844422,49.0717469 68.5989379,48.6551818 L68.5989379,48.5933838 C68.6073303,48.3118592 68.5989379,48.0318604 68.5791016,47.7602539 C68.5791016,47.7152404 68.5791016,47.6687012 68.5791016,47.6236877 L68.5791016,47.570282 C68.5264588,46.7356262 68.3746338,45.9101258 68.1274414,45.1105652 C68.1106566,45.0518187 68.1045531,45.0052795 68.0862426,44.9434814 L68.0763244,44.9190674 C67.9695129,44.597107 67.8390504,44.2835389 67.7024842,43.9737854 C67.6856994,43.9371643 67.6727295,43.8936768 67.6574707,43.8585816 L67.6574707,43.8440857 C67.627716,43.7807617 67.6010133,43.7151488 67.5712586,43.651825 C67.49115,43.4710082 67.3988342,43.2947693 67.2958375,43.1253967 L67.0906066,42.7721559 C67.0578004,42.7156982 67.0272828,42.656952 66.9929504,42.6050721 L66.9662477,42.5585328 C66.7991639,42.3174438 66.632843,42.0588074 66.455841,41.835266 L66.4207459,41.7940674 C66.3391113,41.6857301 66.254425,41.5804443 66.1712646,41.4751586 C65.9461975,41.1928711 65.7058715,40.9227906 65.4510498,40.6672059 C65.1153564,40.3383789 64.7598266,40.0301514 64.3859863,39.745575 L64.3676758,39.7303162 C64.3394471,39.7074279 64.3112184,39.682251 64.2829895,39.6601258 C64.1807557,39.5823059 64.0693664,39.4938049 63.949585,39.4190369 C63.8290406,39.3435059 63.7359619,39.2717895 63.6276246,39.2023621 C63.55896,39.1573486 63.5040283,39.1184387 63.4262086,39.0688477 L63.0928039,38.8834533 C62.8929139,38.7705383 62.6876832,38.6667785 62.4809266,38.5668336 C62.4229432,38.5401307 62.3558045,38.4974061 62.3008729,38.4737549 C62.2726441,38.4623107 62.2390746,38.4523926 62.2108459,38.4386598 C61.9033812,38.2998047 61.5890504,38.1762086 61.2678527,38.068634 C61.2075805,38.0472717 61.1595154,38.0236207 61.1007691,38.0022582 L61.0496521,37.9885254 C60.5659484,37.8405152 60.0730896,37.7260742 59.5741271,37.6467285 C59.489441,37.6322326 59.4078064,37.6223145 59.33609,37.6123963 C59.0576172,37.5734863 58.7776184,37.5452576 58.5029602,37.5284729 C58.3206176,37.5116883 58.1443787,37.5055848 57.9795838,37.5040588 C57.9376221,37.5040588 57.8956604,37.5040588 57.8544617,37.5040588 C57.8125,37.5040588 57.7842713,37.5040588 57.750702,37.5040588 L57.3394775,37.5040588 C57.0526123,37.5170289 56.7657471,37.5490723 56.4811707,37.5872191 L56.4559937,37.5872191 C56.414032,37.5872191 56.3728332,37.5872191 56.3293457,37.5956115 C55.7998656,37.6818238 55.2612305,37.5132141 54.8744201,37.1424256 L54.2678832,36.5351258 C53.6170959,35.8843383 53.6170959,34.8291932 54.2678832,34.1784059 L69.5892334,18.8570557 L87.2375488,36.5290223 L71.9177246,51.8503723 Z M94.3092346,29.4573363 L76.6426086,11.7907105 L79.0008545,9.43170156 L96.6659547,27.1006164 L94.3092346,29.4573363 Z" id="Shape-Copy-2" fill="#FFFFFF" fill-rule="nonzero"></path>
    </g>
</svg>