<?xml version="1.0" encoding="UTF-8"?>
<svg width="96px" height="104px" viewBox="0 0 96 104" version="1.1" xmlns="http://www.w3.org/2000/svg" xmlns:xlink="http://www.w3.org/1999/xlink">
    <!-- Generator: Sketch 53.1 (72631) - https://sketchapp.com -->
    <title>Group 46</title>
    <desc>Created with Sketch.</desc>
    <g id="web" stroke="none" stroke-width="1" fill="none" fill-rule="evenodd">
        <g id="Group-46" transform="translate(0.870334, 0.893093)">
            <g id="chassis" transform="translate(21.129666, 12.106907)" fill="#FFFFFF" fill-rule="nonzero" opacity="0.300000012">
                <path d="M49.8577125,2.34609375 L30.511925,2.34609375 C29.0030292,1.13066406 27.085625,0.40078125 24.9996083,0.40078125 C22.9135917,0.40078125 20.9961875,1.13066406 19.4872917,2.34609375 L7.32545417,2.34609375 C7.47715972,1.4421875 5.08270556,5.9891276 0.142091667,15.9869141 L18.1460292,15.9869141 L18.1460292,64.6333984 L2.47995,64.6333984 L2.47995,78.3046875 L19.4696667,78.3046875 C20.9830667,79.525 22.9067375,80.2578125 25,80.2578125 C27.0932625,80.2578125 29.0169333,79.525 30.5303333,78.3046875 L47.52005,78.3046875 L47.52005,64.6333984 L31.8539708,64.6333984 L31.8539708,15.9871094 L42.6741542,15.9871094 C42.5223181,16.8910156 44.9168375,12.3440104 49.8577125,2.34609375 Z M16.2648542,10.1279297 L3.53372917,10.1279297 L4.64684583,8.20527344 L16.2648542,8.20527344 C16.2301917,8.52109375 16.211,8.84160156 16.211,9.16660156 C16.211,9.49160156 16.2301917,9.81210938 16.2648542,10.1279297 Z M16.2433125,72.4457031 L2.47975417,72.4457031 L2.47975417,70.4925781 L16.2433125,70.4925781 C16.2076708,70.8134766 16.1876958,71.1388672 16.1876958,71.4691406 C16.1876958,71.7994141 16.2076708,72.1248047 16.2433125,72.4457031 Z M24.9998042,6.26015625 C26.6068125,6.26015625 27.9141958,7.5640625 27.9141958,9.16679688 C27.9141958,10.7695313 26.6068125,12.0732422 24.9998042,12.0732422 C23.3927958,12.0732422 22.0856083,10.7693359 22.0856083,9.16679688 C22.0856083,7.56386719 23.3927958,6.26015625 24.9998042,6.26015625 Z M25.9789708,17.8765625 L25.9789708,62.7359375 C25.6574125,62.7003906 25.3309583,62.6804687 24.9998042,62.6804687 C24.66865,62.6804687 24.3423917,62.7003906 24.0206375,62.7359375 L24.0206375,17.8765625 C24.3423917,17.9123047 24.66865,17.9322266 24.9998042,17.9322266 C25.3309583,17.9322266 25.6572167,17.9123047 25.9789708,17.8765625 Z M24.9998042,74.3988281 C23.3800667,74.3988281 22.0625,73.0845703 22.0625,71.4691406 C22.0625,69.8537109 23.3802625,68.5394531 24.9998042,68.5394531 C26.6195417,68.5394531 27.9373042,69.8537109 27.9373042,71.4691406 C27.9373042,73.0845703 26.6197375,74.3988281 24.9998042,74.3988281 Z M33.7564917,70.4927734 L47.52005,70.4927734 L47.52005,72.4458984 L33.7564917,72.4458984 C33.7921333,72.125 33.8121083,71.7996094 33.8121083,71.4693359 C33.8121083,71.1390625 33.7921333,70.8136719 33.7564917,70.4927734 Z M33.7351458,10.1279297 C33.7698083,9.81210938 33.789,9.49160156 33.789,9.16660156 C33.789,8.84160156 33.7698083,8.52109375 33.7351458,8.20527344 L46.4662708,8.20527344 L45.3531542,10.1279297 L33.7351458,10.1279297 Z" id="Shape"></path>
            </g>
            <g id="Group-45" stroke="#FFFFFF" stroke-width="5">
                <rect id="Rectangle" x="70.7554005" y="66.8491058" width="14" height="33" rx="3"></rect>
                <rect id="Rectangle-Copy-69" x="6.75540053" y="66.8491058" width="14" height="33" rx="3"></rect>
                <path d="M19.2505009,2.56748822 C19.0113546,2.42941704 18.7055594,2.51135461 18.5674882,2.75050093 L2.56748822,30.4633138 C2.42941704,30.7024602 2.51135461,31.0082554 2.75050093,31.1463265 L14.0088312,37.6463265 C14.2479775,37.7843977 14.5537727,37.7024602 14.6918439,37.4633138 L30.6918439,9.75050093 C30.8299151,9.51135461 30.7479775,9.20555941 30.5088312,9.06748822 L19.2505009,2.56748822 Z M80.2505009,2.56748822 C80.0113546,2.42941704 79.7055594,2.51135461 79.5674882,2.75050093 L63.5674882,30.4633138 C63.429417,30.7024602 63.5113546,31.0082554 63.7505009,31.1463265 L75.0088312,37.6463265 C75.2479775,37.7843977 75.5537727,37.7024602 75.6918439,37.4633138 L91.6918439,9.75050093 C91.8299151,9.51135461 91.7479775,9.20555941 91.5088312,9.06748822 L80.2505009,2.56748822 Z" id="Combined-Shape"></path>
            </g>
        </g>
    </g>
</svg>