<?xml version="1.0" encoding="UTF-8"?>
<svg width="100px" height="100px" viewBox="0 0 100 100" version="1.1" xmlns="http://www.w3.org/2000/svg" xmlns:xlink="http://www.w3.org/1999/xlink">
    <!-- Generator: Sketch 53.1 (72631) - https://sketchapp.com -->
    <title>lift</title>
    <desc>Created with Sketch.</desc>
    <g id="web" stroke="none" stroke-width="1" fill="none" fill-rule="evenodd">
        <g id="Hlavni" transform="translate(-670.000000, -1199.000000)" fill="#FFFFFF">
            <g id="Group-8" transform="translate(150.000000, 867.000000)">
                <g id="Group-9-Copy-5" transform="translate(439.000000, 292.000000)">
                    <g id="wheel">
                        <g id="lift" transform="translate(81.000000, 40.000000)">
                            <path d="M21.9258333,30.4866667 C21.925625,30.4866667 21.9252083,30.4866667 21.925,30.4866667 C19.2775,30.3154167 16.984375,32.3047917 16.78,34.95 C16.5920833,37.6041667 18.5908333,39.908125 21.245,40.0966667 C21.3583333,40.0966667 21.475,40.1083333 21.5883333,40.1083333 C24.1129167,40.1027083 26.2060417,38.15125 26.3883333,35.6333333 C26.5772917,32.9797917 24.579375,30.675625 21.9258333,30.4866667 Z M23.06,35.3916667 C22.9995833,36.2079167 22.2914583,36.8220833 21.475,36.7666667 C20.6579167,36.7089583 20.0420833,36.0004167 20.0983333,35.1833333 C20.1583333,34.4075 20.8052083,33.8085417 21.5833333,33.8083333 C21.6179167,33.8083333 21.65,33.8083333 21.685,33.8083333 C22.501875,33.8660417 23.1172917,34.5747917 23.06,35.3916667 Z" id="Shape" fill-rule="nonzero" opacity="0.300000012"></path>
                            <path d="M98.3333333,36.6666667 C99.25375,36.6666667 100,35.9204167 100,35 L100,20.735 C99.9964583,18.5860417 98.6202083,16.6797917 96.5816667,16 L89.2166667,13.5366667 L77.515,2.31833333 C75.965625,0.827708333 73.8983333,-0.00333333333 71.7483333,2.59052491e-15 L39.2016667,2.59052491e-15 C37.1610417,-0.000833333333 35.1910417,0.748333333 33.6666667,2.105 L20.92,13.4383333 L6.96666667,15.7716667 C2.94458333,16.4283333 -0.00666666667,19.9064583 -2.96058683e-15,23.9816667 L-2.96058683e-15,35 C-2.96058683e-15,35.9204167 0.74625,36.6666667 1.66666667,36.6666667 L10.1333333,36.6666667 C10.4966667,39.2010417 11.6866667,41.5445833 13.5183333,43.3333333 L1.66666667,43.3333333 C0.74625,43.3333333 -2.96058683e-15,44.0795833 -2.96058683e-15,45 L-2.96058683e-15,51.6666667 C-2.96058683e-15,52.5870833 0.74625,53.3333333 1.66666667,53.3333333 L7.89166667,53.3333333 L39.9733333,71.6666667 L7.89166667,90 L1.66666667,90 C0.74625,90 -2.96058683e-15,90.74625 -2.96058683e-15,91.6666667 L-2.96058683e-15,98.3333333 C-2.96058683e-15,99.25375 0.74625,100 1.66666667,100 L98.3333333,100 C99.25375,100 100,99.25375 100,98.3333333 L100,91.6666667 C100,90.74625 99.25375,90 98.3333333,90 L92.1083333,90 L60.0266667,71.6666667 L92.1083333,53.3333333 L98.3333333,53.3333333 C99.25375,53.3333333 100,52.5870833 100,51.6666667 L100,45 C100,44.0795833 99.25375,43.3333333 98.3333333,43.3333333 L89.815,43.3333333 C91.6466667,41.5445833 92.8366667,39.2010417 93.2,36.6666667 L98.3333333,36.6666667 Z M61.6666667,3.33332546 L71.7483333,3.33333333 C73.038125,3.33104167 74.2785417,3.829375 75.2083333,4.72333333 L84.1883333,13.3333333 L61.6666667,13.3333333 L61.6666667,3.33332546 Z M35.8783333,4.59666667 C36.7939583,3.78270833 37.9764583,3.333125 39.2016667,3.33333333 L58.3333333,3.33333326 L58.3333333,13.3333333 L26.05,13.3333333 L35.8783333,4.59666667 Z M70.1333333,36.6666667 C70.4966667,39.2010417 71.6866667,41.5445833 73.5183333,43.3333333 L29.815,43.3333333 C31.6466667,41.5445833 32.8366667,39.2010417 33.2,36.6666667 L70.1333333,36.6666667 Z M12.6333333,27.6316667 C12.445,27.8616667 12.2683333,28.1016667 12.0983333,28.345 C12.0633333,28.3966667 12.025,28.4433333 11.99,28.4933333 C11.7877083,28.7933333 11.6,29.1022917 11.4266667,29.42 C11.3816667,29.5 11.3466667,29.5866667 11.3033333,29.6683333 C11.18,29.9066667 11.06,30.1466667 10.9533333,30.395 C10.9,30.5183333 10.8566667,30.645 10.8083333,30.7683333 C10.7233333,30.9833333 10.6416667,31.1966667 10.57,31.4166667 C10.5233333,31.56 10.4866667,31.705 10.445,31.85 C10.3866667,32.06 10.33,32.27 10.2783333,32.485 C10.245,32.6383333 10.2183333,32.795 10.19,32.9516667 C10.1666667,33.0783333 10.135,33.2033333 10.1166667,33.3333333 L3.33333333,33.3333333 L3.33333333,26.6666667 L6.66666667,26.6666667 L6.66666667,23.3333333 L3.39166667,23.3333333 C3.66645833,21.1510417 5.341875,19.4085417 7.51166667,19.0483333 L21.805,16.6666667 L58.3333333,16.6666667 L58.3333333,33.3333333 L33.215,33.3333333 C33.1966667,33.205 33.165,33.08 33.1416667,32.9533333 C33.1133333,32.795 33.0866667,32.6383333 33.0516667,32.4833333 C33.005,32.27 32.9483333,32.06 32.885,31.8516667 C32.8433333,31.7066667 32.8066667,31.56 32.76,31.4166667 C32.6883333,31.1966667 32.6066667,30.9833333 32.5216667,30.7683333 C32.4733333,30.645 32.43,30.5183333 32.3766667,30.395 C32.27,30.1466667 32.15,29.9066667 32.0266667,29.6683333 C31.9833333,29.5866667 31.9483333,29.5016667 31.9033333,29.42 C31.73,29.1010417 31.5422917,28.7927083 31.34,28.495 C31.305,28.44 31.2633333,28.3916667 31.225,28.3383333 C31.0583333,28.0966667 30.8916667,27.86 30.6966667,27.6316667 C30.62,27.5366667 30.53,27.4483333 30.4533333,27.355 C30.2983333,27.1766667 30.1433333,27 29.9783333,26.8333333 C29.88,26.7333333 29.7766667,26.64 29.675,26.5433333 C29.5166667,26.3933333 29.3566667,26.2433333 29.19,26.1016667 C29.0766667,26.0066667 28.9616667,25.9166667 28.845,25.8266667 C28.6783333,25.695 28.5116667,25.5683333 28.345,25.4466667 C28.22,25.3583333 28.0933333,25.28 27.965,25.1933333 C27.79,25.08 27.6133333,24.9716667 27.4316667,24.86 C27.2966667,24.7833333 27.1616667,24.71 27.025,24.6383333 C26.84,24.5416667 26.65,24.4516667 26.46,24.365 C26.3183333,24.3016667 26.1783333,24.2383333 26.035,24.18 C25.8366667,24.1 25.635,24.0283333 25.4316667,23.96 C25.2883333,23.91 25.1466667,23.8583333 25,23.815 C24.785,23.7516667 24.5666667,23.7 24.3483333,23.6483333 C24.2066667,23.615 24.0666667,23.5783333 23.9233333,23.55 C23.6783333,23.5016667 23.4233333,23.4683333 23.18,23.435 C23.0566667,23.42 22.9366667,23.3966667 22.8116667,23.385 C22.4333333,23.355 22.0516667,23.3333333 21.6666667,23.3333333 C21.2816667,23.3333333 20.9,23.355 20.525,23.3916667 C20.4,23.4033333 20.28,23.4266667 20.1566667,23.4416667 C19.9066667,23.475 19.6566667,23.5083333 19.4133333,23.5566667 C19.27,23.585 19.13,23.6216667 18.99,23.655 C18.77,23.7066667 18.5516667,23.76 18.3366667,23.8216667 C18.19,23.865 18.0483333,23.9166667 17.905,23.9666667 C17.7016667,24.035 17.5,24.1066667 17.3016667,24.1866667 C17.1583333,24.245 17.0183333,24.3083333 16.8766667,24.3716667 C16.6866667,24.4583333 16.4966667,24.5483333 16.3116667,24.645 C16.175,24.7166667 16.04,24.79 15.905,24.8666667 C15.7233333,24.97 15.5466667,25.0783333 15.37,25.2 C15.2433333,25.2816667 15.1166667,25.3666667 14.9916667,25.4516667 C14.825,25.5733333 14.65,25.7016667 14.4916667,25.8333333 C14.375,25.9233333 14.26,26.0133333 14.1466667,26.1083333 C13.98,26.25 13.8133333,26.4 13.6616667,26.55 C13.56,26.6466667 13.4566667,26.74 13.3583333,26.84 C13.1916667,27.0066667 13.0383333,27.1833333 12.8833333,27.3616667 C12.795,27.4483333 12.7083333,27.5366667 12.6316667,27.6316667 L12.6333333,27.6316667 L12.6333333,27.6316667 Z M13.3333333,35 C13.3333333,30.3977083 17.064375,26.6666667 21.6666667,26.6666667 C26.2689583,26.6666667 30,30.3977083 30,35 C30,39.6022917 26.2689583,43.3333333 21.6666667,43.3333333 C17.0666667,43.3279167 13.33875,39.6 13.3333333,35 Z M42.1016667,74.29 C42.1016667,74.3133333 42.1233333,74.335 42.1316667,74.3583333 C42.2925,74.8129167 42.4920833,75.2529167 42.7283333,75.6733333 C42.77,75.75 42.8133333,75.8233333 42.8583333,75.8983333 C43.1052083,76.3147917 43.388125,76.7091667 43.7033333,77.0766667 C43.7183333,77.0933333 43.7283333,77.115 43.7433333,77.1316667 L21.2233333,90 L14.61,90 L42.1016667,74.29 Z M46.69,79.29 C48.799375,80.2191667 51.2022917,80.2191667 53.3116667,79.29 L72.0566667,90 L27.9416667,90 L46.69,79.29 Z M96.6666667,93.3333333 L96.6666667,96.6666667 L3.33333333,96.6666667 L3.33333333,93.3333333 L96.6666667,93.3333333 Z M85.39,90 L78.7766667,90 L54.185,75.9483333 C53.6675,75.65375 53.0322917,75.6575 52.5183333,75.9583333 C50.9745833,76.898125 49.0354167,76.898125 47.4916667,75.9583333 C45.9522917,75.0775 45.0016667,73.4404167 45,71.6666667 C45,71.5197917 44.9804167,71.3733333 44.9416667,71.2316667 C44.9316667,71.1933333 44.91,71.1583333 44.8966667,71.1216667 C44.8654167,71.02125 44.8247917,70.9241667 44.775,70.8316667 C44.7516667,70.79 44.715,70.7566667 44.6883333,70.7166667 C44.6366667,70.63625 44.578125,70.5604167 44.5133333,70.49 C44.4654167,70.4489583 44.4154167,70.410625 44.3633333,70.375 C44.3029167,70.32 44.2383333,70.2697917 44.17,70.225 L14.61,53.3333333 L21.2233333,53.3333333 L45.815,67.385 C46.3325,67.6795833 46.9677083,67.6758333 47.4816667,67.375 C49.0254167,66.4352083 50.9645833,66.4352083 52.5083333,67.375 C54.0477083,68.2558333 54.9983333,69.893125 55,71.6666667 C55,71.8135417 55.0195833,71.96 55.0583333,72.1016667 C55.0683333,72.14 55.09,72.175 55.1033333,72.2116667 C55.1345833,72.3120833 55.1752083,72.4091667 55.225,72.5016667 C55.2483333,72.5433333 55.285,72.5766667 55.3116667,72.6166667 C55.3633333,72.6970833 55.421875,72.7729167 55.4866667,72.8433333 C55.5345833,72.884375 55.5845833,72.9229167 55.6366667,72.9583333 C55.6970833,73.0133333 55.7616667,73.0635417 55.83,73.1083333 L85.39,90 Z M27.9433333,53.3333333 L72.0583333,53.3333333 L53.31,64.0466667 C51.2008333,63.1158333 48.7975,63.1158333 46.6883333,64.0466667 L27.9433333,53.3333333 Z M57.8983333,69.0433333 C57.8983333,69.02 57.8766667,68.9983333 57.8683333,68.975 C57.7075,68.5204167 57.5079167,68.0804167 57.2716667,67.66 C57.23,67.5833333 57.1866667,67.51 57.1416667,67.435 C56.8947917,67.0185417 56.611875,66.6241667 56.2966667,66.2566667 C56.2816667,66.24 56.2716667,66.2183333 56.2566667,66.2016667 L78.7766667,53.3333333 L85.39,53.3333333 L57.8983333,69.0433333 Z M96.6666667,46.6666667 L96.6666667,50 L3.33333333,50 L3.33333333,46.6666667 L96.6666667,46.6666667 Z M81.6666667,43.3333333 C77.064375,43.3333333 73.3333333,39.6022917 73.3333333,35 C73.3333333,30.3977083 77.064375,26.6666667 81.6666667,26.6666667 C86.2689583,26.6666667 90,30.3977083 90,35 C89.9945833,39.6 86.266875,43.3279167 81.6666667,43.3333333 Z M93.0516667,32.4833333 C93.005,32.27 92.9483333,32.06 92.885,31.8516667 C92.8433333,31.7066667 92.8066667,31.56 92.76,31.4166667 C92.6883333,31.1966667 92.6066667,30.9833333 92.5216667,30.7683333 C92.4733333,30.645 92.43,30.5183333 92.3766667,30.395 C92.27,30.1466667 92.15,29.9066667 92.0266667,29.6683333 C91.9833333,29.5866667 91.9483333,29.5016667 91.9033333,29.42 C91.73,29.1010417 91.5422917,28.7927083 91.34,28.495 C91.305,28.44 91.2633333,28.3916667 91.225,28.3383333 C91.0583333,28.0966667 90.8916667,27.86 90.6966667,27.6316667 C90.62,27.5366667 90.53,27.4483333 90.4533333,27.355 C90.2983333,27.1766667 90.1433333,27 89.9783333,26.8333333 C89.88,26.7333333 89.7766667,26.64 89.675,26.5433333 C89.5166667,26.3933333 89.3566667,26.2433333 89.19,26.1016667 C89.0766667,26.0066667 88.9616667,25.9166667 88.845,25.8266667 C88.6783333,25.695 88.5116667,25.5683333 88.345,25.4466667 C88.22,25.3583333 88.0933333,25.28 87.965,25.1933333 C87.79,25.08 87.6133333,24.9716667 87.4316667,24.86 C87.2966667,24.7833333 87.1616667,24.71 87.025,24.6383333 C86.84,24.5416667 86.65,24.4516667 86.46,24.365 C86.3183333,24.3016667 86.1783333,24.2383333 86.035,24.18 C85.8366667,24.1 85.635,24.0283333 85.4316667,23.96 C85.2883333,23.91 85.1466667,23.8583333 85,23.815 C84.785,23.7516667 84.5666667,23.7 84.3483333,23.6483333 C84.2066667,23.615 84.0666667,23.5783333 83.9233333,23.55 C83.6783333,23.5016667 83.4233333,23.4683333 83.18,23.435 C83.0566667,23.42 82.9366667,23.3966667 82.8116667,23.385 C82.4333333,23.355 82.0516667,23.3333333 81.6666667,23.3333333 C81.2816667,23.3333333 80.9,23.355 80.525,23.3916667 C80.4,23.4033333 80.28,23.4266667 80.1566667,23.4416667 C79.9066667,23.475 79.6566667,23.5083333 79.4133333,23.5566667 C79.27,23.585 79.13,23.6216667 78.99,23.655 C78.77,23.7066667 78.5516667,23.76 78.3366667,23.8216667 C78.19,23.865 78.0483333,23.9166667 77.905,23.9666667 C77.7016667,24.035 77.5,24.1066667 77.3016667,24.1866667 C77.1583333,24.245 77.0183333,24.3083333 76.8766667,24.3716667 C76.6866667,24.4583333 76.4966667,24.5483333 76.3116667,24.645 C76.175,24.7166667 76.04,24.79 75.905,24.8666667 C75.7233333,24.97 75.5466667,25.0783333 75.37,25.2 C75.2433333,25.2816667 75.1166667,25.3666667 74.9916667,25.4516667 C74.825,25.5733333 74.6583333,25.7016667 74.4916667,25.8333333 C74.375,25.9233333 74.26,26.0133333 74.1466667,26.1083333 C73.98,26.25 73.8133333,26.4 73.6616667,26.55 C73.56,26.6466667 73.4566667,26.74 73.3583333,26.84 C73.1916667,27.0066667 73.0383333,27.1833333 72.8833333,27.3616667 C72.8033333,27.455 72.7166667,27.5433333 72.64,27.6383333 C72.4516667,27.8683333 72.275,28.1083333 72.105,28.3516667 C72.07,28.4033333 72.0316667,28.45 71.9966667,28.5 C71.795625,28.8 71.6077083,29.1089583 71.4333333,29.4266667 C71.3883333,29.5066667 71.3533333,29.5933333 71.31,29.675 C71.1866667,29.9133333 71.0666667,30.1533333 70.96,30.4016667 C70.9066667,30.525 70.8633333,30.6516667 70.815,30.775 C70.73,30.99 70.6483333,31.2033333 70.5766667,31.4233333 C70.53,31.5666667 70.4933333,31.7116667 70.4516667,31.8566667 C70.3933333,32.0666667 70.3366667,32.2766667 70.285,32.4916667 C70.2516667,32.645 70.225,32.8016667 70.1966667,32.9583333 C70.1733333,33.085 70.1416667,33.21 70.1233333,33.34 L61.6666667,33.34 L61.6666667,16.6666667 L88.0633333,16.6666667 L95.5266667,19.155 C96.2070833,19.3816667 96.6660417,20.0179167 96.6666667,20.735 L96.6666667,21.6666667 L93.3333333,21.6666667 L93.3333333,25 L96.6666667,25 L96.6666667,33.3333333 L93.215,33.3333333 C93.1966667,33.205 93.165,33.08 93.1416667,32.9533333 C93.1133333,32.795 93.0866667,32.6383333 93.0516667,32.4833333 Z" id="Shape" fill-rule="nonzero" opacity="0.300000012"></path>
                            <path d="M1.66666667,43.3333333 C0.74625,43.3333333 -6.27646044e-14,44.0795833 -6.27646044e-14,45 L-6.27646044e-14,51.6666667 C-6.27646044e-14,52.5870833 0.74625,53.3333333 1.66666667,53.3333333 L7.89166667,53.3333333 L39.9733333,71.6666667 L7.89166667,90 L1.66666667,90 C0.74625,90 -6.27646044e-14,90.74625 -6.27646044e-14,91.6666667 L-6.27646044e-14,98.3333333 C-6.27646044e-14,99.25375 0.74625,100 1.66666667,100 L98.3333333,100 C99.25375,100 100,99.25375 100,98.3333333 L100,91.6666667 C100,90.74625 99.25375,90 98.3333333,90 L92.1083333,90 L60.0266667,71.6666667 L92.1083333,53.3333333 L98.3333333,53.3333333 C99.25375,53.3333333 100,52.5870833 100,51.6666667 L100,45 C100,44.0795833 99.25375,43.3333333 98.3333333,43.3333333 L1.66666667,43.3333333 Z M42.1016667,74.29 C42.1016667,74.3133333 42.1233333,74.335 42.1316667,74.3583333 C42.2925,74.8129167 42.4920833,75.2529167 42.7283333,75.6733333 C42.77,75.75 42.8133333,75.8233333 42.8583333,75.8983333 C43.1052083,76.3147917 43.388125,76.7091667 43.7033333,77.0766667 C43.7183333,77.0933333 43.7283333,77.115 43.7433333,77.1316667 L21.2233333,90 L14.61,90 L42.1016667,74.29 Z M46.69,79.29 C48.799375,80.2191667 51.2022917,80.2191667 53.3116667,79.29 L72.0566667,90 L27.9416667,90 L46.69,79.29 Z M96.6666667,93.3333333 L96.6666667,96.6666667 L3.33333333,96.6666667 L3.33333333,93.3333333 L96.6666667,93.3333333 Z M96.6666667,46.3333333 L96.6666667,49.6666667 L3.33333333,49.6666667 L3.33333333,46.3333333 L96.6666667,46.3333333 Z M85.39,90 L78.7766667,90 L54.185,75.9483333 C53.6675,75.65375 53.0322917,75.6575 52.5183333,75.9583333 C50.9745833,76.898125 49.0354167,76.898125 47.4916667,75.9583333 C45.9522917,75.0775 45.0016667,73.4404167 45,71.6666667 C45,71.5197917 44.9804167,71.3733333 44.9416667,71.2316667 C44.9316667,71.1933333 44.91,71.1583333 44.8966667,71.1216667 C44.8654167,71.02125 44.8247917,70.9241667 44.775,70.8316667 C44.7516667,70.79 44.715,70.7566667 44.6883333,70.7166667 C44.6366667,70.63625 44.578125,70.5604167 44.5133333,70.49 C44.4654167,70.4489583 44.4154167,70.410625 44.3633333,70.375 C44.3029167,70.32 44.2383333,70.2697917 44.17,70.225 L14.61,53.3333333 L21.2233333,53.3333333 L45.815,67.385 C46.3325,67.6795833 46.9677083,67.6758333 47.4816667,67.375 C49.0254167,66.4352083 50.9645833,66.4352083 52.5083333,67.375 C54.0477083,68.2558333 54.9983333,69.893125 55,71.6666667 C55,71.8135417 55.0195833,71.96 55.0583333,72.1016667 C55.0683333,72.14 55.09,72.175 55.1033333,72.2116667 C55.1345833,72.3120833 55.1752083,72.4091667 55.225,72.5016667 C55.2483333,72.5433333 55.285,72.5766667 55.3116667,72.6166667 C55.3633333,72.6970833 55.421875,72.7729167 55.4866667,72.8433333 C55.5345833,72.884375 55.5845833,72.9229167 55.6366667,72.9583333 C55.6970833,73.0133333 55.7616667,73.0635417 55.83,73.1083333 L85.39,90 Z M27.9433333,53.3333333 L72.0583333,53.3333333 L53.31,64.0466667 C51.2008333,63.1158333 48.7975,63.1158333 46.6883333,64.0466667 L27.9433333,53.3333333 Z M57.8983333,69.0433333 C57.8983333,69.02 57.8766667,68.9983333 57.8683333,68.975 C57.7075,68.5204167 57.5079167,68.0804167 57.2716667,67.66 C57.23,67.5833333 57.1866667,67.51 57.1416667,67.435 C56.8947917,67.0185417 56.611875,66.6241667 56.2966667,66.2566667 C56.2816667,66.24 56.2716667,66.2183333 56.2566667,66.2016667 L78.7766667,53.3333333 L85.39,53.3333333 L57.8983333,69.0433333 Z" id="Shape-Copy" fill-rule="nonzero"></path>
                            <path d="M81.9260417,30.4866667 C81.925625,30.4866667 81.9254167,30.4866667 81.9252083,30.4866667 L81.9252083,30.4866667 C79.2785417,30.3183333 76.9870833,32.3060417 76.7802083,34.95 C76.5922917,37.6041667 78.5910417,39.908125 81.2452083,40.0966667 C81.3585417,40.0966667 81.4752083,40.1083333 81.5885417,40.1083333 C84.113125,40.1027083 86.20625,38.15125 86.3885417,35.6333333 C86.5772917,32.9797917 84.579375,30.675625 81.9260417,30.4866667 Z M83.065,35.3916667 C83.00625,36.209375 82.2979167,36.8260417 81.48,36.7716667 C80.6629167,36.7139583 80.0470833,36.0054167 80.1033333,35.1883333 C80.1608333,34.4125 80.8054167,33.8114583 81.5833333,33.8083333 C81.62,33.8083333 81.6533333,33.8083333 81.69,33.8083333 C82.506875,33.8660417 83.1222917,34.5747917 83.065,35.3916667 Z" id="Shape" fill-rule="nonzero" opacity="0.300000012"></path>
                            <rect id="Rectangle" opacity="0.300000012" x="45" y="20" width="10" height="3.33333333"></rect>
                            <rect id="Rectangle" x="48.3333333" y="70" width="3.33333333" height="3.33333333"></rect>
                        </g>
                    </g>
                </g>
            </g>
        </g>
    </g>
</svg>