<?xml version="1.0" encoding="UTF-8"?>
<svg width="100px" height="100px" viewBox="0 0 100 100" version="1.1" xmlns="http://www.w3.org/2000/svg" xmlns:xlink="http://www.w3.org/1999/xlink">
    <!-- Generator: Sketch 53.1 (72631) - https://sketchapp.com -->
    <title>air-conditioning</title>
    <desc>Created with Sketch.</desc>
    <g id="web" stroke="none" stroke-width="1" fill="none" fill-rule="evenodd">
        <g id="Hlavni" transform="translate(-523.000000, -907.000000)" fill="#FFFFFF">
            <g id="Group-8" transform="translate(150.000000, 867.000000)">
                <g id="Group-9-Copy" transform="translate(292.000000, 0.000000)">
                    <g id="wheel">
                        <g id="air-conditioning" transform="translate(81.000000, 40.000000)">
                            <path d="M50,0 C22.3858333,0 0,22.3858333 0,50 C0,77.6141667 22.3858333,100 50,100 C77.6141667,100 100,77.6141667 100,50 C99.96875,22.39875 77.60125,0.03125 50,0 Z M96.625,48.3333333 L89.9583333,48.3333333 C89.5708333,38.8852083 85.8360417,29.8829167 79.4216667,22.935 L84.1333333,18.2233333 C91.7941667,26.42375 96.2308333,37.118125 96.625,48.3333333 Z M51.6666667,3.375 C62.881875,3.76916667 73.57625,8.20583333 81.7766667,15.8666667 L77.065,20.5783333 C70.1170833,14.1639583 61.1147917,10.4291667 51.6666667,10.0416667 L51.6666667,3.375 Z M48.3333333,3.375 L48.3333333,10.0416667 C38.8852083,10.4291667 29.8829167,14.1639583 22.935,20.5783333 L18.2233333,15.8666667 C26.42375,8.20583333 37.118125,3.76916667 48.3333333,3.375 Z M15.8666667,18.2233333 L20.5783333,22.935 C14.1639583,29.8829167 10.4291667,38.8852083 10.0416667,48.3333333 L3.375,48.3333333 C3.76916667,37.118125 8.20583333,26.42375 15.8666667,18.2233333 Z M3.375,51.6666667 L10.0416667,51.6666667 C10.4291667,61.1147917 14.1639583,70.1170833 20.5783333,77.065 L15.8666667,81.7766667 C8.20583333,73.57625 3.76916667,62.881875 3.375,51.6666667 Z M48.3333333,96.625 C37.1170833,96.2285417 26.4225,91.78875 18.2233333,84.125 L22.935,79.4133333 C29.8816667,85.8308333 38.8841667,89.5685417 48.3333333,89.9583333 L48.3333333,96.625 Z M13.3333333,50 C13.3333333,29.7495833 29.7495833,13.3333333 50,13.3333333 C70.2504167,13.3333333 86.6666667,29.7495833 86.6666667,50 C86.6666667,70.2504167 70.2504167,86.6666667 50,86.6666667 C29.7591667,86.64375 13.35625,70.2408333 13.3333333,50 Z M51.6666667,96.625 L51.6666667,89.9583333 C61.1147917,89.5708333 70.1170833,85.8360417 77.065,79.4216667 L81.7766667,84.1333333 C73.57625,91.7941667 62.881875,96.2308333 51.6666667,96.625 Z M84.1333333,81.7766667 L84.1333333,81.7766667 L79.4216667,77.065 C85.8360417,70.1170833 89.5708333,61.1147917 89.9583333,51.6666667 L96.625,51.6666667 C96.2308333,62.881875 91.7941667,73.57625 84.1333333,81.7766667 Z" id="Shape" fill-rule="nonzero" opacity="0.300000012"></path>
                            <path d="M53.3333333,66.6666667 L46.6666667,66.6666667 C42.9847917,66.6666667 40,69.6514583 40,73.3333333 C40,77.0152083 42.9847917,80 46.6666667,80 L53.3333333,80 C57.0152083,80 60,77.0152083 60,73.3333333 C60,69.6514583 57.0152083,66.6666667 53.3333333,66.6666667 Z M53.3333333,76.6666667 L46.6666667,76.6666667 C44.825625,76.6666667 43.3333333,75.174375 43.3333333,73.3333333 C43.3333333,71.4922917 44.825625,70 46.6666667,70 L53.3333333,70 C55.174375,70 56.6666667,71.4922917 56.6666667,73.3333333 C56.6666667,75.174375 55.174375,76.6666667 53.3333333,76.6666667 Z" id="Shape" fill-rule="nonzero" opacity="0.300000012"></path>
                            <path d="M46.86,23.515 L46.4733333,20.205 C30.0122917,22.1608333 18.2535417,37.090625 20.209375,53.5516667 C20.5708333,56.593125 21.395625,59.5614583 22.655,62.3533333 L25.6916667,60.98 C24.12875,57.5310417 23.3245833,53.7866667 23.3333333,50 C23.3254167,36.4833333 33.4366667,25.100625 46.86,23.515 Z" id="Path"></path>
                            <path d="M62.3283333,22.650625 C59.5364583,21.3910417 56.568125,20.56625 53.5266667,20.205 L53.14,23.515 C66.5633333,25.100625 76.6745833,36.4833333 76.6666667,50 C76.6754167,53.7866667 75.87125,57.5310417 74.3083333,60.98 L77.345,62.3533333 C84.161875,47.2429167 77.43875,29.4675 62.3283333,22.650625 Z" id="Path"></path>
                            <path d="M28.3333333,63.3333333 C25.571875,63.3333333 23.3333333,65.571875 23.3333333,68.3333333 C23.3333333,71.0947917 25.571875,73.3333333 28.3333333,73.3333333 C31.0947917,73.3333333 33.3333333,71.0947917 33.3333333,68.3333333 C33.3333333,65.571875 31.0947917,63.3333333 28.3333333,63.3333333 Z M28.3333333,70 C27.4129167,70 26.6666667,69.25375 26.6666667,68.3333333 C26.6666667,67.4129167 27.4129167,66.6666667 28.3333333,66.6666667 C29.25375,66.6666667 30,67.4129167 30,68.3333333 C30,69.25375 29.25375,70 28.3333333,70 Z" id="Shape" fill-rule="nonzero"></path>
                            <path d="M71.6666667,63.3333333 C68.9052083,63.3333333 66.6666667,65.571875 66.6666667,68.3333333 C66.6666667,71.0947917 68.9052083,73.3333333 71.6666667,73.3333333 C74.428125,73.3333333 76.6666667,71.0947917 76.6666667,68.3333333 C76.6666667,65.571875 74.428125,63.3333333 71.6666667,63.3333333 Z M71.6666667,70 C70.74625,70 70,69.25375 70,68.3333333 C70,67.4129167 70.74625,66.6666667 71.6666667,66.6666667 C72.5870833,66.6666667 73.3333333,67.4129167 73.3333333,68.3333333 C73.3333333,69.25375 72.5870833,70 71.6666667,70 Z" id="Shape" fill-rule="nonzero"></path>
                            <polygon id="Path" points="62.06 47.5866667 58.1733333 48.6283333 53.3333333 45.8333333 58.1733333 43.0383333 62.06 44.08 62.9233333 40.8616667 59.9783333 40.0716667 60.7683333 37.1266667 57.5483333 36.265 56.5066667 40.1516667 51.6666667 42.9466667 51.6666667 37.3566667 54.5116667 34.5116667 52.155 32.155 50 34.31 47.845 32.155 45.4883333 34.5116667 48.3333333 37.3566667 48.3333333 42.9466667 43.4933333 40.1516667 42.4516667 36.265 39.2316667 37.1266667 40.0216667 40.0716667 37.0766667 40.8616667 37.94 44.08 41.8266667 43.0383333 46.6666667 45.8333333 41.8266667 48.6283333 37.94 47.5866667 37.0766667 50.805 40.0216667 51.595 39.2316667 54.54 42.4516667 55.4016667 43.4933333 51.515 48.3333333 48.72 48.3333333 54.31 45.4883333 57.155 47.845 59.5116667 50 57.3566667 52.155 59.5116667 54.5116667 57.155 51.6666667 54.31 51.6666667 48.72 56.5066667 51.515 57.5483333 55.4016667 60.7683333 54.54 59.9783333 51.595 62.9233333 50.805"></polygon>
                        </g>
                    </g>
                </g>
            </g>
        </g>
    </g>
</svg>