<?xml version="1.0" encoding="UTF-8"?>
<svg width="100px" height="100px" viewBox="0 0 100 100" version="1.1" xmlns="http://www.w3.org/2000/svg" xmlns:xlink="http://www.w3.org/1999/xlink">
    <!-- Generator: Sketch 53.1 (72631) - https://sketchapp.com -->
    <title>human-resources</title>
    <desc>Created with Sketch.</desc>
    <g id="web" stroke="none" stroke-width="1" fill="none" fill-rule="evenodd">
        <g id="Kariera" transform="translate(-670.000000, -799.000000)" fill="#FFFFFF">
            <g id="Group-9-Copy-2" transform="translate(540.000000, 759.000000)">
                <g id="wheel">
                    <g id="human-resources" transform="translate(130.000000, 40.000000)">
                        <path d="M4.82312245,71.5363501 C5.10167609,72.1096998 5.68314719,72.4727131 6.31984158,72.4727131 C6.95653597,72.4743372 7.53719459,72.1121362 7.81737256,71.5412227 L9.35388524,68.3975443 L13.6052819,68.3975443 C14.1713227,68.3975443 14.6991944,68.1092451 15.0053599,67.6325364 C15.3107133,67.1558277 15.352943,66.5556782 15.1166191,66.0408004 C14.1160994,63.8675936 13.3307888,61.600994 12.772057,59.2734863 C12.0167944,56.2751755 11.6375389,53.1948416 11.6424116,50.102326 C11.6456601,33.4938605 22.3647025,18.7849208 38.1748636,13.6954262 C53.9850247,8.60674387 71.2724141,14.3004482 80.9633252,27.7887863 C81.2751755,28.2232653 81.7770595,28.4807044 82.3122401,28.4807044 L87.2685486,28.4807044 C88.0189385,28.4807044 88.6767476,27.9780081 88.8732784,27.2536058 L90.3204586,21.9310356 C90.4536447,21.4413331 90.3553794,20.91671 90.0540865,20.5074064 C77.2706601,3.15423597 54.7882017,-4.02725447 34.3124676,2.70189064 C13.8359212,9.43103555 -0.00324844075,28.5489214 -8.67747985e-15,50.102326 C-0.00974532225,56.8274104 1.34810291,63.4842775 3.99152162,69.6684967 C4.24814844,70.2970699 4.52751435,70.9256432 4.82312245,71.5363501 L4.82312245,71.5363501 Z M49.8960499,3.53267942 C64.4019622,3.56678794 78.0714008,10.3308536 86.8974141,21.8433277 L85.9959719,25.154301 L83.1600832,25.154301 C72.4215501,10.8367983 53.7259615,4.99691393 36.7471738,10.6565098 C19.7683863,16.3161058 8.31600832,32.2050416 8.31600832,50.102326 C8.31032349,53.4620258 8.72206341,56.8087318 9.54148254,60.0669179 C9.94916195,61.7682888 10.4689125,63.4396114 11.0982977,65.071141 L8.31600832,65.071141 C7.68012599,65.0703287 7.09865509,65.4317177 6.81928919,66.0026312 L6.41648254,66.8228626 C0.919308732,52.4996753 2.82533139,36.3890333 11.512474,23.7436655 C20.1996166,11.0982977 34.5544763,3.53998836 49.8960499,3.53267942 Z" id="Shape" fill-rule="nonzero" opacity="0.300000012"></path>
                        <path d="M93.4617008,27.7327507 C92.8250064,27.7319387 92.2435356,28.095764 91.9649817,28.6691139 L90.4349663,31.8071077 L86.1868179,31.8071077 C85.6215892,31.8071077 85.0937175,32.0954067 84.788364,32.5713033 C84.4821985,33.0471998 84.4391568,33.6457252 84.6738565,34.1606029 C93.1945166,52.7400599 85.5931653,74.7344399 67.4197634,84.0883252 C65.765495,84.9515983 64.0478819,85.6873701 62.2823545,86.2891437 C61.7999609,86.4556262 61.320816,86.6212969 60.7848233,86.7666644 C60.3958225,86.887669 59.9913917,87.0070491 59.5098104,87.1158719 C58.1560227,87.478073 56.7819322,87.7598753 55.394848,87.9588422 C54.9855445,88.0189385 54.576241,88.0798466 54.090599,88.1253247 C53.6049572,88.1699909 53.1396179,88.2268387 52.6685942,88.2698805 L51.3213033,88.3299767 C50.3930613,88.3632732 49.4274624,88.3632732 48.4837902,88.3299767 L47.2266437,88.2796258 C46.7174507,88.2333356 46.2090696,88.1870453 45.6811979,88.1131432 C45.2361617,88.0684771 44.8049312,88.023811 44.3062954,87.9474728 C42.9200233,87.750942 41.5475572,87.4691397 40.1962058,87.1036902 C39.7901507,87.014358 39.386532,86.8925416 38.9553015,86.7609796 C38.4566657,86.622921 37.9791451,86.4669958 37.4204133,86.2623441 C37.1345505,86.1778846 36.8633056,86.0763709 36.5335888,85.9448089 C35.1091476,85.4209979 33.7204391,84.8054183 32.3755846,84.1005069 C27.0148453,81.3117204 22.3785083,77.3096414 18.8377079,72.412617 C18.5226091,71.977326 18.0174765,71.7215112 17.4806717,71.7239476 L12.5243634,71.7239476 C11.7731613,71.7239476 11.1153522,72.2274557 10.9188214,72.9518582 L9.47164116,78.2736162 C9.33845509,78.7649428 9.43753243,79.2903782 9.73963742,79.6996817 C12.5211148,83.4662486 15.8199064,86.8235123 19.5377468,89.6699584 C33.6140528,100.499448 52.3932888,103.012117 68.8214657,96.2651052 C81.5050025,91.0676 91.4907094,80.8813019 96.4348362,68.0970634 C101.378151,55.313637 100.843783,41.0586669 94.9576079,28.6804834 C94.6823025,28.1038852 94.1008316,27.7351871 93.4617008,27.7327507 L93.4617008,27.7327507 Z M92.740547,68.3609992 C87.9214852,79.6168464 78.8786383,88.53138 67.5561979,93.1896441 C48.0769231,101.143451 25.6837967,95.0680549 12.8946857,78.3605119 L13.8042491,75.0503509 L16.6490709,75.0503509 C20.4253834,80.0578222 25.2736811,84.1581665 30.837448,87.0525272 C32.297622,87.8142867 33.8048985,88.4810291 35.3511563,89.0478819 C35.7304119,89.1997466 36.0901767,89.3313085 36.3922817,89.4206405 C36.9428923,89.615547 37.4935031,89.7933992 38.0221869,89.9412033 C38.4980834,90.087383 38.9902222,90.2327507 39.41658,90.3253314 C40.8588877,90.7127079 42.3231225,91.0123765 43.8019751,91.221901 C44.3209135,91.310421 44.8219854,91.3648324 45.3076274,91.4151832 C45.8379353,91.4817763 46.3820491,91.5329393 47.0804638,91.5946595 L48.3676586,91.642574 C49.4055353,91.6791189 50.4320426,91.6791189 51.4528651,91.642574 L52.9747597,91.5711083 C53.4733952,91.5248181 53.993958,91.4760915 54.4186915,91.4233044 C54.9075819,91.3883836 55.3980965,91.3169179 55.8853626,91.2438279 C57.3763969,91.0310551 58.8528131,90.7297622 60.3081146,90.3407613 C60.8067503,90.2327507 61.2956405,90.0857588 61.7301195,89.9533848 C62.2985967,89.7869023 62.8475832,89.6204198 63.3827638,89.4255133 C65.300968,88.7725767 67.165573,87.9726482 68.9611486,87.0338486 C87.824032,77.308017 96.329262,54.9335694 88.6905534,35.133511 L91.4760915,35.133511 C92.1135979,35.1343231 92.6942568,34.7704977 92.9728106,34.1971478 L93.367496,33.387474 C97.7074129,44.6847389 97.4832705,57.2269686 92.7421713,68.3609992 L92.740547,68.3609992 Z" id="Shape" fill-rule="nonzero" opacity="0.300000012"></path>
                        <path d="M58.2120582,45.112721 L58.2120582,41.7863177 C58.2120582,37.1938345 54.4885331,33.4703094 49.8960499,33.4703094 C45.3035667,33.4703094 41.5800416,37.1938345 41.5800416,41.7863177 L41.5800416,45.112721 C41.5800416,49.7060162 45.3035667,53.4287293 49.8960499,53.4287293 C54.4885331,53.4287293 58.2120582,49.7060162 58.2120582,45.112721 Z M44.9064449,45.112721 L44.9064449,41.7863177 C44.9064449,39.0308277 47.1405601,36.7967127 49.8960499,36.7967127 C52.6515397,36.7967127 54.8856549,39.0308277 54.8856549,41.7863177 L54.8856549,45.112721 C54.8856549,47.8690229 52.6515397,50.102326 49.8960499,50.102326 C47.1405601,50.102326 44.9064449,47.8690229 44.9064449,45.112721 Z" id="Shape" fill-rule="nonzero"></path>
                        <path d="M34.9272349,45.112721 L34.9272349,41.7863177 C34.9272349,37.1938345 31.2037098,33.4703094 26.6112266,33.4703094 C22.0187435,33.4703094 18.2952183,37.1938345 18.2952183,41.7863177 L18.2952183,45.112721 C18.2952183,49.7060162 22.0187435,53.4287293 26.6112266,53.4287293 C31.2037098,53.4287293 34.9272349,49.7060162 34.9272349,45.112721 Z M21.6216216,45.112721 L21.6216216,41.7863177 C21.6216216,39.0308277 23.8557368,36.7967127 26.6112266,36.7967127 C29.3667164,36.7967127 31.6008316,39.0308277 31.6008316,41.7863177 L31.6008316,45.112721 C31.6008316,47.8690229 29.3667164,50.102326 26.6112266,50.102326 C23.8557368,50.102326 21.6216216,47.8690229 21.6216216,45.112721 Z" id="Shape" fill-rule="nonzero"></path>
                        <path d="M81.4968815,45.112721 L81.4968815,41.7863177 C81.4968815,37.1938345 77.7733563,33.4703094 73.1808732,33.4703094 C68.58839,33.4703094 64.8648649,37.1938345 64.8648649,41.7863177 L64.8648649,45.112721 C64.8648649,49.7060162 68.58839,53.4287293 73.1808732,53.4287293 C77.7733563,53.4287293 81.4968815,49.7060162 81.4968815,45.112721 Z M68.1912682,45.112721 L68.1912682,41.7863177 C68.1912682,39.0308277 70.4253834,36.7967127 73.1808732,36.7967127 C75.936363,36.7967127 78.1704782,39.0308277 78.1704782,41.7863177 L78.1704782,45.112721 C78.1704782,47.8690229 75.936363,50.102326 73.1808732,50.102326 C70.4253834,50.102326 68.1912682,47.8690229 68.1912682,45.112721 Z" id="Shape" fill-rule="nonzero"></path>
                        <path d="M74.8440748,75.0503509 L74.8440748,60.081536 L78.1704782,60.081536 C79.6022285,60.0831601 80.9649493,60.6987397 81.9126819,61.7715372 L84.4074844,59.5715306 C82.8287422,57.7808277 80.5572701,56.7559447 78.1704782,56.7551326 L68.1912682,56.7551326 C65.5632796,56.7632536 63.0952767,58.0163397 61.5384615,60.133511 C59.9816464,58.0163397 57.5136435,56.7632536 54.8856549,56.7551326 L44.9064449,56.7551326 C42.2784563,56.7632536 39.8104534,58.0163397 38.2536383,60.133511 C36.6968231,58.0163397 34.2288202,56.7632536 31.6008316,56.7551326 L21.6216216,56.7551326 C19.5954067,56.7551326 17.6390333,57.4941528 16.1195751,58.8341347 L18.3236422,61.3289372 C19.2332056,60.524136 20.4067048,60.0807237 21.6216216,60.081536 L24.9480249,60.081536 L24.9480249,75.0503509 L28.2744283,75.0503509 L28.2744283,60.081536 L31.6008316,60.081536 C34.3563214,60.081536 36.5904366,62.3156509 36.5904366,65.071141 L36.5904366,83.3663593 L39.9168399,83.3663593 L39.9168399,65.071141 C39.9168399,62.3156509 42.1509551,60.081536 44.9064449,60.081536 L48.2328482,60.081536 L48.2328482,80.0399559 L51.5592516,80.0399559 L51.5592516,60.081536 L54.8856549,60.081536 C57.6411447,60.081536 59.8752599,62.3156509 59.8752599,65.071141 L59.8752599,83.3663593 L63.2016632,83.3663593 L63.2016632,65.071141 C63.2016632,62.3156509 65.4357784,60.081536 68.1912682,60.081536 L71.5176715,60.081536 L71.5176715,75.0503509 L74.8440748,75.0503509 Z" id="Path"></path>
                    </g>
                </g>
            </g>
        </g>
    </g>
</svg>