<?xml version="1.0" encoding="UTF-8"?>
<svg width="100px" height="100px" viewBox="0 0 100 100" version="1.1" xmlns="http://www.w3.org/2000/svg" xmlns:xlink="http://www.w3.org/1999/xlink">
    <!-- Generator: Sketch 53.1 (72631) - https://sketchapp.com -->
    <title>brake-disc</title>
    <desc>Created with Sketch.</desc>
    <g id="web" stroke="none" stroke-width="1" fill="none" fill-rule="evenodd">
        <g id="Hlavni" transform="translate(-1108.000000, -907.000000)" fill="#FFFFFF" fill-rule="nonzero">
            <g id="Group-8" transform="translate(150.000000, 867.000000)">
                <g id="Group-9-Copy-3" transform="translate(877.000000, 0.000000)">
                    <g id="wheel">
                        <g id="brake-disc" transform="translate(81.000000, 40.000000)">
                            <path d="M54.5454545,32.7272727 C42.5009091,32.7402273 32.7402273,42.5009091 32.7272727,54.5454545 C32.7272727,66.5952273 42.4956818,76.3636364 54.5454545,76.3636364 C66.5952273,76.3636364 76.3636364,66.5952273 76.3636364,54.5454545 C76.3636364,42.4956818 66.5952273,32.7272727 54.5454545,32.7272727 Z M54.5454545,72.7272727 C44.5038636,72.7272727 36.3636364,64.5870455 36.3636364,54.5454545 C36.3747727,44.5084091 44.5084091,36.3745455 54.5454545,36.3636364 C64.5870455,36.3636364 72.7272727,44.5038636 72.7272727,54.5454545 C72.7272727,64.5870455 64.5870455,72.7272727 54.5454545,72.7272727 Z" id="Shape"></path>
                            <path d="M54.5454545,47.2727273 C50.5288636,47.2727273 47.2727273,50.5288636 47.2727273,54.5454545 C47.2727273,58.5620455 50.5288636,61.8181818 54.5454545,61.8181818 C58.5620455,61.8181818 61.8181818,58.5620455 61.8181818,54.5454545 C61.8181818,50.5288636 58.5620455,47.2727273 54.5454545,47.2727273 Z M54.5454545,58.1818182 C52.5370455,58.1818182 50.9090909,56.5538636 50.9090909,54.5454545 C50.9090909,52.5370455 52.5370455,50.9090909 54.5454545,50.9090909 C56.5538636,50.9090909 58.1818182,52.5370455 58.1818182,54.5454545 C58.1818182,56.5538636 56.5538636,58.1818182 54.5454545,58.1818182 Z" id="Shape"></path>
                            <rect id="Rectangle" x="52.7272727" y="40" width="3.63636364" height="3.63636364"></rect>
                            <rect id="Rectangle" x="52.7272727" y="65.4545455" width="3.63636364" height="3.63636364"></rect>
                            <rect id="Rectangle" x="41.8181818" y="47.2727273" width="3.63636364" height="3.63636364"></rect>
                            <rect id="Rectangle" x="63.6363636" y="47.2727273" width="3.63636364" height="3.63636364"></rect>
                            <rect id="Rectangle" x="41.8181818" y="58.1818182" width="3.63636364" height="3.63636364"></rect>
                            <rect id="Rectangle" x="63.6363636" y="58.1818182" width="3.63636364" height="3.63636364"></rect>
                            <rect id="Rectangle" opacity="0.300000012" x="67.2727273" y="30.9090909" width="3.63636364" height="3.63636364"></rect>
                            <rect id="Rectangle" opacity="0.300000012" x="63.6363636" y="23.6363636" width="3.63636364" height="3.63636364"></rect>
                            <rect id="Rectangle" opacity="0.300000012" x="60" y="16.3636364" width="3.63636364" height="3.63636364"></rect>
                            <rect id="Rectangle" opacity="0.300000012" x="38.1818182" y="74.5454545" width="3.63636364" height="3.63636364"></rect>
                            <rect id="Rectangle" opacity="0.300000012" x="41.8181818" y="81.8181818" width="3.63636364" height="3.63636364"></rect>
                            <rect id="Rectangle" opacity="0.300000012" x="45.4545455" y="89.0909091" width="3.63636364" height="3.63636364"></rect>
                            <rect id="Rectangle" opacity="0.300000012" x="30.9090909" y="38.1818182" width="3.63636364" height="3.63636364"></rect>
                            <rect id="Rectangle" opacity="0.300000012" x="74.5454545" y="67.2727273" width="3.63636364" height="3.63636364"></rect>
                            <rect id="Rectangle" opacity="0.300000012" x="81.8181818" y="63.6363636" width="3.63636364" height="3.63636364"></rect>
                            <rect id="Rectangle" opacity="0.300000012" x="89.0909091" y="60" width="3.63636364" height="3.63636364"></rect>
                            <polygon id="Rectangle" opacity="0.300000012" transform="translate(49.401207, 28.834883) rotate(-45.000000) translate(-49.401207, -28.834883) " points="47.5830427 27.0167187 51.2193714 27.0167187 51.2193714 30.6530474 47.5830427 30.6530474"></polygon>
                            <polygon id="Rectangle" opacity="0.300000012" transform="translate(59.685040, 80.252364) rotate(-45.000000) translate(-59.685040, -80.252364) " points="57.8668756 78.4341993 61.5032044 78.4341993 61.5032044 82.0705281 57.8668756 82.0705281"></polygon>
                            <polygon id="Rectangle" opacity="0.300000012" transform="translate(67.404226, 82.827554) rotate(-44.991897) translate(-67.404226, -82.827554) " points="65.586062 81.0093896 69.2223908 81.0093896 69.2223908 84.6457184 65.586062 84.6457184"></polygon>
                            <polygon id="Rectangle" opacity="0.300000012" transform="translate(75.111450, 85.405285) rotate(-45.000000) translate(-75.111450, -85.405285) " points="73.2932858 83.5871201 76.9296146 83.5871201 76.9296146 87.2234489 73.2932858 87.2234489"></polygon>
                            <polygon id="Rectangle" opacity="0.300000012" transform="translate(28.830486, 59.687856) rotate(-45.000000) translate(-28.830486, -59.687856) " points="27.0123212 57.8696918 30.6486499 57.8696918 30.6486499 61.5060205 27.0123212 61.5060205"></polygon>
                            <polygon id="Rectangle" opacity="0.300000012" transform="translate(26.258911, 67.399344) rotate(-45.000000) translate(-26.258911, -67.399344) " points="24.440747 65.5811796 28.0770757 65.5811796 28.0770757 69.2175084 24.440747 69.2175084"></polygon>
                            <polygon id="Rectangle" opacity="0.300000012" transform="translate(23.677060, 75.111018) rotate(-45.000000) translate(-23.677060, -75.111018) " points="21.8588956 73.2928537 25.4952244 73.2928537 25.4952244 76.9291825 21.8588956 76.9291825"></polygon>
                            <polygon id="Rectangle" opacity="0.300000012" transform="translate(80.252841, 49.401058) rotate(-45.000000) translate(-80.252841, -49.401058) " points="78.4346767 47.5828933 82.0710055 47.5828933 82.0710055 51.219222 78.4346767 51.219222"></polygon>
                            <polygon id="Rectangle" opacity="0.300000012" transform="translate(82.831230, 41.688629) rotate(-45.000000) translate(-82.831230, -41.688629) " points="81.0130656 39.8704642 84.6493944 39.8704642 84.6493944 43.5067929 81.0130656 43.5067929"></polygon>
                            <polygon id="Rectangle" opacity="0.300000012" transform="translate(85.401225, 33.973811) rotate(-45.000000) translate(-85.401225, -33.973811) " points="83.5830604 32.1556468 87.2193892 32.1556468 87.2193892 35.7919756 83.5830604 35.7919756"></polygon>
                            <path d="M54.5454545,9.09090909 L54.5454545,5.45454545 C54.5454545,2.44204545 52.1034091,1.3458047e-15 49.0909091,1.3458047e-15 L38.1818182,1.3458047e-15 C37.9865909,-0.000227272727 37.7925,0.0311363636 37.6072727,0.0927272727 C19.9193182,6.03477273 6.03568182,19.9190909 0.0945454545,37.6072727 C0.0322727273,37.7925 0.000454545455,37.9863636 0,38.1818182 L0,49.0909091 C0,52.1034091 2.44204545,54.5454545 5.45454545,54.5454545 L9.09090909,54.5454545 C9.09090909,79.6493182 29.4415909,100 54.5454545,100 C79.6493182,100 100,79.6493182 100,54.5454545 C100,29.4415909 79.6493182,9.09090909 54.5454545,9.09090909 Z M5.45454545,50.9090909 C4.45045455,50.9090909 3.63636364,50.095 3.63636364,49.0909091 L3.63636364,38.48 C9.235,22.1004545 22.1004545,9.235 38.48,3.63636364 L49.0909091,3.63636364 C50.095,3.63636364 50.9090909,4.45045455 50.9090909,5.45454545 L50.9090909,18.4272727 C34.2493182,21.1934091 21.1934091,34.2493182 18.4272727,50.9090909 L5.45454545,50.9090909 Z M54.5454545,96.3636364 C31.45,96.3636364 12.7272727,77.6409091 12.7272727,54.5454545 L20,54.5454545 C20.9168182,54.5452273 21.69,53.8625 21.8036364,52.9527273 C22.1365909,50.3615909 22.7511364,47.8143182 23.6363636,45.3563636 L23.6363636,45.4545455 L27.2727273,45.4545455 L27.2727273,41.8181818 L25.0909091,41.8181818 C28.1906818,35.3940909 33.1352273,30.0402273 39.2927273,26.44 L41.6854545,28.8327273 L44.2563636,26.2618182 L42.6981818,24.7036364 C45.9527273,23.2311364 49.4090909,22.2536364 52.9527273,21.8036364 C53.8625,21.69 54.5452273,20.9168182 54.5454545,20 L54.5454545,12.7272727 C77.6409091,12.7272727 96.3636364,31.45 96.3636364,54.5454545 C96.3636364,77.6409091 77.6409091,96.3636364 54.5454545,96.3636364 Z" id="Shape" opacity="0.300000012"></path>
                            <rect id="Rectangle" opacity="0.300000012" x="36.3636364" y="7.27272727" width="3.63636364" height="3.63636364"></rect>
                            <rect id="Rectangle" opacity="0.300000012" x="5.45454545" y="40" width="3.63636364" height="3.63636364"></rect>
                            <rect id="Rectangle" opacity="0.300000012" x="18.1818182" y="18.1818182" width="3.63636364" height="3.63636364"></rect>
                        </g>
                    </g>
                </g>
            </g>
        </g>
    </g>
</svg>