<?xml version="1.0" encoding="UTF-8"?>
<svg width="100px" height="100px" viewBox="0 0 100 100" version="1.1" xmlns="http://www.w3.org/2000/svg" xmlns:xlink="http://www.w3.org/1999/xlink">
    <title>Artboard Copy 3</title>
    <g id="Artboard-Copy-3" stroke="none" stroke-width="1" fill="none" fill-rule="evenodd">
        <g id="check-2-copy" transform="translate(9.000000, 0.000000)" fill="#FFFFFF" fill-rule="nonzero">
            <g id="check-copy">
                <path d="M74.3459459,14.0014553 L60.5954262,14.0014553 L60.5954262,12.8995842 C60.5746362,9.36528067 57.7056133,6.4962578 54.1713098,6.51704782 L50.9488565,6.51704782 C48.8698545,1.23638254 42.9031185,-1.36237006 37.6224532,0.716632017 C34.9613306,1.75613306 32.8615385,3.85592516 31.8220374,6.51704782 L28.6619543,6.51704782 C25.1692308,6.51704782 22.3417879,9.34449064 22.3417879,12.8372141 C22.3417879,12.8580042 22.3417879,12.8787942 22.3417879,12.9203742 L22.3417879,14.0222453 L8.59126819,14.0222453 C3.85114345,14.0222453 0.0465696466,17.9515593 0.0465696466,22.691684 L0.0465696466,91.3819127 C0.0465696466,96.0596674 3.83035343,99.8642412 8.52889813,99.8850312 C8.54968815,99.8850312 8.57047817,99.8850312 8.61205821,99.8850312 L74.3459459,99.8850312 C79.0237006,99.9266112 82.8698545,96.1636175 82.8906445,91.4650728 C82.8906445,91.4442827 82.8906445,91.4234927 82.8906445,91.3819127 L82.8906445,22.670894 C82.8906445,17.9307692 79.0652807,14.0014553 74.3459459,14.0014553 Z M26.4997921,12.8995842 C26.4582121,11.714553 27.393763,10.716632 28.5787942,10.675052 C28.5995842,10.675052 28.6411642,10.675052 28.6619543,10.675052 L33.3189189,10.675052 C34.2960499,10.675052 35.1276507,9.98898129 35.3355509,9.05343035 C36.0216216,6.12203742 38.433264,4.14698545 41.3438669,4.14698545 C44.2336798,4.14698545 46.7284823,6.18440748 47.3313929,9.01185031 C47.5392931,9.98898129 48.370894,10.675052 49.368815,10.675052 L54.1505198,10.675052 C55.397921,10.654262 56.416632,11.652183 56.416632,12.8995842 L56.416632,21.0700624 L26.4997921,21.0700624 L26.4997921,12.8995842 Z M74.429106,95.706237 C74.408316,95.706237 74.366736,95.706237 74.3459459,95.706237 L8.59126819,95.706237 C6.2004158,95.747817 4.22536383,93.8351351 4.2045738,91.4442827 C4.2045738,91.4234927 4.2045738,91.3819127 4.2045738,91.3611227 L4.2045738,22.670894 C4.2045738,20.2176715 6.15883576,18.1594595 8.59126819,18.1594595 L22.3417879,18.1594595 L22.3417879,23.2114345 C22.3002079,24.2717256 23.1318087,25.1864865 24.2128898,25.2280665 C24.2544699,25.2280665 24.2960499,25.2280665 24.3168399,25.2280665 L58.5164241,25.2280665 C59.6390852,25.2696466 60.5746362,24.3756757 60.5954262,23.2530146 C60.5954262,23.2322245 60.5954262,23.2322245 60.5954262,23.2114345 L60.5954262,18.1594595 L74.3459459,18.1594595 C76.7991684,18.1594595 78.7326403,20.2384615 78.7326403,22.670894 L78.7326403,91.3611227 C78.7326403,93.7519751 76.7991684,95.685447 74.429106,95.706237 Z" id="Shape" opacity="0.5"></path>
                <path d="M32.8553015,69.718711 L14.9758836,69.718711 C13.8324324,69.718711 12.8968815,70.654262 12.8968815,71.7977131 L12.8968815,89.0534304 C12.8968815,90.1968815 13.8324324,91.1324324 14.9758836,91.1324324 L32.8553015,91.1324324 C33.9987526,91.1324324 34.9343035,90.1968815 34.9343035,89.0534304 L34.9343035,71.7977131 C34.9343035,70.654262 33.9987526,69.718711 32.8553015,69.718711 Z M30.7762994,86.9744283 L17.0548857,86.9744283 L17.0548857,73.8767152 L30.7762994,73.8767152 L30.7762994,86.9744283 Z" id="Shape" opacity="0.5"></path>
                <path d="M28.447817,76.5586279 C27.5954262,75.8309771 26.3064449,75.9141372 25.5580042,76.745738 L22.9592516,79.697921 L22.0652807,78.9910603 C21.1713098,78.2634096 19.8615385,78.4089397 19.1338877,79.3029106 C18.447817,80.2176715 18.5933472,81.5274428 19.5081081,82.2550936 L21.9613306,84.2093555 C22.8345114,84.8954262 24.0819127,84.7914761 24.8303534,83.9598753 L28.6972973,79.4900208 C29.445738,78.6168399 29.3209979,77.3070686 28.447817,76.5586279 Z" id="Path" opacity="0.5"></path>
                <path d="M57.2503119,73.8767152 L44.3397089,73.8767152 C43.1962578,73.8767152 42.2607069,74.8122661 42.2607069,75.9557173 C42.2607069,77.0991684 43.1754678,78.0347193 44.3397089,78.0347193 L57.2503119,78.0347193 C58.393763,78.0347193 59.3293139,77.0991684 59.3293139,75.9557173 C59.3293139,74.8122661 58.393763,73.8767152 57.2503119,73.8767152 Z" id="Path" opacity="0.5"></path>
                <path d="M65.9197505,82.6085239 L44.3397089,82.6085239 C43.1962578,82.6085239 42.2607069,83.5440748 42.2607069,84.687526 C42.2607069,85.8309771 43.1962578,86.7665281 44.3397089,86.7665281 L65.9405405,86.7665281 C67.0839917,86.7665281 68.0195426,85.8309771 68.0195426,84.687526 C68.0195426,83.5440748 67.0839917,82.6085239 65.9197505,82.6085239 Z" id="Path" opacity="0.5"></path>
                <path d="M68.4956341,43.4172557 L63.7139293,41.2550936 L59.4519751,34.4775468 C58.0174636,32.2114345 55.5226611,30.8392931 52.8407484,30.8808732 L36.3126819,30.8808732 C33.8802495,30.8600832 31.5933472,31.9827443 30.1172557,33.8954262 L24.6286902,41.0887734 L15.397921,43.6043659 C12.6328482,44.3528067 10.6993763,46.8683992 10.6993763,49.716632 L10.6993763,53.3340956 C10.6993763,56.8476091 13.5683992,59.7790021 17.0819127,59.7790021 L17.2898129,59.7790021 C18.350104,62.689605 21.2814969,65.0596674 24.7118503,65.0596674 C28.1422037,65.0596674 31.0735967,62.689605 32.1338877,59.7790021 L50.0756757,59.7790021 C51.1359667,62.689605 54.0673597,65.0596674 57.4977131,65.0596674 C60.9280665,65.0596674 63.8594595,62.689605 64.9197505,59.7790021 L65.8553015,59.7790021 C69.368815,59.7790021 72.2378378,56.8476091 72.2378378,53.3340956 L72.2378378,49.2176715 C72.2378378,46.722869 70.7617464,44.4567568 68.4956341,43.4172557 Z M24.7118503,60.8185031 C22.6744283,60.8185031 21.0112266,59.1553015 21.0112266,57.1178794 C21.0112266,55.0804574 22.6744283,53.4172557 24.7118503,53.4172557 C26.7492723,53.4172557 28.412474,55.0804574 28.412474,57.1178794 C28.412474,59.1760915 26.7492723,60.8185031 24.7118503,60.8185031 Z M57.5185031,60.8185031 C55.4810811,60.8185031 53.8178794,59.1553015 53.8178794,57.1178794 C53.8178794,55.0804574 55.4810811,53.4172557 57.5185031,53.4172557 C59.5559252,53.4172557 61.2191268,55.0804574 61.2191268,57.1178794 C61.1983368,59.1760915 59.5559252,60.8185031 57.5185031,60.8185031 Z M65.8553015,55.6209979 L65.2108108,55.6209979 C64.4831601,51.8787942 61.3022869,49.3424116 57.5185031,49.3424116 C53.7347193,49.3424116 50.5330561,51.8787942 49.8054054,55.6209979 L32.404158,55.6209979 C31.7180873,51.9203742 28.4540541,49.2592516 24.7118503,49.3008316 C20.9904366,49.3008316 17.7679834,51.8995842 16.9987526,55.5586279 C15.8137214,55.5170478 14.8573805,54.5399168 14.8573805,53.3340956 L14.8573805,49.716632 C14.8573805,48.718711 15.5226611,47.8455301 16.4790021,47.5960499 L26.395842,44.8933472 C26.8324324,44.7686071 27.2274428,44.5191268 27.4977131,44.1449064 L33.422869,36.4110187 C34.1089397,35.5170478 35.1900208,35.0180873 36.3126819,35.0388773 L52.8407484,35.0388773 C54.0881497,35.0180873 55.2523909,35.6417879 55.9176715,36.702079 L60.5122661,44.0201663 C60.7201663,44.3528067 61.0528067,44.6230769 61.406237,44.7893971 L66.7492723,47.2010395 C67.5392931,47.5544699 68.0382536,48.3444906 68.0382536,49.1968815 L68.0590437,53.3340956 C68.0590437,54.5607069 67.1027027,55.5794179 65.8553015,55.6209979 Z" id="Shape"></path>
            </g>
        </g>
    </g>
</svg>