<?xml version="1.0" encoding="UTF-8"?>
<svg width="85px" height="102px" viewBox="0 0 85 102" version="1.1" xmlns="http://www.w3.org/2000/svg" xmlns:xlink="http://www.w3.org/1999/xlink">
    <title>Group 3</title>
    <g id="icons" stroke="none" stroke-width="1" fill="none" fill-rule="evenodd">
        <g id="Group-3" transform="translate(0.200000, 0.192779)" fill="#FFFFFF">
            <g id="Group-4" opacity="0.5" transform="translate(7.792203, 45.218527)" fill-rule="nonzero">
                <path d="M14.0350877,9.36452242 L6.23781676,9.36452242 C5.3754386,9.36452242 4.67836257,8.66744639 4.67836257,7.80506823 L4.67836257,1.55945419 C4.67836257,0.697076023 5.3754386,-7.99360578e-15 6.23781676,-7.99360578e-15 L14.0350877,-7.99360578e-15 C14.8974659,-7.99360578e-15 15.5945419,0.697076023 15.5945419,1.55945419 L15.5945419,7.80506823 C15.5945419,8.66744639 14.8974659,9.36452242 14.0350877,9.36452242 Z M7.79727096,6.24561404 L12.4756335,6.24561404 L12.4756335,3.11890838 L7.79727096,3.11890838 L7.79727096,6.24561404 Z" id="Shape"></path>
                <path d="M6.23781676,6.24561404 L1.55945419,6.24561404 C0.697076023,6.24561404 -2.66453526e-15,5.54853801 -2.66453526e-15,4.68615984 C-2.66453526e-15,3.82378168 0.697076023,3.12670565 1.55945419,3.12670565 L6.23781676,3.12670565 C7.10019493,3.12670565 7.79727096,3.82378168 7.79727096,4.68615984 C7.79727096,5.54853801 7.10019493,6.24561404 6.23781676,6.24561404 Z" id="Path"></path>
                <path d="M1.55945419,9.36608187 C0.697076023,9.36608187 1.77635684e-15,8.66900585 1.77635684e-15,7.80662768 L1.77635684e-15,1.56569201 C1.77635684e-15,0.70331384 0.697076023,0.00623781676 1.55945419,0.00623781676 C2.42183236,0.00623781676 3.11890838,0.70331384 3.11890838,1.56569201 L3.11890838,7.80662768 C3.11890838,8.66900585 2.42183236,9.36608187 1.55945419,9.36608187 Z" id="Path"></path>
            </g>
            <g id="Group-5" opacity="0.5" transform="translate(67.800000, 43.307221)">
                <rect id="Rectangle" transform="translate(6.000000, 16.500000) rotate(-330.000000) translate(-6.000000, -16.500000) " x="1.42108547e-14" y="15" width="12" height="3" rx="1"></rect>
                <rect id="Rectangle-Copy" x="3" y="9" width="12" height="3" rx="1"></rect>
                <rect id="Rectangle-Copy-2" transform="translate(6.000000, 4.500000) rotate(-30.000000) translate(-6.000000, -4.500000) " x="0" y="3" width="12" height="3" rx="1"></rect>
            </g>
            <g id="Group" opacity="0.5" transform="translate(34.306043, 45.218527)" fill-rule="nonzero">
                <path d="M6.22846004,32.046979 C5.36608187,32.046979 4.66900585,30.8547803 4.66900585,29.3798678 L4.66900585,2.71409014 C4.66900585,1.23917766 5.36608187,0.0469789571 6.22846004,0.0469789571 C7.09083821,0.0469789571 7.78791423,1.23917766 7.78791423,2.71409014 L7.78791423,29.3798678 C7.78791423,30.8547803 7.09083821,32.046979 6.22846004,32.046979 Z" id="Path"></path>
                <path d="M10.9068226,37.4253411 C7.46666667,37.4253411 4.66900585,34.6276803 4.66900585,31.1875244 C4.66900585,30.3251462 5.36608187,29.6280702 6.22846004,29.6280702 C7.09083821,29.6280702 7.78791423,30.3251462 7.78791423,31.1875244 C7.78791423,32.9076023 9.18674464,34.3064327 10.9068226,34.3064327 C11.7692008,34.3064327 12.4662768,35.0035088 12.4662768,35.8658869 C12.4662768,36.7282651 11.7692008,37.4253411 10.9068226,37.4253411 Z" id="Path"></path>
                <path d="M6.23781676,37.4253411 C2.79766082,37.4253411 0,34.6276803 0,31.1875244 C0,30.3251462 0.697076023,29.6280702 1.55945419,29.6280702 C2.42183236,29.6280702 3.11890838,30.3251462 3.11890838,31.1875244 C3.11890838,32.9076023 4.51773879,34.3064327 6.23781676,34.3064327 C7.10019493,34.3064327 7.79727096,35.0035088 7.79727096,35.8658869 C7.79727096,36.7282651 7.10019493,37.4253411 6.23781676,37.4253411 Z" id="Path"></path>
                <path d="M10.9068226,37.4253411 L6.23781676,37.4253411 C5.3754386,37.4253411 4.67836257,36.7282651 4.67836257,35.8658869 C4.67836257,35.0035088 5.3754386,34.3064327 6.23781676,34.3064327 L10.9068226,34.3064327 C11.7692008,34.3064327 12.4662768,35.0035088 12.4662768,35.8658869 C12.4662768,36.7282651 11.7692008,37.4253411 10.9068226,37.4253411 Z" id="Path"></path>
                <path d="M1.55945419,32.7469786 C0.697076023,32.7469786 1.42108547e-14,32.0499025 1.42108547e-14,31.1875244 L1.42108547e-14,1.55945419 C1.42108547e-14,0.697076023 0.697076023,0 1.55945419,0 C2.42183236,0 3.11890838,0.697076023 3.11890838,1.55945419 L3.11890838,31.1875244 C3.11890838,32.0499025 2.42183236,32.7469786 1.55945419,32.7469786 Z" id="Path"></path>
            </g>
            <g id="Group-2" opacity="0.5" transform="translate(2.897410, 0.000000)" fill-rule="nonzero">
                <path d="M39.6394319,34.4333423 C39.1466444,34.4333423 38.6585352,34.1994241 38.3575606,33.762777 C37.8663325,33.0547848 38.0425508,32.0832448 38.7489836,31.5920167 C40.8667224,30.1230109 41.3953773,27.2021532 39.9279309,25.079736 C39.4382623,24.3717438 39.6144807,23.4002039 40.3224729,22.9089758 C41.0304651,22.4177477 42.002005,22.5955255 42.4932331,23.3035177 C44.9384573,26.8388004 44.0573656,31.7058569 40.5283208,34.1526405 C40.2569758,34.3428939 39.9466444,34.4333423 39.6394319,34.4333423 L39.6394319,34.4333423 Z" id="Path"></path>
                <path d="M38.4604846,40.945623 C37.9661376,40.945623 37.4795879,40.7117048 37.1786132,40.2734982 C36.2273462,38.9042974 35.8671122,37.2465976 36.164968,35.6076113 C36.4628237,33.9686249 37.3797828,32.5432838 38.7489836,31.5935762 C39.4569758,31.0992292 40.4300752,31.2785664 40.9197438,31.9865586 C41.4109719,32.6929914 41.2347536,33.6645314 40.5267614,34.1557594 C39.1138959,35.1366561 38.7614592,37.0844144 39.7407964,38.4988394 C40.2320245,39.2052721 40.0558062,40.1768121 39.347814,40.6680401 C39.0780284,40.8551746 38.767697,40.945623 38.4604846,40.945623 Z" id="Path"></path>
                <path d="M23.279198,44.4310031 C20.8059037,44.4310031 18.3731551,43.2614124 16.8604846,41.0812955 C16.3692565,40.3733033 16.5454748,39.4017633 17.2519076,38.9105353 C17.9598998,38.4161883 18.9345586,38.597085 19.4226678,39.3019583 C20.1368978,40.3296386 21.2066834,41.0189173 22.4355333,41.2419193 C23.6565859,41.4602429 24.9057087,41.1951356 25.933389,40.4824651 C26.6413812,39.9881181 27.6144807,40.1690148 28.1041493,40.8738881 C28.5953773,41.5818803 28.419159,42.5534202 27.7127263,43.0446483 C26.35912,43.9818803 24.810582,44.4310031 23.279198,44.4310031 L23.279198,44.4310031 Z" id="Path"></path>
                <path d="M33.3345586,44.4996191 C32.8417711,44.4996191 32.3552214,44.2657009 32.0526873,43.8290538 C31.5754943,43.1444534 30.8628237,42.6844144 30.0441103,42.5362663 C29.2269563,42.3881181 28.3957672,42.5674553 27.7111668,43.0430889 C27.0016152,43.5358764 26.0331941,43.3596581 25.5404066,42.6516659 C25.0491785,41.9452331 25.2238374,40.9721337 25.9318296,40.4809056 C27.3025898,39.5296386 28.9556113,39.1662857 30.5977165,39.4672604 C32.2382623,39.7619972 33.6636035,40.6805158 34.6133111,42.0497165 C35.1045391,42.7577087 34.9283208,43.7292487 34.2218881,44.2204768 C33.9521025,44.4107302 33.6417711,44.4996191 33.3345586,44.4996191 L33.3345586,44.4996191 Z" id="Path"></path>
                <path d="M18.1485937,41.7503013 C17.6589251,41.7503013 17.1770538,41.5210616 16.8729602,41.0906522 L4.23514342,23.191237 C3.73923699,22.4879232 3.90609859,21.5148238 4.60941243,21.0157984 C5.31584518,20.5214514 6.28582568,20.688313 6.78485102,21.3900674 L19.4226678,39.2910421 C19.9185742,39.9943559 19.7517126,40.9674553 19.0483988,41.4664807 C18.7723754,41.6582935 18.4589251,41.7503013 18.1485937,41.7503013 L18.1485937,41.7503013 Z" id="Path"></path>
                <path d="M41.2082428,25.7612175 C40.7185742,25.7612175 40.2367029,25.5319778 39.9326093,25.1015684 L27.2947925,7.19903428 C26.7988861,6.49416099 26.9657477,5.52262103 27.6690616,5.02359569 C28.3770538,4.52924871 29.3454748,4.69611031 29.8445001,5.39786469 L42.4823169,23.3003988 C42.9782233,24.0052721 42.8113617,24.9768121 42.1080479,25.4758374 C41.833584,25.6676503 41.5185742,25.7612175 41.2082428,25.7612175 Z" id="Path"></path>
                <path d="M4.2257867,24.7319778 C3.73299917,24.7319778 3.24489001,24.4980596 2.94391535,24.0614124 L0.278808139,20.2189173 C0.0433305564,19.8773969 -0.0486772408,19.4594631 0.0246171061,19.0524456 C0.0994709073,18.6438686 0.330270128,18.2836347 0.670231141,18.0481571 L26.2920635,0.278176582 C26.633584,0.0426989996 27.0561961,-0.0477493434 27.4585352,0.0239855493 C27.8671122,0.0988393505 28.2273462,0.329638571 28.4643832,0.671159039 L31.1294904,4.51521362 C31.619159,5.22164637 31.4429407,6.19318633 30.7365079,6.6844144 L5.11467559,24.4543949 C4.84333056,24.6430889 4.53299917,24.7319778 4.2257867,24.7319778 Z M3.72988026,19.7230109 L4.6172097,21.0017633 L27.6752994,5.01267951 L26.7879699,3.73236762 L3.72988026,19.7230109 Z" id="Shape"></path>
                <path d="M37.2998608,47.6543949 L37.1801727,40.2719388 C36.6889446,39.5639466 36.8651629,38.5924066 37.5715957,38.1011785 C38.2795879,37.6068316 39.2526873,37.7877282 39.7423559,38.4926015 L39.862044,45.8750577 C40.3532721,46.5830499 40.1770538,47.5545898 39.470621,48.0458179 C39.1977165,48.2360713 38.8873851,48.3249602 38.5817321,48.3249602 C38.0873851,48.3249602 37.6008354,48.0910421 37.2998608,47.6543949 Z" id="Path"></path>
                <path d="M35.9544417,48.2812955 C35.4600947,48.2812955 34.973545,48.0473774 34.6710109,47.6091707 L32.0511278,43.8274943 C31.5614592,43.1195021 31.7376775,42.1479622 32.4456697,41.6567341 C33.1536619,41.165506 34.1236424,41.3432838 34.61643,42.051276 L37.236313,45.8329524 C37.7259816,46.5409446 37.5497633,47.5124846 36.8417711,48.0037126 C36.5704261,48.1908471 36.2600947,48.2812955 35.9544417,48.2812955 Z" id="Path"></path>
                <path d="M33.3345586,44.4996191 C32.8402116,44.4996191 32.3536619,44.2657009 32.0526873,43.8274943 C31.5614592,43.1210616 31.7376775,42.1495216 32.4456697,41.6582935 L37.5715957,38.1042974 C38.276469,37.6099505 39.2511278,37.7892877 39.7407964,38.4972799 C40.2320245,39.2037126 40.0558062,40.1752526 39.347814,40.6664807 L34.2218881,44.2204768 C33.9521025,44.4107302 33.6417711,44.4996191 33.3345586,44.4996191 L33.3345586,44.4996191 Z" id="Path"></path>
            </g>
            <g id="Group-3-Copy" transform="translate(0.000000, 45.218527)" fill-rule="nonzero">
                <path d="M56.1465887,17.1555556 L40.5426901,17.1555556 C39.6803119,17.1555556 38.9832359,16.4584795 38.9832359,15.5961014 L38.9832359,1.55945419 C38.9832359,0.697076023 39.6803119,3.55271368e-14 40.5426901,3.55271368e-14 L56.1465887,3.55271368e-14 C57.0089669,3.55271368e-14 57.7060429,0.697076023 57.7060429,1.55945419 L57.7060429,15.5961014 C57.7060429,16.4584795 57.0089669,17.1555556 56.1465887,17.1555556 Z M42.1021442,14.0366472 L54.5871345,14.0366472 L54.5871345,3.11890838 L42.1021442,3.11890838 L42.1021442,14.0366472 Z" id="Shape"></path>
                <path d="M18.7103314,51.4916179 L4.66276803,51.4916179 C3.80038986,51.4916179 3.10331384,50.7945419 3.10331384,49.9321637 C3.10331384,49.0697856 3.80038986,48.3727096 4.66276803,48.3727096 L17.6187135,48.3727096 L29.7341131,15.0643275 C29.9586745,14.4467836 30.5434698,14.0382066 31.1984405,14.0382066 L34.3173489,14.0382066 L34.3173489,3.12046784 L23.3949318,3.12046784 L23.3949318,12.4818713 C23.3949318,13.3442495 22.6978558,14.0413255 21.8354776,14.0413255 L7.80350877,14.0413255 C6.9411306,14.0413255 6.24405458,13.3442495 6.24405458,12.4818713 C6.24405458,11.6194932 6.9411306,10.9224172 7.80350877,10.9224172 L20.2760234,10.9224172 L20.2760234,1.56101365 C20.2760234,0.698635478 20.9730994,0.00155945419 21.8354776,0.00155945419 L35.8768031,0.00155945419 C36.7391813,0.00155945419 37.4362573,0.698635478 37.4362573,1.56101365 L37.4362573,15.5976608 C37.4362573,16.460039 36.7391813,17.157115 35.8768031,17.157115 L32.2900585,17.157115 L20.1746589,50.4654971 C19.9516569,51.0814815 19.3668616,51.4916179 18.7103314,51.4916179 L18.7103314,51.4916179 Z" id="Path"></path>
                <path d="M56.1465887,15.5976608 C55.2842105,15.5976608 54.5871345,14.9005848 54.5871345,14.0382066 C54.5871345,11.4588694 56.6861598,9.35984405 59.2654971,9.35984405 C60.1278752,9.35984405 60.8249513,10.0569201 60.8249513,10.9192982 C60.8249513,11.7816764 60.1278752,12.4787524 59.2654971,12.4787524 C58.4046784,12.4787524 57.7060429,13.1773879 57.7060429,14.0382066 C57.7060429,14.9005848 57.0089669,15.5976608 56.1465887,15.5976608 Z" id="Path"></path>
                <path d="M59.2654971,7.79883041 C56.6861598,7.79883041 54.5871345,5.69980507 54.5871345,3.12046784 C54.5871345,2.25808967 55.2842105,1.56101365 56.1465887,1.56101365 C57.0089669,1.56101365 57.7060429,2.25808967 57.7060429,3.12046784 C57.7060429,3.98128655 58.4046784,4.67992203 59.2654971,4.67992203 C60.1278752,4.67992203 60.8249513,5.37699805 60.8249513,6.23937622 C60.8249513,7.10175439 60.1278752,7.79883041 59.2654971,7.79883041 Z" id="Path"></path>
                <path d="M62.3844055,12.4787524 L59.2654971,12.4787524 C58.4031189,12.4787524 57.7060429,11.7816764 57.7060429,10.9192982 C57.7060429,10.0569201 58.4031189,9.35984405 59.2654971,9.35984405 L60.8249513,9.35984405 L60.8249513,7.80038986 L59.2654971,7.80038986 C58.4031189,7.80038986 57.7060429,7.10331384 57.7060429,6.24093567 C57.7060429,5.3785575 58.4031189,4.68148148 59.2654971,4.68148148 L62.3844055,4.68148148 C63.2467836,4.68148148 63.9438596,5.3785575 63.9438596,6.24093567 L63.9438596,10.9192982 C63.9438596,11.7816764 63.2467836,12.4787524 62.3844055,12.4787524 Z" id="Path"></path>
                <path d="M40.5426901,3.11890838 L35.8736842,3.11890838 C35.011306,3.11890838 34.31423,2.42183236 34.31423,1.55945419 C34.31423,0.697076023 35.011306,-1.24344979e-14 35.8736842,-1.24344979e-14 L40.5426901,-1.24344979e-14 C41.4050682,-1.24344979e-14 42.1021442,0.697076023 42.1021442,1.55945419 C42.1021442,2.42183236 41.4050682,3.11890838 40.5426901,3.11890838 Z" id="Path"></path>
                <path d="M7.79415205,15.6116959 L3.11578947,15.6116959 C2.25341131,15.6116959 1.55633528,14.9146199 1.55633528,14.0522417 C1.55633528,13.1898635 2.25341131,12.4927875 3.11578947,12.4927875 L7.79415205,12.4927875 C8.65653021,12.4927875 9.35360624,13.1898635 9.35360624,14.0522417 C9.35360624,14.9146199 8.65653021,15.6116959 7.79415205,15.6116959 Z" id="Path"></path>
                <path d="M3.11578947,20.2807018 C2.25341131,20.2807018 1.55633528,19.5836257 1.55633528,18.7212476 L1.55633528,14.0538012 C1.55633528,13.191423 2.25341131,12.494347 3.11578947,12.494347 C3.97816764,12.494347 4.67524366,13.191423 4.67524366,14.0538012 L4.67524366,18.7212476 C4.67524366,19.5836257 3.97816764,20.2807018 3.11578947,20.2807018 Z" id="Path"></path>
                <path d="M4.66276803,51.4916179 C4.48654971,51.4916179 4.30565302,51.4604288 4.1294347,51.3964912 C3.32007797,51.1033138 2.90214425,50.2066277 3.19688109,49.3988304 L16.817154,11.9469786 C17.1103314,11.1360624 18.0038986,10.7212476 18.8148148,11.014425 C19.6241715,11.3076023 20.0421053,12.2042885 19.7473684,13.0120858 L6.12709552,50.4639376 C5.89785575,51.0986355 5.29902534,51.4916179 4.66276803,51.4916179 L4.66276803,51.4916179 Z" id="Path"></path>
                <path d="M7.80350877,20.2807018 C6.9411306,20.2807018 6.24405458,19.5836257 6.24405458,18.7212476 L6.24405458,12.4803119 C6.24405458,11.6179337 6.9411306,10.9208577 7.80350877,10.9208577 C8.66588694,10.9208577 9.36296296,11.6179337 9.36296296,12.4803119 L9.36296296,18.7212476 C9.36296296,19.5836257 8.66588694,20.2807018 7.80350877,20.2807018 Z" id="Path"></path>
                <path d="M16.0155945,20.2807018 L1.55945419,20.2807018 C0.697076023,20.2807018 1.77635684e-15,19.5836257 1.77635684e-15,18.7212476 C1.77635684e-15,17.8588694 0.697076023,17.1617934 1.55945419,17.1617934 L16.0155945,17.1617934 C16.8779727,17.1617934 17.5750487,17.8588694 17.5750487,18.7212476 C17.5750487,19.5836257 16.8764133,20.2807018 16.0155945,20.2807018 Z" id="Path"></path>
                <path d="M51.4682261,17.1555556 C50.605848,17.1555556 49.9087719,16.4584795 49.9087719,15.5961014 L49.9087719,1.55945419 C49.9087719,0.697076023 50.605848,3.55271368e-14 51.4682261,3.55271368e-14 C52.3306043,3.55271368e-14 53.0276803,0.697076023 53.0276803,1.55945419 L53.0276803,15.5961014 C53.0276803,16.4584795 52.3306043,17.1555556 51.4682261,17.1555556 Z" id="Path"></path>
                <path d="M14.0382066,54.588694 C13.1758285,54.588694 12.4787524,53.8916179 12.4787524,53.0292398 L12.4787524,49.9321637 C12.4787524,49.0697856 13.1758285,48.3727096 14.0382066,48.3727096 C14.9005848,48.3727096 15.5976608,49.0697856 15.5976608,49.9321637 L15.5976608,53.0292398 C15.5976608,53.8916179 14.9005848,54.588694 14.0382066,54.588694 Z" id="Path"></path>
                <path d="M9.35984405,54.588694 C8.49746589,54.588694 7.80038986,53.8916179 7.80038986,53.0292398 L7.80038986,49.9321637 C7.80038986,49.0697856 8.49746589,48.3727096 9.35984405,48.3727096 C10.2222222,48.3727096 10.9192982,49.0697856 10.9192982,49.9321637 L10.9192982,53.0292398 C10.9192982,53.8916179 10.2222222,54.588694 9.35984405,54.588694 Z" id="Path"></path>
            </g>
        </g>
    </g>
</svg>