<?xml version="1.0" encoding="UTF-8"?>
<svg width="70px" height="70px" viewBox="0 0 70 70" version="1.1" xmlns="http://www.w3.org/2000/svg" xmlns:xlink="http://www.w3.org/1999/xlink">
    <!-- Generator: Sketch 53.1 (72631) - https://sketchapp.com -->
    <title>checklist</title>
    <desc>Created with Sketch.</desc>
    <g id="web" stroke="none" stroke-width="1" fill="none" fill-rule="evenodd">
        <g id="Kariera" transform="translate(-187.000000, -1516.000000)" fill="#FFFFFF" fill-rule="nonzero">
            <g id="Group-29" transform="translate(150.000000, 1328.000000)">
                <g id="wheel" transform="translate(4.000000, 4.000000)">
                    <g id="checklist" transform="translate(33.000000, 184.000000)">
                        <path d="M64.1666667,0 L15.1666667,0 C11.9466667,0.00379166667 9.337125,2.61333333 9.33333333,5.83333333 L9.33333333,60.6666667 L1.16666667,60.6666667 C0.522375,60.6666667 0,61.1890417 0,61.8333333 L0,64.1666667 C0.00379166667,67.3866667 2.61333333,69.9962083 5.83333333,70 L54.8333333,70 C58.0533333,69.9962083 60.662875,67.3866667 60.6666667,64.1666667 L60.6666667,36.6496667 L67.9081667,29.4081667 C69.3301875,27.9861458 69.3301875,25.6805208 67.9081667,24.2585 C66.4861458,22.8364792 64.1805208,22.8364792 62.7585,24.2585 L60.6666667,26.3503333 L60.6666667,9.33333333 L68.8333333,9.33333333 C69.477625,9.33333333 70,8.81095833 70,8.16666667 L70,5.83333333 C69.9962083,2.61333333 67.3866667,0.00379166667 64.1666667,0 Z M5.83333333,67.6666667 C3.9003125,67.6666667 2.33333333,66.0996875 2.33333333,64.1666667 L2.33333333,63 L49,63 L49,64.1666667 C49.002625,64.5302292 49.039375,64.892625 49.1096667,65.2493333 C49.1306667,65.366 49.1645,65.4651667 49.1913333,65.5736667 C49.2492292,65.8112292 49.3217083,66.045 49.4083333,66.2736667 C49.4538333,66.3903333 49.5028333,66.5 49.5553333,66.612 C49.6547917,66.824625 49.7670833,67.031125 49.8913333,67.2303333 C49.952,67.3283333 50.008,67.4275 50.0768333,67.5208333 C50.1095,67.5686667 50.134,67.6211667 50.169,67.6666667 L5.83333333,67.6666667 Z M58.3333333,64.1666667 C58.3333333,66.0996875 56.7663542,67.6666667 54.8333333,67.6666667 C52.9003125,67.6666667 51.3333333,66.0996875 51.3333333,64.1666667 L51.3333333,61.8333333 C51.3333333,61.1890417 50.8109583,60.6666667 50.1666667,60.6666667 L11.6666667,60.6666667 L11.6666667,5.83333333 C11.6666667,3.9003125 13.2336458,2.33333333 15.1666667,2.33333333 L59.5,2.33333333 C59.465,2.37883333 59.4405,2.43133333 59.4078333,2.47916667 C59.3413333,2.5725 59.283,2.67166667 59.2223333,2.76966667 C59.0980833,2.968875 58.9857917,3.175375 58.8863333,3.388 C58.8338333,3.50466667 58.7848333,3.612 58.7393333,3.72633333 C58.6527083,3.955 58.5802292,4.18877083 58.5223333,4.42633333 C58.4955,4.53483333 58.4616667,4.63983333 58.4406667,4.75066667 C58.3711042,5.107375 58.3352292,5.46991667 58.3333333,5.83333333 L58.3333333,28.6836667 L43.5085,43.5085 C43.358875,43.658125 43.2528542,43.8456667 43.2016667,44.051 L42.035,48.7176667 C41.9358333,49.1150625 42.0523542,49.5352083 42.3418333,49.8248333 C42.4402708,49.9194792 42.5548958,49.99575 42.6801667,50.05 C42.7105,50.064 42.7385,50.0768333 42.77,50.0885 C42.8945417,50.1360417 43.026375,50.1621458 43.1596667,50.1655 L43.1666667,50.1655 C43.2618958,50.1653542 43.3566875,50.1536875 43.449,50.1305 L48.1156667,48.9638333 C48.321,48.9126458 48.5085417,48.806625 48.6581667,48.657 L58.3333333,38.983 L58.3333333,64.1666667 Z M64.4081667,25.9081667 C64.925875,25.4136458 65.7407917,25.4136458 66.2585,25.9081667 C66.7684792,26.4194583 66.7684792,27.2472083 66.2585,27.7585 L65.3333333,28.6836667 L63.483,26.8333333 L64.4081667,25.9081667 Z M61.8333333,28.483 L63.6836667,30.3333333 L47.2336667,46.7833333 L44.7673333,47.4005 L45.3845,44.9341667 L61.8333333,28.483 Z M67.6666667,7 L60.6666667,7 L60.6666667,5.83333333 C60.6666667,3.9003125 62.2336458,2.33333333 64.1666667,2.33333333 C66.0996875,2.33333333 67.6666667,3.9003125 67.6666667,5.83333333 L67.6666667,7 Z" id="Shape"></path>
                        <rect id="Rectangle" opacity="0.300000012" x="22.1666667" y="7" width="25.6666667" height="2.33333333"></rect>
                        <path d="M26.0085,12.0085 L23.87,14.147 C23.7060833,14.0541042 23.5216042,14.0036458 23.3333333,14 L17.5,14 C16.8557083,14 16.3333333,14.522375 16.3333333,15.1666667 L16.3333333,21 C16.3333333,21.6442917 16.8557083,22.1666667 17.5,22.1666667 L23.3333333,22.1666667 C23.977625,22.1666667 24.5,21.6442917 24.5,21 L24.5,16.8163333 L27.6581667,13.6581667 L26.0085,12.0085 Z M22.1666667,19.8333333 L18.6666667,19.8333333 L18.6666667,16.3333333 L21.6836667,16.3333333 L20.1751667,17.8418333 L21.8248333,19.4915 L22.1666667,19.1496667 L22.1666667,19.8333333 Z" id="Shape" opacity="0.300000012"></path>
                        <rect id="Rectangle" opacity="0.300000012" x="29.1666667" y="14" width="24.5" height="2.33333333"></rect>
                        <rect id="Rectangle" opacity="0.300000012" x="29.1666667" y="18.6666667" width="19.8333333" height="2.33333333"></rect>
                        <path d="M26.0085,23.6751667 L23.87,25.8136667 C23.7060833,25.7207708 23.5216042,25.6703125 23.3333333,25.6666667 L17.5,25.6666667 C16.8557083,25.6666667 16.3333333,26.1890417 16.3333333,26.8333333 L16.3333333,32.6666667 C16.3333333,33.3109583 16.8557083,33.8333333 17.5,33.8333333 L23.3333333,33.8333333 C23.977625,33.8333333 24.5,33.3109583 24.5,32.6666667 L24.5,28.483 L27.6581667,25.3248333 L26.0085,23.6751667 Z M22.1666667,31.5 L18.6666667,31.5 L18.6666667,28 L21.6836667,28 L20.1751667,29.5085 L21.8248333,31.1581667 L22.1666667,30.8163333 L22.1666667,31.5 Z" id="Shape" opacity="0.300000012"></path>
                        <rect id="Rectangle" opacity="0.300000012" x="29.1666667" y="25.6666667" width="24.5" height="2.33333333"></rect>
                        <rect id="Rectangle" opacity="0.300000012" x="29.1666667" y="30.3333333" width="19.8333333" height="2.33333333"></rect>
                        <path d="M26.0085,35.3418333 L23.87,37.4803333 C23.7060833,37.3874375 23.5216042,37.3369792 23.3333333,37.3333333 L17.5,37.3333333 C16.8557083,37.3333333 16.3333333,37.8557083 16.3333333,38.5 L16.3333333,44.3333333 C16.3333333,44.977625 16.8557083,45.5 17.5,45.5 L23.3333333,45.5 C23.977625,45.5 24.5,44.977625 24.5,44.3333333 L24.5,40.1496667 L27.6581667,36.9915 L26.0085,35.3418333 Z M22.1666667,43.1666667 L18.6666667,43.1666667 L18.6666667,39.6666667 L21.6836667,39.6666667 L20.1751667,41.1751667 L21.8248333,42.8248333 L22.1666667,42.483 L22.1666667,43.1666667 Z" id="Shape" opacity="0.300000012"></path>
                        <rect id="Rectangle" opacity="0.300000012" x="29.1666667" y="37.3333333" width="15.1666667" height="2.33333333"></rect>
                        <rect id="Rectangle" opacity="0.300000012" x="29.1666667" y="42" width="10.5" height="2.33333333"></rect>
                        <path d="M26.0085,47.0085 L23.87,49.147 C23.7060833,49.0541042 23.5216042,49.0036458 23.3333333,49 L17.5,49 C16.8557083,49 16.3333333,49.522375 16.3333333,50.1666667 L16.3333333,56 C16.3333333,56.6442917 16.8557083,57.1666667 17.5,57.1666667 L23.3333333,57.1666667 C23.977625,57.1666667 24.5,56.6442917 24.5,56 L24.5,51.8163333 L27.6581667,48.6581667 L26.0085,47.0085 Z M22.1666667,54.8333333 L18.6666667,54.8333333 L18.6666667,51.3333333 L21.6836667,51.3333333 L20.1751667,52.8418333 L21.8248333,54.4915 L22.1666667,54.1496667 L22.1666667,54.8333333 Z" id="Shape" opacity="0.300000012"></path>
                        <rect id="Rectangle" opacity="0.300000012" x="29.1666667" y="49" width="10.5" height="2.33333333"></rect>
                        <rect id="Rectangle" opacity="0.300000012" x="29.1666667" y="53.6666667" width="19.8333333" height="2.33333333"></rect>
                    </g>
                </g>
            </g>
        </g>
    </g>
</svg>