<?xml version="1.0" encoding="UTF-8"?>
<svg width="100px" height="100px" viewBox="0 0 100 100" version="1.1" xmlns="http://www.w3.org/2000/svg" xmlns:xlink="http://www.w3.org/1999/xlink">
    <title>ikona-olej</title>
    <g id="ikona-olej" stroke="none" stroke-width="1" fill="none" fill-rule="evenodd">
        <g id="gasoline" transform="translate(8.708333, 0.000000)" fill="#FFFFFF" fill-rule="nonzero">
            <polygon id="Path" opacity="0.5" points="78.9583333 71.7733333 82.2916667 71.7733333 82.2916667 75.2133333 78.9583333 75.2133333"></polygon>
            <path d="M75.625,13.3333333 L75.625,10 C75.625,8.15905083 74.1326158,6.66666667 72.2916667,6.66666667 L52.2916667,6.66666667 C50.4507175,6.66666667 48.9583333,8.15905083 48.9583333,10 L48.9583333,13.3333333 C48.9583333,15.1742825 50.4507175,16.6666667 52.2916667,16.6666667 L72.2916667,16.6666667 C74.1326158,16.6666667 75.625,15.1742825 75.625,13.3333333 Z M52.2916667,10 L72.2916667,10 L72.2916667,13.3333333 L52.2916667,13.3333333 L52.2916667,10 Z" id="Shape" opacity="0.5"></path>
            <path d="M24.7916667,13.9883333 C25.1537304,13.7346432 25.4001667,13.3474956 25.4767468,12.9120828 C25.553327,12.47667 25.4537759,12.0286703 25.2,11.6666667 L19.4866667,3.46166667 C18.961184,2.70696588 17.9237216,2.52050606 17.1683333,3.045 L0.751666667,14.47 C-0.00351247293,14.9960962 -0.189303058,16.0347327 0.336666667,16.79 L6.05,25 C6.57548267,25.7547008 7.61294507,25.9411606 8.36833333,25.4166667 L11.11,23.5 L12.6816667,25.7616667 L6.32333333,30.3033333 C5.88314133,30.6175548 5.62278772,31.1258347 5.625,31.6666667 L5.625,91.6666667 C5.63051019,96.2667553 9.35824475,99.9944898 13.9583333,100 L73.9583333,100 C78.5584219,99.9944898 82.2861565,96.2667553 82.2916667,91.6666667 L82.2916667,78.5483333 L78.9583333,78.5483333 L78.9583333,91.6666667 C78.9583333,94.4280904 76.7197571,96.6666667 73.9583333,96.6666667 L13.9583333,96.6666667 C11.1969096,96.6666667 8.95833333,94.4280904 8.95833333,91.6666667 L8.95833333,32.525 L18.325,25.8333333 L24.125,21.765 C24.1964544,21.7013709 24.2622564,21.6316654 24.3216667,21.5566667 L31.1583333,16.6666667 L43.9583333,16.6666667 C44.8788079,16.6666667 45.625,15.9204746 45.625,15 L45.625,3.33333333 L78.9583333,3.33333333 L78.9583333,68.44 L82.2916667,68.44 L82.2916667,3.33333333 C82.2916667,1.49238417 80.7992825,1.18423789e-14 78.9583333,1.18423789e-14 L45.625,1.18423789e-14 C43.7840508,1.18423789e-14 42.2916667,1.49238417 42.2916667,3.33333333 L42.2916667,13.3333333 L30.625,13.3333333 C30.2778125,13.3332864 29.9392773,13.4416643 29.6566667,13.6433333 L23.5283333,18.02 L22.045,15.895 L24.7916667,13.9883333 Z M7.83166667,21.7266667 L4.02333333,16.2533333 L6.76,14.35 L8.665,17.085 L11.4,15.1816667 L9.49666667,12.4466667 L12.2333333,10.5416667 L14.1366667,13.2766667 L16.8716667,11.3733333 L14.9683333,8.63833333 L17.705,6.73333333 L21.5133333,12.205 L14.2916667,17.2366667 L10.575,19.815 L10.565,19.8233333 L7.83166667,21.7266667 Z M19.31,17.8016667 L20.81,19.9583333 L16.3716667,23.125 L15.3816667,23.8216667 L13.8383333,21.6 L17.0733333,19.35 L19.31,17.8016667 Z" id="Shape" opacity="0.5"></path>
            <path d="M42.66,43.9566667 C41.4266667,45.4883333 30.625,59.135 30.625,66.2133333 C30.625,73.57713 36.5945367,79.5466667 43.9583333,79.5466667 C51.32213,79.5466667 57.2916667,73.57713 57.2916667,66.2133333 C57.2916667,59.135 46.49,45.4883333 45.2566667,43.9566667 C44.9296946,43.5812166 44.4562023,43.365693 43.9583333,43.365693 C43.4604644,43.365693 42.9869721,43.5812166 42.66,43.9566667 Z M43.9583333,76.6666667 C38.3141061,76.532852 33.841939,71.8579466 33.9583333,66.2133333 C33.9583333,61.7966667 40.305,52.5233333 43.9583333,47.7133333 C47.6116667,52.5233333 53.9583333,61.795 53.9583333,66.2133333 C54.0747277,71.8579466 49.6025605,76.532852 43.9583333,76.6666667 L43.9583333,76.6666667 Z" id="Shape"></path>
            <path d="M17.2916667,36.6666667 L17.2916667,86.6666667 C17.2916667,87.5871412 18.0378588,88.3333333 18.9583333,88.3333333 L68.9583333,88.3333333 C69.8788079,88.3333333 70.625,87.5871412 70.625,86.6666667 L70.625,36.6666667 C70.625,35.7461921 69.8788079,35 68.9583333,35 L18.9583333,35 C18.0378588,35 17.2916667,35.7461921 17.2916667,36.6666667 Z M20.625,38.3333333 L67.2916667,38.3333333 L67.2916667,85 L20.625,85 L20.625,38.3333333 Z" id="Shape"></path>
            <polygon id="Path" opacity="0.5" points="30.625 25 58.9583333 25 58.9583333 28.3333333 30.625 28.3333333"></polygon>
            <polygon id="Path" opacity="0.5" points="62.2916667 25 70.625 25 70.625 28.3333333 62.2916667 28.3333333"></polygon>
        </g>
    </g>
</svg>