<?xml version="1.0" encoding="UTF-8"?>
<svg width="100px" height="100px" viewBox="0 0 100 100" version="1.1" xmlns="http://www.w3.org/2000/svg" xmlns:xlink="http://www.w3.org/1999/xlink">
    <!-- Generator: Sketch 53.1 (72631) - https://sketchapp.com -->
    <title>tools</title>
    <desc>Created with Sketch.</desc>
    <g id="web" stroke="none" stroke-width="1" fill="none" fill-rule="evenodd">
        <g id="Hlavni" transform="translate(-377.000000, -1199.000000)" fill="#FFFFFF">
            <g id="Group-8" transform="translate(150.000000, 867.000000)">
                <g id="Group-9-Copy-6" transform="translate(146.000000, 292.000000)">
                    <g id="wheel">
                        <g id="tools" transform="translate(81.000000, 40.000000)">
                            <rect id="Rectangle" opacity="0.300000012" x="15.1454357" y="30" width="3.31950207" height="40"></rect>
                            <path d="M25.1039419,68.6666667 L25.1039419,30.46 C33.0960581,25.7670833 35.7865145,15.456875 31.1130705,7.43145833 C29.13361,4.03208333 26.0298755,1.43729167 22.3421162,0.0983333333 C21.4788382,-0.211041667 20.5292531,0.241041667 20.2211618,1.108125 C20.1574689,1.2875 20.1246888,1.47645833 20.1246888,1.66666667 L20.1246888,14.2566667 L13.4856846,14.2566667 L13.4856846,1.66666667 C13.4848548,0.74625 12.7410788,0.000625 11.8244813,0.00145833333 C11.6348548,0.00166666667 11.446888,0.034375 11.2682573,0.0983333333 C9.22365145,0.828958333 7.34294606,1.95854167 5.7346473,3.42166667 C-1.13983402,9.66270833 -1.67448133,20.3179167 4.54045643,27.2210417 C5.68983402,28.4977083 7.02738589,29.5902083 8.50622407,30.46 L8.50622407,68.6666667 C3.34979253,71.6695833 0.184854772,77.2110417 0.20746888,83.1966667 C0.260580913,92.40125 7.73423237,99.82 16.9006224,99.7666667 C26.0670124,99.7133333 33.4549793,92.2085417 33.4018672,83.0039583 C33.3680498,77.0841667 30.2093361,71.626875 25.1039419,68.6666667 Z M28.7058091,89.0070833 C25.4516598,95.60625 17.4863071,98.306875 10.9145228,95.0391667 C4.34294606,91.7714583 1.65352697,83.7729167 4.90767635,77.17375 C6.19813278,74.5566667 8.30850622,72.4375 10.9147303,71.1416667 C11.4742739,70.8577083 11.8267635,70.28125 11.8259336,69.6516667 L11.8259336,29.4683333 C11.8261411,28.8379167 11.4724066,28.2614583 10.9114108,27.9783333 C4.28029046,24.6241667 1.61224066,16.5072917 4.95248963,9.84833333 C6.1186722,7.52354167 7.92925311,5.586875 10.1661826,4.27166667 L10.1661826,15.9233333 C10.1661826,16.84375 10.9093361,17.59 11.8259336,17.59 L21.7844398,17.59 C22.7010373,17.59 23.4441909,16.84375 23.4441909,15.9233333 L23.4441909,4.27333333 C29.8506224,8.053125 31.9927386,16.3322917 28.2286307,22.7654167 C26.9213693,24.9995833 25.0018672,26.8091667 22.6989627,27.9783333 C22.1379668,28.2614583 21.7842324,28.8379167 21.7844398,29.4683333 L21.7844398,69.6516667 C21.7842324,70.2820833 22.1379668,70.8585417 22.6989627,71.1416667 C29.2705394,74.409375 31.9599585,82.4079167 28.7058091,89.0070833 Z" id="Shape" fill-rule="nonzero" opacity="0.300000012"></path>
                            <path d="M26.4317427,82.3333333 L21.4524896,75.6666667 C21.1390041,75.2470833 20.6470954,75 20.1246888,75 L13.4856846,75 C12.963278,75 12.4713693,75.2470833 12.1578838,75.6666667 L7.17863071,82.3333333 C6.73609959,82.9258333 6.73609959,83.740625 7.17863071,84.3333333 L12.1578838,91 C12.4713693,91.4195833 12.963278,91.6666667 13.4856846,91.6666667 L20.1246888,91.6666667 C20.6470954,91.6666667 21.1390041,91.4195833 21.4524896,91 L26.4317427,84.3333333 C26.8742739,83.7408333 26.8742739,82.9260417 26.4317427,82.3333333 Z M19.2948133,88.3333333 L14.3155602,88.3333333 L10.5811203,83.3333333 L14.3155602,78.3333333 L19.2948133,78.3333333 L23.0292531,83.3333333 L19.2948133,88.3333333 Z" id="Shape" fill-rule="nonzero" opacity="0.300000012"></path>
                            <path d="M99.7080913,71.14 L94.8134855,56.3966667 L94.8134855,51.6666667 C94.8134855,50.74625 94.070332,50 93.1537344,50 L93.1537344,41.6666667 C93.1539419,41.27625 93.0176349,40.898125 92.7686722,40.5983333 L90.3006224,37.6233333 C92.1342324,35.5097917 93.1473029,32.803125 93.1537344,30 L93.1537344,18.3333333 C93.156639,18.0754167 93.0997925,17.8204167 92.9877593,17.5883333 L84.6890041,0.921666667 C84.4064315,0.353958333 83.8273859,-0.00354166667 83.1952282,-5.63697038e-16 L76.5562241,-5.63697038e-16 C75.9240664,-0.00354166667 75.3450207,0.353958333 75.0624481,0.921666667 L66.7636929,17.5883333 C66.6516598,17.8204167 66.5948133,18.0754167 66.5977178,18.3333333 L66.5977178,30 C66.6037344,32.8035417 67.6174274,35.5104167 69.4524896,37.6233333 L66.9827801,40.5983333 C66.7338174,40.898125 66.5975104,41.27625 66.5977178,41.6666667 L66.5977178,50 C65.6811203,50 64.9379668,50.74625 64.9379668,51.6666667 L64.9379668,56.3966667 L60.043361,71.14 C59.9871369,71.3097917 59.9585062,71.4877083 59.9587137,71.6666667 L59.9587137,93.3333333 C59.9587137,97.0152083 62.9311203,100 66.5977178,100 C70.2643154,100 73.236722,97.0152083 73.236722,93.3333333 L73.236722,71.9366667 L78.1313278,57.1933333 C78.1875519,57.0235417 78.2161826,56.845625 78.2159751,56.6666667 L78.2159751,51.6666667 C78.2159751,50.74625 77.4728216,50 76.5562241,50 L76.5562241,45.5 L79.1039419,41.6666667 L80.6475104,41.6666667 L83.1952282,45.5 L83.1952282,50 C82.2786307,50 81.5354772,50.74625 81.5354772,51.6666667 L81.5354772,56.6666667 C81.5352697,56.845625 81.5639004,57.0235417 81.6201245,57.1933333 L86.5147303,71.9366667 L86.5147303,93.3333333 C86.5147303,97.0152083 89.4871369,100 93.1537344,100 C96.820332,100 99.7927386,97.0152083 99.7927386,93.3333333 L99.7927386,71.6666667 C99.7927386,71.4877083 99.7641079,71.31 99.7080913,71.14 Z M81.5354772,3.33333333 L82.1695021,3.33333333 L89.8342324,18.7266667 L89.8342324,30 C89.8327801,31.8158333 89.2392116,33.58125 88.1446058,35.0266667 L84.8549793,31.0666667 C84.9612033,30.9466667 85.0425311,30.8083333 85.1387967,30.68 C85.2350622,30.5516667 85.3529046,30.405 85.4491701,30.2566667 C85.5780083,30.0472917 85.6948133,29.8308333 85.7993776,29.6083333 C85.8740664,29.46 85.9570539,29.3166667 86.0201245,29.16 C86.1184647,28.9010417 86.2004149,28.6360417 86.2657676,28.3666667 C86.3022822,28.2283333 86.3537344,28.0983333 86.3819502,27.9566667 C86.4676349,27.531875 86.5120332,27.1 86.5147303,26.6666667 C86.5124481,26.246875 86.470332,25.8283333 86.3885892,25.4166667 C86.3636929,25.285 86.3221992,25.16 86.2890041,25.0316667 C86.2242739,24.7639583 86.1427386,24.500625 86.0450207,24.2433333 C85.9885892,24.1016667 85.9238589,23.965 85.8591286,23.8283333 C85.7518672,23.599375 85.6317427,23.3766667 85.4989627,23.1616667 C85.4176349,23.0316667 85.3329876,22.905 85.2466805,22.78 C85.0923237,22.5716667 84.9261411,22.3725 84.7487552,22.1833333 C84.6541494,22.08 84.5661826,21.9733333 84.4649378,21.875 C84.2421162,21.66125 84.0041494,21.4641667 83.7529046,21.285 C83.6815353,21.2333333 83.6201245,21.1716667 83.5454357,21.1183333 C83.2155602,20.898125 82.866805,20.7079167 82.503112,20.55 C82.4002075,20.505 82.2906639,20.4783333 82.1844398,20.4383333 C81.9676349,20.3491667 81.7460581,20.2725 81.5205394,20.2083333 L81.5354772,3.33333333 Z M83.1952282,26.6666667 C83.1952282,28.5077083 81.7091286,30 79.8757261,30 C78.0423237,30 76.5562241,28.5077083 76.5562241,26.6666667 C76.5562241,24.825625 78.0423237,23.3333333 79.8757261,23.3333333 C81.7091286,23.3333333 83.1952282,24.8258333 83.1952282,26.6666667 Z M74.896473,56.3966667 L70.0018672,71.14 C69.9456432,71.3097917 69.9170124,71.4877083 69.9172199,71.6666667 L69.9172199,93.3333333 C69.9172199,95.174375 68.4311203,96.6666667 66.5977178,96.6666667 C64.7643154,96.6666667 63.2782158,95.174375 63.2782158,93.3333333 L63.2782158,71.9366667 L68.1728216,57.1933333 C68.2290456,57.0235417 68.2576763,56.845625 68.2574689,56.6666667 L68.2574689,53.3333333 L74.896473,53.3333333 L74.896473,56.3966667 Z M73.5155602,44.075 C73.3342324,44.3491667 73.2373444,44.6708333 73.236722,45 L73.236722,50 L69.9172199,50 L69.9172199,42.27 L71.9537344,39.8183333 C71.9869295,39.84 72.0251037,39.8533333 72.0599585,39.875 C72.5172199,40.1625 72.9935685,40.418125 73.4856846,40.64 C73.570332,40.6766667 73.6516598,40.7133333 73.7396266,40.7483333 C74.240249,40.9622917 74.7556017,41.14 75.2815353,41.28 C75.3064315,41.28 75.329668,41.2983333 75.3545643,41.305 L73.5155602,44.075 Z M82.91639,39.075 C82.6085062,38.6114583 82.090249,38.3333333 81.5354772,38.3333333 L78.2159751,38.3333333 C73.6373444,38.3222917 69.9282158,34.5977083 69.9172199,30 L69.9172199,18.7266667 L77.5819502,3.33333333 L78.2159751,3.33333333 L78.2159751,20.2116667 C77.9904564,20.2758333 77.7688797,20.3525 77.5520747,20.4416667 C77.4458506,20.4816667 77.3363071,20.5083333 77.2334025,20.5533333 C76.8697095,20.71125 76.5209544,20.9014583 76.1910788,21.1216667 C76.11639,21.1716667 76.0549793,21.2333333 75.98361,21.2883333 C75.7323651,21.4675 75.4943983,21.6645833 75.2715768,21.8783333 C75.170332,21.9766667 75.0823651,22.0833333 74.9877593,22.1866667 C74.8103734,22.3758333 74.6441909,22.575 74.489834,22.7833333 C74.4002075,22.9083333 74.3238589,23.035 74.2375519,23.165 C74.1047718,23.38 73.9846473,23.6027083 73.8773859,23.8316667 C73.8126556,23.9683333 73.7479253,24.105 73.6914938,24.2466667 C73.5937759,24.5039583 73.5122407,24.7672917 73.4475104,25.035 C73.4143154,25.1633333 73.3728216,25.2883333 73.3479253,25.42 C73.2715768,25.8310417 73.2342324,26.2485417 73.236722,26.6666667 C73.236722,30.3485417 76.2091286,33.3333333 79.8757261,33.3333333 L82.4184647,33.3333333 L86.7919087,38.605 L89.8342324,42.27 L89.8342324,50 L86.5147303,50 L86.5147303,45 C86.5141079,44.6708333 86.4172199,44.3491667 86.2358921,44.075 L82.91639,39.075 Z M96.4732365,93.3333333 C96.4732365,95.174375 94.9871369,96.6666667 93.1537344,96.6666667 C91.320332,96.6666667 89.8342324,95.174375 89.8342324,93.3333333 L89.8342324,71.6666667 C89.8344398,71.4877083 89.8058091,71.3097917 89.7495851,71.14 L84.8549793,56.3966667 L84.8549793,53.3333333 L91.4939834,53.3333333 L91.4939834,56.6666667 C91.4937759,56.845625 91.5224066,57.0235417 91.5786307,57.1933333 L96.4732365,71.9366667 L96.4732365,93.3333333 Z" id="Shape" fill-rule="nonzero" opacity="0.300000012"></path>
                            <path d="M56.6392116,40 L58.2989627,40 C59.2155602,40 59.9587137,39.25375 59.9587137,38.3333333 L59.9587137,11.6666667 C59.956639,10.353125 59.7321577,9.04958333 59.2948133,7.81166667 L59.2948133,7.77666667 C59.2948133,7.755 59.2748963,7.735 59.2682573,7.71333333 C58.8784232,6.639375 58.33361,5.62854167 57.6516598,4.71333333 C57.6068465,4.65166667 57.5620332,4.59 57.5155602,4.53 C57.1834025,4.09875 56.8217842,3.69104167 56.4334025,3.31 L56.3304979,3.21666667 C55.9508299,2.85604167 55.5473029,2.521875 55.1221992,2.21666667 C55.0840249,2.18833333 55.0475104,2.15833333 55.0076763,2.13 C54.5609959,1.81645833 54.0927386,1.53458333 53.6068465,1.28666667 C53.5470954,1.255 53.4856846,1.22833333 53.4242739,1.19833333 C52.936722,0.955833333 52.4325726,0.748541667 51.9155602,0.578333333 L51.8939834,0.57 C51.3767635,0.406458333 50.8487552,0.279375 50.3139004,0.19 C50.2043568,0.171666667 50.096473,0.155 49.9819502,0.14 C48.8977178,-0.0333333333 47.7931535,-0.0333333333 46.7089212,0.14 C46.5993776,0.155 46.4914938,0.17 46.376971,0.19 C45.8421162,0.279375 45.3141079,0.406458333 44.796888,0.57 L44.7753112,0.57 C44.2582988,0.740833333 43.7541494,0.948541667 43.2665975,1.19166667 C43.2051867,1.22166667 43.1437759,1.24833333 43.0840249,1.28 C42.5981328,1.52791667 42.1298755,1.80979167 41.683195,2.12333333 C41.643361,2.15166667 41.6068465,2.18166667 41.5686722,2.21 C41.1435685,2.51520833 40.7400415,2.849375 40.3603734,3.21 L40.2574689,3.30333333 C39.8686722,3.685 39.5064315,4.093125 39.1736515,4.525 C39.1288382,4.58333333 39.0840249,4.645 39.0392116,4.705 C38.3572614,5.62041667 37.8126556,6.63104167 37.4226141,7.705 C37.4226141,7.72666667 37.4026971,7.74666667 37.3960581,7.76833333 L37.3960581,7.80333333 C36.9543568,9.04333333 36.726556,10.3497917 36.7221992,11.6666667 L36.7221992,38.3333333 C36.7221992,39.25375 37.4653527,40 38.3819502,40 L40.0417012,40 C40.9582988,40 41.7014523,40.74625 41.7014523,41.6666667 C41.7014523,42.5870833 40.9582988,43.3333333 40.0417012,43.3333333 L38.3819502,43.3333333 C37.4653527,43.3333333 36.7221992,44.0795833 36.7221992,45 L36.7221992,51.6666667 C36.7221992,52.5870833 37.4653527,53.3333333 38.3819502,53.3333333 L43.3612033,53.3333333 L43.3612033,84.73 L41.7860996,89.4733333 C41.6946058,89.7483333 41.6767635,90.0427083 41.7346473,90.3266667 L43.3943983,98.66 C43.5493776,99.43875 44.230083,99.9995833 45.0209544,100 L51.6599585,100 C52.4487552,100.000208 53.1288382,99.4427083 53.2865145,98.6666667 L54.9462656,90.3333333 C55.0041494,90.049375 54.9863071,89.755 54.8948133,89.48 L53.3197095,84.73 L53.3197095,53.3333333 L58.2989627,53.3333333 C59.2155602,53.3333333 59.9587137,52.5870833 59.9587137,51.6666667 L59.9587137,45 C59.9587137,44.0795833 59.2155602,43.3333333 58.2989627,43.3333333 L56.6392116,43.3333333 C55.7226141,43.3333333 54.9794606,42.5870833 54.9794606,41.6666667 C54.9794606,40.74625 55.7224066,40 56.6392116,40 Z M42.4018672,5.865 C42.4815353,5.78333333 42.5678423,5.71 42.6491701,5.63166667 C42.9323651,5.3625 43.23361,5.113125 43.5504149,4.885 C43.623444,4.83333333 43.6914938,4.775 43.7661826,4.71833333 C44.1360996,4.475 44.5244813,4.26145833 44.9280083,4.08 C45.0375519,4.03 45.1487552,3.98 45.2599585,3.935 C45.680083,3.76416667 46.1136929,3.62854167 46.5562241,3.53 C46.6491701,3.50833333 46.7437759,3.49666667 46.836722,3.47833333 C47.8224066,3.27666667 48.8385892,3.27666667 49.8242739,3.47833333 C49.9172199,3.49666667 50.0118257,3.50833333 50.1047718,3.53 C50.5473029,3.62854167 50.9809129,3.76395833 51.4010373,3.935 C51.5139004,3.98 51.6251037,4.03 51.7329876,4.08 C52.1365145,4.26166667 52.5248963,4.475 52.8948133,4.71833333 C52.9695021,4.76833333 53.0375519,4.82666667 53.1105809,4.885 C53.4273859,5.113125 53.7286307,5.3625 54.0118257,5.63166667 C54.0931535,5.71 54.1778008,5.78333333 54.2591286,5.865 C54.4970954,6.11791667 54.7188797,6.385625 54.923029,6.66666667 L41.7446058,6.66666667 C41.946473,6.38583333 42.1661826,6.118125 42.4018672,5.865 Z M50.2989627,96.6666667 L46.3819502,96.6666667 L45.0757261,90.1066667 L46.5960581,85.5266667 C46.6522822,85.356875 46.6809129,85.1789583 46.6807054,85 L46.6807054,53.3333333 L50.0002075,53.3333333 L50.0002075,85 C50,85.1789583 50.0286307,85.356875 50.0848548,85.5266667 L51.6051867,90.1066667 L50.2989627,96.6666667 Z M56.6392116,46.6666667 L56.6392168,50 L40.0416961,50 L40.0417012,46.6666667 C42.7917012,46.6666667 45.0209544,44.428125 45.0209544,41.6666667 C45.0209544,38.9052083 42.7917012,36.6666667 40.0417012,36.6666667 L40.0417012,11.6666667 C40.0410788,11.106875 40.0966805,10.5485417 40.2076763,10 L56.4732365,10 C56.5842324,10.5485417 56.639834,11.106875 56.6392116,11.6666667 L56.6392116,36.6666667 C53.8892116,36.6666667 51.6599585,38.9052083 51.6599585,41.6666667 C51.6599585,44.428125 53.8892116,46.6666667 56.6392116,46.6666667 Z" id="Shape" fill-rule="nonzero"></path>
                            <rect id="Rectangle" x="46.6807054" y="13.3333333" width="3.31950207" height="23.3333333"></rect>
                        </g>
                    </g>
                </g>
            </g>
        </g>
    </g>
</svg>