<?xml version="1.0" encoding="UTF-8"?>
<svg width="108px" height="100px" viewBox="0 0 108 100" version="1.1" xmlns="http://www.w3.org/2000/svg" xmlns:xlink="http://www.w3.org/1999/xlink">
    <!-- Generator: Sketch 53.1 (72631) - https://sketchapp.com -->
    <title>wheel</title>
    <desc>Created with Sketch.</desc>
    <g id="web" stroke="none" stroke-width="1" fill="none" fill-rule="evenodd">
        <g id="Hlavni" transform="translate(-224.000000, -907.000000)" fill="#FFFFFF" fill-rule="nonzero">
            <g id="Group-8" transform="translate(150.000000, 867.000000)">
                <g id="Group-9">
                    <g id="wheel">
                        <g transform="translate(74.000000, 40.000000)" id="Shape">
                            <path d="M107.835087,26.8659243 L107.835087,9.04855234 C107.829261,4.13095768 103.819817,0.145657016 98.8724315,0.13986637 L45.0964979,0.13986637 C40.149112,0.145657016 36.139668,4.13095768 36.1338423,9.04855234 L36.1338423,25.1750557 C15.3770041,25.9873051 -0.787369295,43.3710468 0.0298008299,64.0028953 C0.846970954,84.6347439 18.3360249,100.701782 39.0928631,99.8895323 C40.334639,99.84098 41.5730539,99.7311804 42.8040747,99.5608018 C43.5486473,99.7812918 44.3198838,99.9011136 45.096722,99.9171492 L98.8726556,99.9171492 C103.820041,99.9113586 107.829485,95.9260579 107.835311,91.0084633 L107.835311,73.1910913 C107.829485,68.2734967 103.820041,64.288196 98.8726556,64.2824053 L98.8260498,64.2824053 C100.012257,62.7494432 100.658689,60.8712695 100.665187,58.9371938 L100.665187,41.1198218 C100.658689,39.1857461 100.012257,37.3075724 98.8260498,35.7746102 L98.8726556,35.7746102 C103.819817,35.7685969 107.829037,31.7835189 107.835087,26.8659243 Z M45.0964979,3.70334076 L98.8724315,3.70334076 C101.842432,3.70334076 104.250025,6.09643653 104.250025,9.04855234 L39.7189046,9.04855234 C39.7189046,6.09643653 42.1264979,3.70334076 45.0964979,3.70334076 Z M39.7189046,12.6120267 L104.250025,12.6120267 L104.250025,16.1755011 L39.7189046,16.1755011 L39.7189046,12.6120267 Z M39.7189046,19.7389755 L104.250025,19.7389755 L104.250025,23.3024499 L39.7189046,23.3024499 L39.7189046,19.7389755 Z M51.8722656,93.3532294 C51.3177012,93.5991091 50.756639,93.8300668 50.1890788,94.0463252 C49.9309544,94.1461024 49.6674523,94.2387528 49.4039502,94.3331849 C31.7078589,100.644989 12.2147552,91.5024499 5.86471369,73.9131403 C-0.485327801,56.323608 8.71259751,36.9478842 26.4084647,30.6360802 C30.1037676,29.3180401 34.0002822,28.6454343 37.9263734,28.6476615 C39.0018921,28.6476615 40.0487303,28.7100223 41.0919834,28.8062361 C41.4253942,28.8383073 41.7534274,28.8864143 42.0850456,28.9256125 C42.8020581,29.0129176 43.5047303,29.1180401 44.2038174,29.2481069 C44.580249,29.3193764 44.9566805,29.3942094 45.329527,29.4761693 C45.9730456,29.62049 46.6076017,29.7879733 47.2385726,29.966147 C47.6185892,30.074833 48.0039834,30.1728285 48.3804149,30.2957684 C48.991668,30.4917595 49.5867884,30.7216036 50.1729461,30.9514477 C51.0943071,31.3077951 52.0013278,31.7033408 52.8922158,32.1416481 C53.1557178,32.2717149 53.4299751,32.3875278 53.6863071,32.5229399 C54.3226556,32.8561247 54.9410788,33.2249443 55.5612946,33.5919822 C55.7656432,33.7167038 55.9717842,33.8360802 56.1743402,33.9625835 C56.7963485,34.3599109 57.4076017,34.7821826 58.0098921,35.22049 C58.1891452,35.3487751 58.3576432,35.4770601 58.5297261,35.6071269 C59.1499419,36.0821826 59.7515602,36.5710468 60.334805,37.0734967 C60.5588714,37.267706 60.7775602,37.4690423 60.9944564,37.6685969 C61.4927801,38.1229399 61.9803485,38.5879733 62.4481992,39.0690423 C62.7654772,39.396882 63.0684149,39.7389755 63.3731452,40.081069 C63.7316515,40.4766147 64.0901577,40.8703786 64.4217759,41.2819599 C64.8143402,41.7665924 65.1800166,42.2708241 65.5474855,42.7768374 C65.7805145,43.0975501 66.0260913,43.4093541 66.2483651,43.7371938 C66.3899751,43.9474388 66.5082822,44.1737194 66.6445145,44.3875278 C67.1822739,45.2213808 67.6895602,46.0766147 68.1538257,46.976392 C68.229112,47.1224944 68.2936432,47.2739421 68.3689295,47.4200445 C68.8690456,48.4320713 69.3351037,49.4726058 69.7455934,50.5523385 C69.7742739,50.6271715 69.8011618,50.7037862 69.8298423,50.7804009 C70.2116515,51.810245 70.5468548,52.8614699 70.8282822,53.9287305 L70.8533776,54.0249443 C71.1426473,55.14098 71.3747801,56.2708241 71.5488797,57.410245 L71.5488797,57.444098 C71.6707718,58.2494432 71.7586058,58.9942094 71.826722,59.7122494 C71.9020083,60.6298441 71.968332,61.5492205 71.968332,62.4846325 C71.9656432,63.6200445 71.9058174,64.7547884 71.7890788,65.8841871 C71.7890788,65.9839644 71.7603983,66.0837416 71.7496432,66.1835189 C71.654639,67.0423163 71.5166141,67.885078 71.3588714,68.7224944 C71.2889627,69.0788419 71.2208465,69.4351893 71.1401826,69.7915367 C71.0039502,70.4026726 70.8390373,71.003118 70.6705394,71.6017817 C70.4697759,72.3073497 70.2450373,73.008686 69.9965477,73.7060134 C69.8943734,73.9928731 69.7904066,74.2761693 69.6810622,74.5594655 C69.295668,75.5608018 68.8582905,76.542539 68.3778921,77.5028953 C68.3061909,77.6489978 68.2398672,77.7986637 68.1663734,77.9429844 C67.6118091,79.0173719 67.000332,80.0616927 66.3344066,81.0717149 L66.3218589,81.0930958 C66.0798672,81.4494432 65.8181577,81.8057906 65.5654108,82.1621381 C65.2570954,82.5861915 64.945195,83.0084633 64.6189544,83.4093541 C64.3572448,83.7407572 64.0919502,84.0685969 63.8176929,84.3893096 C63.3265394,84.9612472 62.8210456,85.5171492 62.2940415,86.0552339 C62.0341245,86.3207127 61.7562822,86.5790646 61.4945726,86.8374165 C61.0070041,87.3042316 60.5062158,87.7567929 59.9924315,88.1951002 C59.6679834,88.4712695 59.3363651,88.7296214 59.0029544,89.0004454 C58.5566141,89.3567929 58.1066888,89.6864143 57.6370456,90.0160356 C57.2946722,90.2583519 56.9540913,90.5077951 56.6027552,90.7394209 C56.0058423,91.1296214 55.3892116,91.4930958 54.7672033,91.8476615 C54.1792531,92.1826281 53.5787552,92.4926503 52.9746722,92.7902004 C52.6251286,92.9986637 52.2504896,93.1839644 51.8722656,93.3532294 Z M75.4171618,59.5073497 L75.4171618,59.5002227 C75.401029,59.3113586 75.4064066,59.1171492 75.3884813,58.9300668 L97.0799004,58.9300668 C97.0799004,61.8821826 94.6723071,64.2752784 91.7023071,64.2752784 L75.5265062,64.2752784 C75.5551867,63.6766147 75.569527,63.0815145 75.569527,62.4935412 C75.569527,61.5367483 75.512166,60.5407572 75.4171618,59.5073497 Z M74.8650622,55.3737194 C74.6259834,54.1632517 74.3326805,52.9755011 73.9849295,51.810245 L97.0799004,51.810245 L97.0799004,55.3737194 L74.8650622,55.3737194 Z M72.7140249,48.2467706 C72.2127884,47.0298441 71.6467967,45.8403118 71.0182905,44.6832962 L97.0799004,44.6832962 L97.0799004,48.2467706 L72.7140249,48.2467706 Z M68.8009295,41.1198218 C68.5177095,40.718931 68.1950539,40.3483296 67.9046639,39.9581292 C67.5300249,39.4681514 67.1661411,38.9674833 66.7681992,38.4953229 C66.4993195,38.176392 66.2035519,37.8806236 65.923917,37.5723831 C65.3861577,36.9719376 64.8483983,36.3732739 64.2640332,35.8084633 L64.22639,35.7746102 L91.7023071,35.7746102 C94.6723071,35.7746102 97.0799004,38.167706 97.0799004,41.1198218 L68.8009295,41.1198218 Z M98.8724315,96.3536748 L53.912166,96.3536748 C54.256332,96.1933185 54.5897427,96.0080178 54.9303237,95.836971 C55.3246805,95.6374165 55.7262075,95.4521158 56.1116017,95.2383073 C56.9487137,94.7804009 57.7625228,94.2797327 58.5637842,93.755902 C58.8918174,93.5420935 59.2090954,93.3175947 59.528166,93.0948775 C60.125751,92.6768374 60.7123568,92.2403118 61.2884315,91.7853007 C61.5537261,91.5750557 61.8261909,91.3737194 62.0825228,91.1581292 C62.1452614,91.1064588 62.2115851,91.0601336 62.2725311,91.0084633 L104.250025,91.0084633 C104.250025,93.9603563 101.842432,96.3536748 98.8724315,96.3536748 Z M104.250025,87.4449889 L65.950805,87.4449889 C66.1497759,87.2240535 66.3344066,86.9888641 66.528,86.7625835 C66.761029,86.4917595 66.9958506,86.2280624 67.2217095,85.9447661 C67.7594689,85.2730512 68.2972282,84.5888641 68.7865892,83.8815145 L104.250025,83.8815145 L104.250025,87.4449889 Z M104.250025,80.3180401 L71.020083,80.3180401 C71.6485892,79.1610245 72.2145809,77.9714922 72.7158174,76.7545657 L104.250025,76.7545657 L104.250025,80.3180401 Z M98.8724315,67.844098 L98.8724315,67.8458797 C101.842432,67.8458797 104.250025,70.2389755 104.250025,73.1910913 L73.9849295,73.1910913 C74.0369129,73.0129176 74.0727635,72.8347439 74.1229544,72.6565702 C74.3380581,71.9046771 74.5406141,71.152784 74.709112,70.3955457 C74.7951535,69.9964365 74.8596846,69.5902004 74.9331784,69.1857461 C75.0156349,68.7385301 75.1124315,68.2948775 75.1823402,67.844098 L98.8724315,67.844098 Z M59.9619585,32.2111359 C59.8830871,32.1541203 59.7988382,32.1060134 59.7199668,32.0489978 C59.173917,31.663029 58.616888,31.2910913 58.0493278,30.9336303 C57.7033693,30.7144766 57.3502407,30.5060134 56.997112,30.2975501 C56.4701079,29.9875278 55.9466888,29.6739421 55.4017593,29.3906459 C54.5520996,28.9427617 53.6892199,28.5271715 52.8133444,28.1434298 C52.4548382,27.9919822 52.096332,27.8636971 51.7378257,27.7229399 C51.0494938,27.4503341 50.3557842,27.1884187 49.653112,26.9621381 C49.5581079,26.9318486 49.4738589,26.8908686 49.3716846,26.8605791 L104.250028,26.8605791 C104.252938,29.8126949 101.847809,32.2082405 98.8778091,32.2111359 C98.8760166,32.2111359 98.8742241,32.2111359 98.8724315,32.2111359 L59.9619585,32.2111359 Z" opacity="0.300000012"></path>
                            <path d="M65.1101079,53.4904232 L65.1101079,53.4743875 C64.9308548,52.9505568 64.7516017,52.4552339 64.5526307,51.9706013 C64.4074357,51.6142539 64.2550705,51.2579065 64.0955353,50.901559 C64.0704398,50.8463252 64.050722,50.7928731 64.0274191,50.7394209 C63.966473,50.6057906 63.8929793,50.481069 63.8284481,50.352784 C63.5093776,49.6792873 63.1705892,49.0182628 62.8013278,48.3768374 C62.7672697,48.3180401 62.7457593,48.2663697 62.7081162,48.1986637 C62.6453776,48.0917595 62.5629212,47.986637 62.49839,47.877951 C62.1147884,47.2436526 61.7150539,46.630735 61.2848465,46.0213808 C61.2400332,45.95902 61.2041826,45.891314 61.1593693,45.8289532 C61.0715353,45.7095768 60.969361,45.6026726 60.8797344,45.485078 C60.4477344,44.9077951 59.9978091,44.3465479 59.5227884,43.8048998 C59.4690124,43.742539 59.4206141,43.6712695 59.3668382,43.6106904 C59.3453278,43.5857461 59.3148548,43.5750557 59.2915519,43.5518931 C55.1770207,38.9461024 49.6712614,35.7902004 43.5997344,34.5576837 C43.0619751,34.4507795 42.565444,34.3991091 42.0545726,34.3260579 C41.6512531,34.2672606 41.2551037,34.1835189 40.8464066,34.1478842 C40.638473,34.1265033 40.4287469,34.1336303 40.2208133,34.1175947 C39.4554025,34.0481069 38.6971618,33.9928731 37.9263734,33.9928731 C37.1555851,33.9928731 36.3973444,34.0481069 35.6426888,34.108686 C35.4347552,34.1247216 35.225029,34.108686 35.0170954,34.1389755 C34.6317012,34.1781737 34.2606473,34.2565702 33.8806307,34.3171492 C33.3715519,34.3902004 32.8803983,34.4436526 32.3372614,34.5505568 L32.3265062,34.5505568 C26.1953776,35.7777283 20.6365145,38.9652561 16.4984564,43.6267261 C16.4805311,43.6445434 16.4572282,43.6534521 16.4410954,43.6712695 C16.3998672,43.7175947 16.3658091,43.7674833 16.3263734,43.8138085 C15.8459751,44.3608018 15.3924647,44.9291759 14.9550871,45.511804 C14.8726307,45.6222717 14.775834,45.7273942 14.6933776,45.8378619 C14.6521494,45.8930958 14.6180913,45.9572383 14.5786556,46.0160356 C14.1359004,46.6325167 13.7254108,47.2632517 13.3238838,47.9207127 C13.2557676,48.0329621 13.1768963,48.1327394 13.1105726,48.2467706 C13.0693444,48.3180401 13.0317012,48.3946548 12.990473,48.4659243 C12.8112199,48.7652561 12.6534772,49.064588 12.4921494,49.3710468 C12.2501577,49.8325167 12.0135436,50.3082405 11.7840996,50.8071269 C11.7661743,50.8481069 11.7536266,50.8908686 11.7357012,50.9318486 C11.3915353,51.6979955 11.086805,52.4819599 10.8107552,53.2819599 C10.7874523,53.3496659 10.7551867,53.4138085 10.7318838,53.4832962 L10.7318838,53.5064588 C8.75180913,59.3405345 8.75180913,65.65902 10.7318838,71.4930958 C10.7318838,71.5037862 10.7318838,71.5144766 10.7318838,71.525167 C10.9003817,72.0293987 11.09039,72.5443207 11.3090788,73.0681514 C11.4506888,73.4244989 11.5976763,73.7665924 11.7536266,74.1104677 C11.778722,74.1657016 11.7966473,74.2173719 11.8217427,74.2726058 C11.8647635,74.3634744 11.9221245,74.4507795 11.9651452,74.5469933 C12.3057261,75.2596882 12.6678174,75.9723831 13.0639668,76.6619154 C13.0926473,76.7100223 13.1123651,76.7581292 13.1410456,76.8080178 C13.2037842,76.914922 13.2844481,77.0182628 13.3471867,77.125167 C13.7343734,77.7648107 14.1376929,78.3902004 14.5714855,78.9959911 C14.6145062,79.0547884 14.6467718,79.1171492 14.6897925,79.1741648 C14.772249,79.2864143 14.8690456,79.389755 14.9532946,79.5002227 C15.3906722,80.0828508 15.8495602,80.6494432 16.3209959,81.1964365 C16.3783568,81.2605791 16.4249627,81.3318486 16.4823237,81.3959911 C16.5056266,81.4209354 16.5360996,81.4316258 16.5594025,81.4565702 C20.6741577,86.0605791 26.1792448,89.214922 32.2494274,90.447216 C32.7871867,90.5541203 33.2837178,90.6057906 33.7945892,90.6788419 C34.1979087,90.7376392 34.5940581,90.8213808 35.0027552,90.8570156 C35.9671369,90.9532294 36.9458589,91.003118 37.9120332,91.003118 C38.8782075,91.003118 39.8569295,90.9532294 40.8195187,90.8570156 L40.8840498,90.8481069 C41.76239,90.75902 42.6425228,90.6271715 43.6517178,90.4293987 C49.7028548,89.1917595 55.1888963,86.0423163 59.2915519,81.4512249 C59.3148548,81.4280624 59.3453278,81.4173719 59.3686307,81.3924276 C59.4259917,81.3282851 59.4725975,81.2570156 59.528166,81.1928731 C60.0103568,80.644098 60.4638672,80.0757238 60.9012448,79.491314 C60.9837012,79.3808463 61.0804979,79.2792873 61.1629544,79.1670379 C61.2041826,79.111804 61.2382407,79.0476615 61.2776763,78.9888641 C61.718639,78.3759465 62.1255436,77.7416481 62.5163154,77.0948775 C62.5862241,76.9808463 62.666888,76.8775056 62.7350041,76.7616927 C62.7654772,76.7082405 62.7905726,76.6512249 62.8210456,76.5977728 C63.1114357,76.0935412 63.3767303,75.5750557 63.6366473,75.0530067 C63.7782573,74.7857461 63.9180747,74.5184855 64.0632697,74.1977728 C64.0829876,74.1550111 64.0937427,74.1140312 64.1134606,74.0730512 C64.4450788,73.3318486 64.7390539,72.5728285 65.0097261,71.8013363 C65.0419917,71.7069042 65.09039,71.6106904 65.1208631,71.5180401 L65.1208631,71.4859688 C67.1002656,65.6481069 67.0964564,59.3258352 65.1101079,53.4904232 Z M45.0964979,38.6075724 C48.8518506,39.7296214 52.2901494,41.711804 55.1346722,44.3946548 L45.0964979,50.1567929 L45.0964979,38.6075724 Z M30.756249,38.6075724 L30.756249,50.1567929 L20.7180747,44.3946548 C23.5625975,41.7115813 27.0006722,39.7293987 30.756249,38.6075724 Z M13.5354025,68.2699332 C12.5961162,64.481069 12.5961162,60.522049 13.5354025,56.7331849 L23.5861245,62.5006682 L13.5354025,68.2699332 Z M30.756249,86.3937639 C27.0008963,85.2717149 23.5625975,83.289755 20.7180747,80.6066815 L30.756249,74.8445434 L30.756249,86.3937639 Z M45.0964979,86.3937639 L45.0964979,74.8445434 L55.1346722,80.6066815 C52.2901494,83.2895323 48.8518506,85.2717149 45.0964979,86.3937639 Z M61.1970124,71.7959911 C61.0769129,72.088196 60.9460581,72.3857461 60.8098257,72.6868597 C60.7632199,72.7902004 60.709444,72.888196 60.6610456,72.989755 C60.5248133,73.2723831 60.382083,73.5510022 60.2326307,73.8253898 L59.8633693,74.5380846 C59.8095934,74.6521158 59.7414772,74.7768374 59.6697759,74.9069042 C59.5980747,75.036971 59.5335436,75.1278396 59.4654274,75.2400891 C59.1194689,75.8191537 58.7484149,76.3946548 58.3433029,76.9576837 C58.1084813,77.2837416 57.8682822,77.6062361 57.6173278,77.9216036 L44.2002324,70.2155902 C43.3429544,69.723608 42.2465975,70.0155902 41.7516349,70.867706 C41.5929959,71.1407572 41.5103154,71.4505568 41.5114357,71.7657016 L41.5114357,87.1599109 C41.185195,87.2080178 40.8661245,87.2757238 40.5345062,87.3095768 L40.4753527,87.3095768 C38.7796183,87.4788419 37.0713361,87.4788419 35.3756017,87.3095768 L35.3236183,87.3095768 C34.992,87.2757238 34.6693444,87.2080178 34.3413112,87.1599109 L34.3413112,71.7657016 C34.3413112,70.7817372 33.5387054,69.9839644 32.5487801,69.9839644 C32.2341909,69.9839644 31.9249793,70.0663697 31.6525145,70.2227171 L18.2354191,77.9233853 C17.9916349,77.6169265 17.7568133,77.301559 17.5184066,76.9826281 C17.1007469,76.4035635 16.7117676,75.803118 16.3371286,75.1759465 C16.2797676,75.0797327 16.2188216,74.9977728 16.1578755,74.8926503 C15.7993693,74.2797327 15.4785062,73.6454343 15.1612282,72.9683742 C15.1056598,72.8507795 15.0429212,72.7367483 14.9819751,72.6120267 C14.8625477,72.3412027 14.7464813,72.0710468 14.6342241,71.8013363 L14.6162988,71.7514477 L28.0674523,64.0436526 C28.9247303,63.5516704 29.2184813,62.4619154 28.7235187,61.6097996 C28.5662241,61.3389755 28.339917,61.1140312 28.0674523,60.9576837 L14.6396017,53.2516704 L14.6396017,53.2391982 C14.7597012,52.9398664 14.890556,52.6387528 15.0267884,52.3340757 C15.0787718,52.2218263 15.1361328,52.1113586 15.1899087,51.9991091 C15.4874689,51.3665924 15.811917,50.7340757 16.1811784,50.0926503 C16.2457095,49.9821826 16.3156183,49.8770601 16.3801494,49.7683742 C16.7386556,49.1857461 17.0971618,48.6084633 17.509444,48.0436526 C17.742473,47.7193764 17.9808797,47.3986637 18.2264564,47.0868597 L31.6525145,54.7857461 C32.5097925,55.2777283 33.6061494,54.9857461 34.101112,54.1336303 C34.259751,53.8605791 34.3424315,53.5507795 34.3413112,53.2356347 L34.3413112,37.8414254 C34.6657593,37.7951002 34.9848299,37.7273942 35.3146556,37.6935412 L35.3773942,37.6846325 C37.0731286,37.5153675 38.7814108,37.5153675 40.4771452,37.6846325 L40.5291286,37.6846325 C40.8607469,37.7184855 41.1834025,37.7861915 41.5114357,37.8342984 L41.5114357,53.2356347 C41.5114357,54.2195991 42.3140415,55.0173719 43.3039668,55.0173719 C43.618556,55.0173719 43.9277676,54.9349666 44.2002324,54.7786192 L57.6191203,47.0797327 C57.8581992,47.3861915 58.0934689,47.6991091 58.3253776,48.0187082 C58.7412448,48.5942094 59.1302241,49.1964365 59.5048631,49.823608 C59.5640166,49.9233853 59.6285477,50.0195991 59.6841162,50.1193764 C59.7396846,50.2191537 59.8060083,50.345657 59.8633693,50.4614699 L60.2218755,51.1616927 C60.3061245,51.3167038 60.3903734,51.4734967 60.4764149,51.6374165 C60.5965145,51.8832962 60.7237842,52.1273942 60.8349212,52.3786192 C60.9586058,52.6583519 61.0804979,52.9398664 61.1934274,53.2374165 L47.7852946,60.9576837 C46.9280166,61.4496659 46.6342656,62.5394209 47.1292282,63.3915367 C47.2865228,63.6623608 47.5128299,63.8873051 47.7852946,64.0436526 L56.129527,68.8329621 L61.2131452,71.7496659 L61.1970124,71.7959911 Z M62.3173444,68.2681514 L52.2666224,62.5006682 L62.3173444,56.7331849 C63.2566307,60.5213808 63.2566307,64.4797327 62.3173444,68.2681514 Z"></path>
                            <path d="M37.9263734,57.1554566 C34.9563734,57.1554566 32.5487801,59.5485523 32.5487801,62.5006682 C32.5487801,65.452784 34.9563734,67.8458797 37.9263734,67.8458797 C40.8963734,67.8458797 43.3039668,65.452784 43.3039668,62.5006682 C43.3039668,59.5485523 40.8963734,57.1554566 37.9263734,57.1554566 Z M37.9263734,64.2824053 C36.9364481,64.2824053 36.1338423,63.4846325 36.1338423,62.5006682 C36.1338423,61.5167038 36.9364481,60.718931 37.9263734,60.718931 C38.9162988,60.718931 39.7189046,61.5167038 39.7189046,62.5006682 C39.7189046,63.4846325 38.9162988,64.2824053 37.9263734,64.2824053 Z"></path>
                        </g>
                    </g>
                </g>
            </g>
        </g>
    </g>
</svg>