<?xml version="1.0" encoding="UTF-8"?>
<svg width="100px" height="100px" viewBox="0 0 100 100" version="1.1" xmlns="http://www.w3.org/2000/svg" xmlns:xlink="http://www.w3.org/1999/xlink">
    <title>ikona-prevodovka</title>
    <g id="ikona-prevodovka" stroke="none" stroke-width="1" fill="none" fill-rule="evenodd">
        <g id="gearshift" transform="translate(12.000000, 0.000000)" fill="#FFFFFF" fill-rule="nonzero">
            <path d="M56.2498047,16.6666016 L47.9164062,16.6666016 C46.7648437,16.6666016 45.8330078,17.5984375 45.8330078,18.75 C45.8330078,19.9015625 46.7648438,20.8333984 47.9164062,20.8333984 L56.2498047,20.8333984 C57.4013672,20.8333984 58.3332031,19.9015625 58.3332031,18.75 C58.3332031,17.5984375 57.4013672,16.6666016 56.2498047,16.6666016 Z" id="Path" opacity="0.5"></path>
            <path d="M56.2498047,37.5 L47.9164062,37.5 C46.7648437,37.5 45.8330078,38.4318359 45.8330078,39.5833984 C45.8330078,40.7349609 46.7648438,41.6667969 47.9164062,41.6667969 L56.2498047,41.6667969 C57.4013672,41.6667969 58.3332031,40.7349609 58.3332031,39.5833984 C58.3332031,38.4318359 57.4013672,37.5 56.2498047,37.5 Z" id="Path" opacity="0.5"></path>
            <path d="M56.2498047,58.3333984 L47.9164062,58.3333984 C46.7648437,58.3333984 45.8330078,59.2652344 45.8330078,60.4167969 C45.8330078,61.5683594 46.7648438,62.5001953 47.9164062,62.5001953 L56.2498047,62.5001953 C57.4013672,62.5001953 58.3332031,61.5683594 58.3332031,60.4167969 C58.3332031,59.2652344 57.4013672,58.3333984 56.2498047,58.3333984 Z" id="Path" opacity="0.5"></path>
            <path d="M56.2498047,79.1666016 L47.9164062,79.1666016 C46.7648437,79.1666016 45.8330078,80.0984375 45.8330078,81.25 C45.8330078,82.4015625 46.7648438,83.3333984 47.9164062,83.3333984 L56.2498047,83.3333984 C57.4013672,83.3333984 58.3332031,82.4015625 58.3332031,81.25 C58.3332031,80.0984375 57.4013672,79.1666016 56.2498047,79.1666016 Z" id="Path" opacity="0.5"></path>
            <path d="M68.7498047,10.4166016 L64.5832031,10.4166016 C63.4316406,10.4166016 62.4998047,11.3484375 62.4998047,12.5 L62.4998047,25 C62.4998047,26.1515625 63.4316406,27.0833984 64.5832031,27.0833984 C65.7347656,27.0833984 66.6666016,26.1515625 66.6666016,25 L66.6666016,22.9166016 L68.7498047,22.9166016 C72.1962891,22.9166016 74.9998047,20.1130859 74.9998047,16.6666016 C74.9998047,13.2201172 72.1962891,10.4166016 68.7498047,10.4166016 Z M68.7498047,18.75 L66.6664063,18.75 L66.6664063,14.5833984 L68.7498047,14.5833984 C69.8972656,14.5833984 70.8332031,15.5171875 70.8332031,16.6667969 C70.8332031,17.8162109 69.8972656,18.75 68.7498047,18.75 Z" id="Shape" opacity="0.5"></path>
            <path d="M74.3896484,44.3603516 L72.4986328,42.4693359 C74.0080078,41.3271484 74.9998047,39.5345703 74.9998047,37.5 C74.9998047,34.0535156 72.1962891,31.25 68.7498047,31.25 L64.5832031,31.25 C63.4316406,31.25 62.4998047,32.1818359 62.4998047,33.3333984 L62.4998047,45.8333984 C62.4998047,46.9849609 63.4316406,47.9167969 64.5832031,47.9167969 C65.7347656,47.9167969 66.6666016,46.9849609 66.6666016,45.8333984 L66.6666016,43.75 L67.8873047,43.75 L71.4435547,47.30625 C71.8503906,47.7130859 72.3835937,47.9166016 72.9166016,47.9166016 C73.4496094,47.9166016 73.9826172,47.7130859 74.3896484,47.30625 C75.2035156,46.4923828 75.2035156,45.1740234 74.3896484,44.3603516 Z M68.7498047,39.5833984 L66.6664063,39.5833984 L66.6664063,35.4167969 L68.7498047,35.4167969 C69.8972656,35.4167969 70.8332031,36.3505859 70.8332031,37.5001953 C70.8332031,38.6498047 69.8972656,39.5833984 68.7498047,39.5833984 Z" id="Shape" opacity="0.5"></path>
            <path d="M72.9164062,52.0833984 C71.7648437,52.0833984 70.8330078,53.0152344 70.8330078,54.1667969 L70.8330078,59.1289062 L66.6664062,57.0455078 L66.6664062,54.1666016 C66.6664062,53.0150391 65.7345703,52.0832031 64.5830078,52.0832031 C63.4314453,52.0832031 62.4998047,53.0152344 62.4998047,54.1666016 L62.4998047,66.6666016 C62.4998047,67.8181641 63.4316406,68.75 64.5832031,68.75 C65.7347656,68.75 66.6666016,67.8181641 66.6666016,66.6666016 L66.6666016,61.7044922 L70.8332031,63.7878906 L70.8332031,66.6667969 C70.8332031,67.8183594 71.7650391,68.7501953 72.9166016,68.7501953 C74.0681641,68.7501953 75,67.8183594 75,66.6667969 L75,54.1667969 C74.9998047,53.0152344 74.0679688,52.0833984 72.9164062,52.0833984 Z" id="Path" opacity="0.5"></path>
            <path d="M66.6664062,72.9166016 L64.5830078,72.9166016 C63.4314453,72.9166016 62.4996094,73.8484375 62.4996094,75 L62.4996094,87.5 C62.4996094,88.6515625 63.4314453,89.5833984 64.5830078,89.5833984 L66.6664062,89.5833984 C71.2603516,89.5833984 74.9998047,85.8458984 74.9998047,81.25 C74.9998047,76.6541016 71.2603516,72.9166016 66.6664062,72.9166016 Z M66.6664062,85.4166016 L66.6664062,77.0832031 C68.9654297,77.0832031 70.8330078,78.9529297 70.8330078,81.2498047 C70.8332031,83.546875 68.9654297,85.4166016 66.6664062,85.4166016 Z" id="Shape" opacity="0.5"></path>
            <path d="M33.3332031,33.4398437 L33.3332031,12.5 C33.3332031,5.60703125 27.7261719,0 20.8332031,0 C13.9402344,0 8.33320313,5.60703125 8.33320313,12.5 L8.33320313,33.4398437 C3.30410156,37.2466797 -0.0001953125,43.2212891 -0.0001953125,50 C-0.0001953125,56.7787109 3.30410156,62.7533203 8.33320313,66.5601563 L8.33320313,87.5 C8.33320313,94.3929688 13.9402344,100 20.8332031,100 C27.7261719,100 33.3332031,94.3929688 33.3332031,87.5 L33.3332031,66.5601563 C38.3623047,62.7533203 41.6666016,56.7787109 41.6666016,50 C41.6666016,43.2212891 38.3621094,37.2466797 33.3332031,33.4398437 Z M12.4998047,12.5 C12.4998047,7.90410156 16.2392578,4.16660156 20.8332031,4.16660156 C25.4271484,4.16660156 29.1666016,7.90390625 29.1666016,12.5 L29.1666016,30.9326172 C27.225,30.0800781 25.1115234,29.5994141 22.9166016,29.3771484 L22.9166016,10.4166016 C22.9166016,9.26503906 21.9847656,8.33320312 20.8332031,8.33320312 C19.6816406,8.33320312 18.7498047,9.26503906 18.7498047,10.4166016 L18.7498047,29.3771484 C16.5548828,29.5994141 14.4414062,30.0800781 12.4998047,30.9326172 L12.4998047,12.5 Z M29.1666016,87.5 L29.1666016,87.5 C29.1664062,92.0958984 25.4269531,95.8333984 20.8330078,95.8333984 C16.2392578,95.8333984 12.4998047,92.0958984 12.4998047,87.5 L12.4998047,69.0673828 C14.4414062,69.9199219 16.5548828,70.4005859 18.7498047,70.6228516 L18.7498047,89.5833984 C18.7498047,90.7349609 19.6816406,91.6667969 20.8332031,91.6667969 C21.9847656,91.6667969 22.9166016,90.7349609 22.9166016,89.5833984 L22.9166016,70.6228516 C25.1115234,70.4005859 27.225,69.9199219 29.1666016,69.0673828 L29.1666016,87.5 Z M20.8332031,66.6666016 C11.6412109,66.6666016 4.16660156,59.1898437 4.16660156,50 C4.16660156,40.8101562 11.6414063,33.3333984 20.8332031,33.3333984 C30.025,33.3333984 37.4998047,40.8101562 37.4998047,50 C37.4998047,59.1898437 30.025,66.6666016 20.8332031,66.6666016 Z" id="Shape"></path>
            <path d="M20.8332031,37.5 C13.9402344,37.5 8.33320312,43.1070312 8.33320312,50 C8.33320312,51.1515625 9.26503906,52.0833984 10.4166016,52.0833984 C11.5681641,52.0833984 12.5,51.1515625 12.5,50 C12.5,45.4041016 16.2394531,41.6666016 20.8333984,41.6666016 C21.9849609,41.6666016 22.9167969,40.7347656 22.9167969,39.5832031 C22.9164063,38.4318359 21.9847656,37.5 20.8332031,37.5 Z" id="Path"></path>
        </g>
    </g>
</svg>