<?xml version="1.0" encoding="UTF-8"?>
<svg width="100px" height="100px" viewBox="0 0 100 100" version="1.1" xmlns="http://www.w3.org/2000/svg" xmlns:xlink="http://www.w3.org/1999/xlink">
    <title>ikona-motory</title>
    <g id="ikona-motory" stroke="none" stroke-width="1" fill="none" fill-rule="evenodd">
        <g id="gear" transform="translate(0.414938, 0.000000)" fill="#FFFFFF" fill-rule="nonzero">
            <path d="M69.7095436,40.0414938 C77.0423237,40.0414938 82.9875519,34.0962656 82.9875519,26.7634855 C82.9875519,19.4307054 77.0423237,13.4854772 69.7095436,13.4854772 C62.3767635,13.4854772 56.4315353,19.4307054 56.4315353,26.7634855 C56.439834,34.0929461 62.380083,40.033195 69.7095436,40.0414938 Z M69.7095436,16.8049793 C75.2099585,16.8049793 79.6680498,21.2630705 79.6680498,26.7634855 C79.6680498,32.2639004 75.2099585,36.7219917 69.7095436,36.7219917 C64.2091286,36.7219917 59.7510373,32.2639004 59.7510373,26.7634855 C59.7560166,21.26639 64.2124481,16.8099585 69.7095436,16.8049793 Z" id="Shape"></path>
            <polygon id="Path" points="68.0497925 6.84647303 71.3692946 6.84647303 71.3692946 10.1659751 68.0497925 10.1659751"></polygon>
            <polygon id="Path" points="68.0497925 43.3609959 71.3692946 43.3609959 71.3692946 46.6804979 68.0497925 46.6804979"></polygon>
            <polygon id="Path" points="86.3070539 25.1037344 89.626556 25.1037344 89.626556 28.4232365 86.3070539 28.4232365"></polygon>
            <polygon id="Path" points="49.7925311 25.1037344 53.1120332 25.1037344 53.1120332 28.4232365 49.7925311 28.4232365"></polygon>
            <path d="M69.7095436,31.7427386 C72.459751,31.7427386 74.6887967,29.5136929 74.6887967,26.7634855 C74.6887967,24.013278 72.459751,21.7842324 69.7095436,21.7842324 C66.9593361,21.7842324 64.7302905,24.013278 64.7302905,26.7634855 C64.7302905,29.5136929 66.9593361,31.7427386 69.7095436,31.7427386 Z M69.7095436,25.1037344 C70.6257261,25.1037344 71.3692946,25.8473029 71.3692946,26.7634855 C71.3692946,27.679668 70.6257261,28.4232365 69.7095436,28.4232365 C68.793361,28.4232365 68.0497925,27.679668 68.0497925,26.7634855 C68.0497925,25.8473029 68.793361,25.1037344 69.7095436,25.1037344 Z" id="Shape"></path>
            <path d="M86.3070539,81.5352697 C83.5568465,81.5352697 81.3278008,83.7643154 81.3278008,86.5145228 C81.3278008,89.2647303 83.5568465,91.4937759 86.3070539,91.4937759 C89.0572614,91.4937759 91.2863071,89.2647303 91.2863071,86.5145228 C91.2863071,83.7643154 89.0572614,81.5352697 86.3070539,81.5352697 Z M86.3070539,88.1742739 C85.3908714,88.1742739 84.6473029,87.4307054 84.6473029,86.5145228 C84.6473029,85.5983402 85.3908714,84.8547718 86.3070539,84.8547718 C87.2232365,84.8547718 87.966805,85.5983402 87.966805,86.5145228 C87.966805,87.4307054 87.2232365,88.1742739 86.3070539,88.1742739 Z" id="Shape" opacity="0.5"></path>
            <polygon id="Path" opacity="0.5" points="8.29875519 64.9377593 11.6182573 64.9377593 11.6182573 68.2572614 8.29875519 68.2572614"></polygon>
            <path d="M84.8547718,99.7128631 C85.3377593,99.7659751 85.8224066,99.7925311 86.3070539,99.7925311 C93.6365145,99.7842324 99.5767635,93.8439834 99.5850622,86.5145228 C99.5850622,86.073029 99.5618257,85.6348548 99.5186722,85.2049793 C99.5618257,85.0605809 99.5834025,84.9112033 99.5850622,84.760166 L96.2655602,26.6688797 C96.2240664,12.0099585 84.3087137,0.160995851 69.6497925,0.202380979 C61.3560166,0.225726141 53.5485477,4.12448133 48.5493776,10.7419087 L3.81742739,58.780083 C-0.504564315,62.1643154 -1.26473029,68.4099585 2.11950207,72.7319502 C3.42406639,74.3983402 5.22655602,75.6049793 7.26473029,76.1759336 C7.42738589,76.3136929 7.61327801,76.4182573 7.81576763,76.4846473 L81.8904564,99.0240664 L81.9037344,99.0240664 C82.2556017,99.1485477 82.6124481,99.2564315 82.9775934,99.3560166 L84.8547718,99.7128631 Z M10.3219917,56.6572614 L43.8688797,20.6406639 C40.4564315,34.8929461 49.2431535,49.213278 63.4954357,52.6273859 C75.659751,55.540249 88.2074689,49.5618257 93.6099585,38.2788382 L95.8390041,77.2829876 C90.7551867,72.013278 82.3618257,71.8622407 77.0921162,76.9460581 C72.6024896,81.2780083 71.7394191,88.1543568 75.0207469,93.4605809 L14.9676349,75.1900415 C19.7161826,72.4315353 21.3294606,66.346888 18.5709544,61.6 C16.853112,58.6439834 13.7377593,56.7767635 10.320332,56.6572614 L10.3219917,56.6572614 Z M69.7095436,3.52697095 C82.5427386,3.52697095 92.9460581,13.9302905 92.9460581,26.7634855 C92.9460581,39.5966805 82.5427386,50 69.7095436,50 C56.8763485,50 46.473029,39.5966805 46.473029,26.7634855 C46.473029,21.7360996 48.1029046,16.8431535 51.120332,12.8215768 C55.5120332,6.97427386 62.3966805,3.53029046 69.7095436,3.52697095 Z M3.31950207,66.5975104 C3.31950207,62.9311203 6.29211618,59.9585062 9.95850622,59.9585062 C13.6248963,59.9585062 16.5975104,62.9311203 16.5975104,66.5975104 C16.5975104,70.2639004 13.6248963,73.2365145 9.95850622,73.2365145 C6.29211618,73.2365145 3.31950207,70.2639004 3.31950207,66.5975104 Z M86.3070539,96.4730457 C85.8572614,96.4697095 85.4091286,96.4365145 84.9643154,96.3717842 L84.9427386,96.3717842 C84.5941909,96.33361 84.2506224,96.2672199 83.9136929,96.1726141 L83.9037344,96.1726141 C78.5925311,94.8348548 75.3709544,89.4439834 76.7087137,84.1311203 C78.046473,78.819917 83.4373444,75.5983402 88.7502075,76.9360996 C94.0614108,78.2738589 97.2829876,83.6647303 95.9452282,88.9775934 C94.833195,93.3908714 90.859751,96.4813278 86.3070539,96.4730457 L86.3070539,96.4730457 Z" id="Shape" opacity="0.5"></path>
            <path d="M28.2157676,54.9792531 C28.2157676,52.2290456 25.986722,50 23.2365145,50 C20.4863071,50 18.2572614,52.2290456 18.2572614,54.9792531 C18.2572614,57.7294606 20.4863071,59.9585062 23.2365145,59.9585062 C25.986722,59.9585062 28.2157676,57.7294606 28.2157676,54.9792531 Z M21.5767635,54.9792531 C21.5767635,54.0630705 22.320332,53.3195021 23.2365145,53.3195021 C24.1526971,53.3195021 24.8962656,54.0630705 24.8962656,54.9792531 C24.8962656,55.8954357 24.1526971,56.6390041 23.2365145,56.6390041 C22.320332,56.6390041 21.5767635,55.8954357 21.5767635,54.9792531 Z" id="Shape" opacity="0.5"></path>
            <path d="M64.7302905,86.5145228 C67.4804979,86.5145228 69.7095436,84.2854772 69.7095436,81.5352697 C69.7095436,78.7850622 67.4804979,76.5560166 64.7302905,76.5560166 C61.980083,76.5560166 59.7510373,78.7850622 59.7510373,81.5352697 C59.7510373,84.2854772 61.980083,86.5145228 64.7302905,86.5145228 Z M64.7302905,79.8755187 C65.646473,79.8755187 66.3900415,80.6190871 66.3900415,81.5352697 C66.3900415,82.4514523 65.646473,83.1950207 64.7302905,83.1950207 C63.8141079,83.1950207 63.0705394,82.4514523 63.0705394,81.5352697 C63.0705394,80.6190871 63.8141079,79.8755187 64.7302905,79.8755187 Z" id="Shape" opacity="0.5"></path>
        </g>
        <circle id="Oval" stroke="#FFFFFF" stroke-width="3" cx="70" cy="27" r="25.5"></circle>
    </g>
</svg>