<?xml version="1.0" encoding="UTF-8"?>
<svg width="100px" height="94px" viewBox="0 0 100 94" version="1.1" xmlns="http://www.w3.org/2000/svg" xmlns:xlink="http://www.w3.org/1999/xlink">
    <title>Group</title>
    <g id="icons" stroke="none" stroke-width="1" fill="none" fill-rule="evenodd">
        <g id="Artboard-Copy-4" transform="translate(-50.000000, -53.000000)" fill-rule="nonzero">
            <g id="Group" transform="translate(50.000000, 53.000000)">
                <g id="insurance" opacity="0.5">
                    <path d="M94.6100917,61.3433486 L86.6743119,57.7424312 L84.4036697,54.0727064 C93.2568807,48.4763761 98.6238532,38.7516055 98.6238532,28.2699541 L98.6238532,13.2011468 C98.6009174,12.3525229 98.1192661,11.5727064 97.3623853,11.1827982 L76.9724771,0.334174312 C76.2844037,-0.0327981651 75.4587156,-0.0327981651 74.793578,0.357110092 L55.0458716,11.1827982 C54.3119266,11.5956422 53.8761468,12.3525229 53.8990826,13.2011468 L53.8990826,28.5681193 C53.8761468,32.9259174 54.7706422,37.2607798 56.559633,41.2516055 L40.0229358,41.2516055 C36.4678899,41.2516055 33.0963303,42.9259174 30.9174312,45.7470183 L21.9036697,57.558945 L6.76605505,61.6873853 C2.77522936,62.765367 0.0229357798,66.3892202 0,70.5176606 L0,76.2974771 C0.0229357798,81.3662844 4.15137615,85.471789 9.22018349,85.5176606 L10.3211009,85.5176606 C12.0183486,91.6644495 18.3944954,95.265367 24.5412844,93.5451835 C28.440367,92.4672018 31.4908257,89.4167431 32.5688073,85.5176606 L66.2844037,85.5176606 C67.9816514,91.6644495 74.3577982,95.265367 80.5045872,93.5451835 C84.4036697,92.4672018 87.4541284,89.4167431 88.5321101,85.5176606 L90.7798165,85.5176606 C95.8486239,85.4947248 99.9770642,81.3892202 100,76.2974771 L100,69.6690367 C99.9770642,66.0681193 97.8669725,62.8341743 94.6100917,61.3433486 Z M58.4862385,14.5543578 L75.9862385,4.94426606 L94.0366972,14.5772936 L94.0366972,28.2699541 C94.0137615,38.7516055 87.7293578,48.178211 78.0733945,52.237844 C78.0733945,52.237844 78.0504587,52.237844 78.0275229,52.237844 L75.8256881,53.178211 L74.0366972,52.3754587 C64.587156,48.2240826 58.4862385,38.8892202 58.4862385,28.5451835 L58.4862385,14.5543578 L58.4862385,14.5543578 Z M21.4449541,89.3020642 C17.5917431,89.3020642 14.4954128,86.1827982 14.4954128,82.3525229 C14.4954128,78.4993119 17.6146789,75.4029817 21.4449541,75.4029817 C25.2981651,75.4029817 28.3944954,78.5222477 28.3944954,82.3525229 C28.3944954,86.1827982 25.2752294,89.2791284 21.4449541,89.3020642 Z M77.4082569,89.3020642 C73.5550459,89.3020642 70.4587156,86.1827982 70.4587156,82.3525229 C70.4587156,78.5222477 73.5779817,75.4029817 77.4082569,75.4029817 C81.2614679,75.4029817 84.3579238,78.5222477 84.3579238,82.3525229 C84.3807339,86.1827982 81.2614679,89.2791284 77.4082569,89.3020642 Z M95.4357798,76.2745413 L95.412844,76.2745413 C95.3899083,78.8204128 93.3256881,80.884633 90.7798165,80.9075688 L88.853211,80.9075688 C88.0275229,74.5772936 82.2477064,70.1277523 75.9174312,70.9534404 C70.733945,71.618578 66.6284404,75.7240826 65.9633028,80.9075688 L32.8899083,80.9075688 C32.0642202,74.5772936 26.2844037,70.1277523 19.9541284,70.9534404 C14.7706422,71.618578 10.6651376,75.7240826 10,80.9075688 L9.22018349,80.9075688 C6.67431193,80.884633 4.61009174,78.8204128 4.58715596,76.2745413 L4.58715596,70.4947248 C4.61009174,68.4305046 5.98623853,66.6415138 7.98165138,66.091055 L23.853211,61.7561927 C24.3348624,61.618578 24.7706422,61.3433486 25.0917431,60.9305046 L34.587156,48.4993119 C35.8944954,46.8020642 37.912844,45.8158257 40.0458716,45.8158257 L59.1743119,45.8158257 C62.4311927,50.5405963 66.9495413,54.2791284 72.2018349,56.5956422 L74.9541284,57.7883028 C75.5275229,58.0405963 76.1926606,58.0405963 76.7889908,57.7883028 L79.8853211,56.4580275 C80.0458716,56.3892202 80.206422,56.3204128 80.3440367,56.2516055 L83.1651376,60.7699541 C83.3944954,61.1598624 83.7385321,61.4580275 84.1513761,61.6415138 L92.7293578,65.5176606 C94.3577982,66.2516055 95.412844,67.8800459 95.4357798,69.6690367 L95.4357798,76.2745413 Z" id="Shape" fill="#FFFFFF"></path>
                    <path d="M87.293578,23.2240826 C86.4908257,22.237844 85.0688073,22.0772936 84.059633,22.8571101 L84.0366972,22.8800459 L73.3027523,31.618578 L69.4036697,27.0543578 C68.5779817,26.091055 67.1330275,25.9534404 66.1697248,26.7791284 C65.206422,27.6048165 65.0688073,29.0497706 65.8944954,30.0130734 L65.9174312,30.0360092 L71.2614679,36.2974771 C71.2844037,36.3433486 71.3073394,36.3662844 71.3302752,36.3892202 C71.353211,36.412156 71.3761468,36.4580275 71.4220183,36.4809633 C71.4449541,36.5038991 71.4908257,36.5497706 71.5137615,36.5727064 C71.5366972,36.5956422 71.5825688,36.618578 71.6055046,36.6415138 C71.6284404,36.6644495 71.6743119,36.6873853 71.7201835,36.7103211 C71.766055,36.7332569 71.7889908,36.7561927 71.8119266,36.7791284 C71.8577982,36.8020642 71.8807339,36.825 71.9266055,36.8479358 C71.9495413,36.8708716 71.9954128,36.8938073 72.0183486,36.8938073 C72.0642202,36.9167431 72.1100917,36.9396789 72.1559633,36.9396789 C72.1788991,36.9626147 72.2247706,36.9626147 72.2477064,36.9855505 C72.293578,37.0084862 72.3394495,37.0084862 72.3853211,37.031422 C72.4082569,37.031422 72.4541284,37.0543578 72.4770642,37.0543578 C72.5229358,37.0543578 72.5688073,37.0772936 72.6146789,37.0772936 C72.6376147,37.0772936 72.6834862,37.1002294 72.706422,37.1002294 C72.7752294,37.1002294 72.8211009,37.1002294 72.8899083,37.1002294 C72.912844,37.1002294 72.9357798,37.1002294 72.9587156,37.1002294 C73.0275229,37.1002294 73.0963303,37.1002294 73.1651376,37.1002294 C73.1880734,37.1002294 73.1880734,37.1002294 73.2110092,37.1002294 C73.2568807,37.1002294 73.3256881,37.0772936 73.3715596,37.0772936 C73.3944954,37.0772936 73.4174312,37.0772936 73.440367,37.0543578 C73.4862385,37.0543578 73.5321101,37.031422 73.5779817,37.031422 C73.6009174,37.031422 73.6238532,37.0084862 73.646789,37.0084862 C73.6926606,37.0084862 73.7155963,36.9855505 73.7614679,36.9626147 C73.7844037,36.9626147 73.8073394,36.9396789 73.853211,36.9396789 C73.8761468,36.9167431 73.9220183,36.9167431 73.9449541,36.8938073 C73.9678899,36.8708716 74.0137615,36.8708716 74.0366972,36.8479358 C74.059633,36.825 74.1055046,36.825 74.1284404,36.8020642 C74.1513761,36.7791284 74.1972477,36.7561927 74.2201835,36.7561927 C74.2431193,36.7561927 74.266055,36.7103211 74.3119266,36.7103211 C74.3348624,36.6873853 74.3577982,36.6644495 74.4036697,36.6415138 C74.4266055,36.618578 74.4495413,36.618578 74.4724771,36.5956422 L86.9266055,26.4580275 C87.912844,25.6552752 88.0733945,24.2332569 87.293578,23.2240826 Z" id="Path" fill="#000000"></path>
                </g>
                <g id="insurance-copy" transform="translate(53.000000, 0.000000)" fill="#FFFFFF">
                    <path d="M31.4036697,54.0727064 C40.2568807,48.4763761 45.6238532,38.7516055 45.6238532,28.2699541 L45.6238532,13.2011468 C45.6009174,12.3525229 45.1192661,11.5727064 44.3623853,11.1827982 L23.9724771,0.334174312 C23.2844037,-0.0327981651 22.4587156,-0.0327981651 21.793578,0.357110092 L2.04587156,11.1827982 C1.31192661,11.5956422 0.876146789,12.3525229 0.899082569,13.2011468 L0.899082569,28.5681193 C0.876146789,32.9259174 1.7706422,37.2607798 3.55963303,41.2516055 C8.01795261,48.3744393 11.7940033,52.6481397 14.8877852,54.0727064 C16.7288407,54.9204412 19.7124671,58.1612095 23.2614679,58 C24.8713875,57.9268712 27.5854548,56.6177733 31.4036697,54.0727064 Z M22.9862385,4.94426606 L41.0366972,14.5772936 L41.0366972,28.2699541 C41.0137615,38.7516055 34.7293578,48.178211 25.0733945,52.237844 C25.0733945,52.237844 25.0504587,52.237844 25.0275229,52.237844 L22.8256881,53.178211 L21.0366972,52.3754587 C11.587156,48.2240826 5.48623853,38.8892202 5.48623853,28.5451835 L5.48623853,14.5543578 L22.9862385,4.94426606 Z" id="Shape"></path>
                    <path d="M34.293578,23.2240826 C33.4908257,22.237844 32.0688073,22.0772936 31.059633,22.8571101 L31.0366972,22.8800459 L20.3027523,31.618578 L16.4036697,27.0543578 C15.5779817,26.091055 14.1330275,25.9534404 13.1697248,26.7791284 C12.206422,27.6048165 12.0688073,29.0497706 12.8944954,30.0130734 L12.9174312,30.0360092 L18.2614679,36.2974771 C18.2844037,36.3433486 18.3073394,36.3662844 18.3302752,36.3892202 C18.353211,36.412156 18.3761468,36.4580275 18.4220183,36.4809633 C18.4449541,36.5038991 18.4908257,36.5497706 18.5137615,36.5727064 C18.5366972,36.5956422 18.5825688,36.618578 18.6055046,36.6415138 C18.6284404,36.6644495 18.6743119,36.6873853 18.7201835,36.7103211 C18.766055,36.7332569 18.7889908,36.7561927 18.8119266,36.7791284 C18.8577982,36.8020642 18.8807339,36.825 18.9266055,36.8479358 C18.9495413,36.8708716 18.9954128,36.8938073 19.0183486,36.8938073 C19.0642202,36.9167431 19.1100917,36.9396789 19.1559633,36.9396789 C19.1788991,36.9626147 19.2247706,36.9626147 19.2477064,36.9855505 C19.293578,37.0084862 19.3394495,37.0084862 19.3853211,37.031422 C19.4082569,37.031422 19.4541284,37.0543578 19.4770642,37.0543578 C19.5229358,37.0543578 19.5688073,37.0772936 19.6146789,37.0772936 C19.6376147,37.0772936 19.6834862,37.1002294 19.706422,37.1002294 C19.7752294,37.1002294 19.8211009,37.1002294 19.8899083,37.1002294 C19.912844,37.1002294 19.9357798,37.1002294 19.9587156,37.1002294 C20.0275229,37.1002294 20.0963303,37.1002294 20.1651376,37.1002294 C20.1880734,37.1002294 20.1880734,37.1002294 20.2110092,37.1002294 C20.2568807,37.1002294 20.3256881,37.0772936 20.3715596,37.0772936 C20.3944954,37.0772936 20.4174312,37.0772936 20.440367,37.0543578 C20.4862385,37.0543578 20.5321101,37.031422 20.5779817,37.031422 C20.6009174,37.031422 20.6238532,37.0084862 20.646789,37.0084862 C20.6926606,37.0084862 20.7155963,36.9855505 20.7614679,36.9626147 C20.7844037,36.9626147 20.8073394,36.9396789 20.853211,36.9396789 C20.8761468,36.9167431 20.9220183,36.9167431 20.9449541,36.8938073 C20.9678899,36.8708716 21.0137615,36.8708716 21.0366972,36.8479358 C21.059633,36.825 21.1055046,36.825 21.1284404,36.8020642 C21.1513761,36.7791284 21.1972477,36.7561927 21.2201835,36.7561927 C21.2431193,36.7561927 21.266055,36.7103211 21.3119266,36.7103211 C21.3348624,36.6873853 21.3577982,36.6644495 21.4036697,36.6415138 C21.4266055,36.618578 21.4495413,36.618578 21.4724771,36.5956422 L33.9266055,26.4580275 C34.912844,25.6552752 35.0733945,24.2332569 34.293578,23.2240826 Z" id="Path"></path>
                </g>
            </g>
        </g>
    </g>
</svg>