<?xml version="1.0" encoding="UTF-8"?>
<svg width="70px" height="72px" viewBox="0 0 70 72" version="1.1" xmlns="http://www.w3.org/2000/svg" xmlns:xlink="http://www.w3.org/1999/xlink">
    <!-- Generator: Sketch 57.1 (83088) - https://sketch.com -->
    <title>percentage (1)</title>
    <desc>Created with Sketch.</desc>
    <g id="blanks" stroke="none" stroke-width="1" fill="none" fill-rule="evenodd">
        <g id="percentage-(1)" fill="#FFFFFF" fill-rule="nonzero">
            <circle id="Oval" cx="25.5446042" cy="29.5404375" r="2.975"></circle>
            <circle id="Oval" cx="44.4446042" cy="41.6154375" r="2.975"></circle>
            <path d="M68.9737708,39.5154375 L67.8946042,38.0425208 C66.7279375,36.4383542 66.6987708,34.2654375 67.8508542,32.6321042 L68.9008542,31.1446042 C70.5050208,28.8696042 69.7612708,25.7050208 67.2966875,24.3779375 L65.6925208,23.5175208 C63.9425208,22.5841875 62.9800208,20.6300208 63.3154375,18.6612708 L63.6216875,16.8675208 C64.0883542,14.1258542 62.0321042,11.5883542 59.2466875,11.4716875 L57.4237708,11.3987708 C55.4404375,11.3112708 53.7196042,9.96960417 53.1654375,8.0591875 L52.6550208,6.3091875 C51.8821042,3.62585417 48.9362708,2.2404375 46.3696042,3.34877083 L44.6925208,4.06335417 C42.8696042,4.85085417 40.7404375,4.3841875 39.4133542,2.8966875 L38.2029375,1.5404375 C36.3508542,-0.530395833 33.0987708,-0.5158125 31.2612708,1.59877083 L30.0654375,2.96960417 C28.7529375,4.4716875 26.6383542,4.96752083 24.8008542,4.2091875 L23.1091875,3.5091875 C20.5279375,2.44460417 17.6112708,3.88835417 16.8675208,6.5716875 L16.3862708,8.33627083 C15.8612708,10.2612708 14.1696042,11.6321042 12.1862708,11.7341875 L10.3633542,11.8362708 C7.5779375,11.9966875 5.5654375,14.5633542 6.07585417,17.3050208 L6.41127083,19.0987708 C6.77585417,21.0529375 5.84252083,23.0216875 4.10710417,23.9841875 L2.51752083,24.8737708 C0.0821041667,26.2300208 -0.617895833,29.4091875 1.03002083,31.6550208 L2.1091875,33.1279375 C3.27585417,34.7321042 3.30502083,36.9050208 2.1529375,38.5383542 L1.1029375,40.0258542 C-0.501229167,42.3008542 0.242520833,45.4654375 2.70710417,46.7925208 L4.31127083,47.6529375 C6.06127083,48.5862708 7.02377083,50.5404375 6.68835417,52.5091875 L6.38210417,54.3029375 C5.9154375,57.0446042 7.9716875,59.5821042 10.7571042,59.6987708 L12.5800208,59.7716875 C14.5633542,59.8591875 16.2841875,61.2008542 16.8383542,63.1112708 L17.3487708,64.8612708 C18.1216875,67.5446042 21.0675208,68.9300208 23.6341875,67.8216875 L25.3112708,67.1071042 C27.1341875,66.3196042 29.2633542,66.7862708 30.5904375,68.2737708 L31.8008542,69.6300208 C33.6675208,71.7008542 36.9196042,71.6862708 38.7425208,69.5716875 L39.9383542,68.2008542 C41.2508542,66.6987708 43.3654375,66.2029375 45.2029375,66.9612708 L46.8946042,67.6612708 C49.4758542,68.7258542 52.3925208,67.2821042 53.1362708,64.5987708 L53.6175208,62.8341875 C54.1425208,60.9091875 55.8341875,59.5383542 57.8175208,59.4362708 L59.6404375,59.3341875 C62.4258542,59.1737708 64.4383542,56.6071042 63.9279375,53.8654375 L63.5925208,52.0716875 C63.2279375,50.1175208 64.1612708,48.1487708 65.8966875,47.1862708 L67.4862708,46.2966875 C69.9216875,44.9550208 70.6216875,41.7758542 68.9737708,39.5154375 Z M18.3550208,29.5404375 C18.3550208,25.5737708 21.5633542,22.3654375 25.5300208,22.3654375 C29.4966875,22.3654375 32.7050208,25.5737708 32.7050208,29.5404375 C32.7050208,33.5071042 29.4966875,36.7154375 25.5300208,36.7154375 C21.5633542,36.7154375 18.3550208,33.4925208 18.3550208,29.5404375 Z M26.9154375,48.0466875 C26.3029375,48.7904375 25.1946042,48.8925208 24.4508542,48.2800208 L24.4508542,48.2800208 C23.7071042,47.6675208 23.6050208,46.5591875 24.2175208,45.8154375 L43.0446042,23.1383542 C43.6571042,22.3946042 44.7654375,22.2925208 45.5091875,22.9050208 C46.2529375,23.5175208 46.3550208,24.6258542 45.7425208,25.3696042 L26.9154375,48.0466875 Z M44.4446042,48.7904375 C40.4779375,48.7904375 37.2696042,45.5821042 37.2696042,41.6154375 C37.2696042,37.6487708 40.4779375,34.4404375 44.4446042,34.4404375 C48.4112708,34.4404375 51.6196042,37.6487708 51.6196042,41.6154375 C51.6196042,45.5821042 48.4112708,48.7904375 44.4446042,48.7904375 Z" id="Shape"></path>
        </g>
    </g>
</svg>