<?xml version="1.0" encoding="UTF-8"?>
<svg width="100px" height="100px" viewBox="0 0 100 100" version="1.1" xmlns="http://www.w3.org/2000/svg" xmlns:xlink="http://www.w3.org/1999/xlink">
    <title>Group</title>
    <g id="icons" stroke="none" stroke-width="1" fill="none" fill-rule="evenodd">
        <g id="Artboard-Copy-5" transform="translate(-50.000000, -50.000000)">
            <g id="Group" transform="translate(50.000000, 50.000000)">
                <g id="clutch-disc" fill="#FFFFFF" fill-rule="nonzero">
                    <path d="M85.3554688,14.6445312 C75.9115234,5.20097656 63.3554687,0 50,0 C36.6445312,0 24.0884766,5.20097656 14.6445312,14.6445312 C5.20097656,24.0884766 -1.11022302e-14,36.6445312 -1.11022302e-14,50 C-1.11022302e-14,63.3554688 5.20097656,75.9115234 14.6445312,85.3554688 C24.0884766,94.7990234 36.6445312,100 50,100 C63.3554687,100 75.9115234,94.7990234 85.3554688,85.3554688 C94.7990234,75.9115234 100,63.3554688 100,50 C100,36.6445312 94.7990234,24.0884766 85.3554688,14.6445312 Z M96.6417969,56.3730469 L78.0974609,48.9982422 C77.9570313,45.0082031 76.9832031,41.2263672 75.3417969,37.8240234 L94.6408203,35.0041016 C96.2382813,39.7740234 97.0703125,44.8228516 97.0703125,50 C97.0703125,52.1501953 96.9236328,54.2777344 96.6417969,56.3730469 L96.6417969,56.3730469 Z M50,75.1875 C36.1115234,75.1875 24.8125,63.8884766 24.8125,50 C24.8125,48.6197266 24.925,47.2347656 25.1466797,45.8837891 C25.2777344,45.0855469 24.7367187,44.3320312 23.9384766,44.2009766 C23.1394531,44.0703125 22.3867187,44.6109375 22.2556641,45.4091797 C22.1222656,46.221875 22.0255859,47.0455078 21.9636719,47.8730469 L3.84960937,40.6695312 C5.27070312,33.5652344 8.31308594,26.9132812 12.7925781,21.1585937 L25.1628906,36.8150391 C24.7089844,37.6707031 24.2953125,38.5511719 23.9291016,39.4566406 C23.6257812,40.2066406 23.9876953,41.0605469 24.7376953,41.3638672 C25.4875,41.6675781 26.3414062,41.3052734 26.6449219,40.5552734 C28.5042969,35.9589844 31.6560547,32.0398438 35.7597656,29.2214844 C39.9595703,26.3371094 44.8837891,24.8125 49.9998047,24.8125 C63.8882812,24.8125 75.1873047,36.1115234 75.1873047,50 C75.1873047,63.8884766 63.8884766,75.1875 50,75.1875 L50,75.1875 Z M47.8728516,78.0371094 L40.6695312,96.1501953 C33.5652344,94.7291016 26.9132812,91.6867187 21.1585937,87.2072266 L36.8220703,74.83125 C40.1638672,76.6119141 43.9042969,77.7388672 47.8728516,78.0371094 Z M52.1271484,21.9628906 L59.3304687,3.84980469 C66.4347656,5.27089844 73.0867188,8.31328125 78.8414062,12.7927734 L63.1779297,25.16875 C59.8361328,23.3880859 56.0957031,22.2611328 52.1271484,21.9628906 L52.1271484,21.9628906 Z M93.5982422,32.1957031 L73.8244141,35.0849609 C71.7628906,31.8039062 69.0435547,28.9767578 65.8517578,26.7898437 L81.1435547,14.7074219 C81.8734375,15.3533203 82.5884766,16.0210937 83.2837891,16.7162109 C87.7861328,21.21875 91.2619141,26.4732422 93.5982422,32.1957031 Z M56.3730469,3.35820312 L48.9986328,21.9013672 C45.0916016,22.0380859 41.3023437,22.9740234 37.8226562,24.6496094 L35.0041016,5.35878906 C39.7740234,3.76171875 44.8228516,2.9296875 50,2.9296875 C52.1501953,2.9296875 54.2777344,3.07636719 56.3730469,3.35820312 Z M32.1957031,6.40175781 L35.0832031,26.1638672 C34.7525391,26.3714844 34.4246094,26.584375 34.1013672,26.8064453 C31.203125,28.796875 28.7318359,31.2810547 26.7806641,34.1365234 L14.7074219,18.8564453 C15.3533203,18.1265625 16.0210937,17.4115234 16.7162109,16.7162109 C21.2185547,12.2138672 26.4732422,8.73808594 32.1957031,6.40175781 Z M3.35820312,43.6269531 L21.9025391,51.0017578 C22.0429688,54.9917969 23.0167969,58.7736328 24.6582031,62.1759766 L5.35917969,64.9958984 C3.76171875,60.2259766 2.9296875,55.1771484 2.9296875,50 C2.9296875,47.8498047 3.07636719,45.7222656 3.35820312,43.6269531 L3.35820312,43.6269531 Z M6.40175781,67.8042969 L26.1755859,64.9150391 C28.2371094,68.1960937 30.9564453,71.0232422 34.1482422,73.2101562 L18.8564453,85.2925781 C18.1265625,84.6466797 17.4115234,83.9789062 16.7162109,83.2837891 C12.2138672,78.78125 8.73808594,73.5267578 6.40175781,67.8042969 Z M43.6269531,96.6417969 L51.0017578,78.0974609 C54.9917969,77.9570312 58.7736328,76.9832031 62.1759766,75.3417969 L64.9958984,94.6410156 C60.2259766,96.2382812 55.1771484,97.0703125 50,97.0703125 C47.8498047,97.0703125 45.7222656,96.9236328 43.6269531,96.6417969 Z M67.8042969,93.5982422 L64.9150391,73.8242187 C68.1962891,71.7626953 71.0234375,69.0431641 73.2103516,65.8511719 L79.0458984,73.2361328 C79.3349609,73.6021484 79.7634766,73.7929687 80.1962891,73.7929687 C80.5142578,73.7929687 80.8347656,73.6898437 81.1035156,73.4773437 C81.7382812,72.9757812 81.8462891,72.0544922 81.3447266,71.4197266 L74.8316406,63.1773437 C76.6121094,59.8357422 77.7388672,56.0953125 78.0371094,52.1269531 L96.1503906,59.3302734 C94.7292969,66.4347656 91.6867187,73.0869141 87.2070312,78.8414062 L84.9734375,76.0152344 C84.471875,75.3804687 83.5507812,75.2728516 82.9158203,75.7742187 C82.2810547,76.2757812 82.1732422,77.1970703 82.6748047,77.8318359 L85.2919922,81.1435547 C84.6462891,81.8734375 83.9785156,82.5882812 83.2833984,83.2833984 C78.7814453,87.7861328 73.5267578,91.2619141 67.8042969,93.5982422 L67.8042969,93.5982422 Z" id="Shape" opacity="0.5"></path>
                    <path d="M50,41.1921875 C45.1433594,41.1921875 41.1921875,45.1433594 41.1921875,50 C41.1921875,54.8566406 45.1433594,58.8078125 50,58.8078125 C54.8566406,58.8078125 58.8078125,54.8566406 58.8078125,50 C58.8078125,45.1433594 54.8566406,41.1921875 50,41.1921875 Z M50,55.878125 C46.7587891,55.878125 44.121875,53.2412109 44.121875,50 C44.121875,46.7587891 46.7587891,44.121875 50,44.121875 C53.2412109,44.121875 55.878125,46.7587891 55.878125,50 C55.878125,53.2412109 53.2412109,55.878125 50,55.878125 Z" id="Shape"></path>
                    <path d="M45.9730469,36.9392578 C46.7820313,36.9392578 47.4378906,36.2833984 47.4378906,35.4744141 L47.4378906,31.0578125 C47.4378906,30.2488281 46.7820313,29.5929687 45.9730469,29.5929687 C45.1640625,29.5929687 44.5082031,30.2488281 44.5082031,31.0578125 L44.5082031,35.4744141 C44.5082031,36.2833984 45.1640625,36.9392578 45.9730469,36.9392578 Z" id="Path"></path>
                    <path d="M50,36.9392578 C50.8089844,36.9392578 51.4648438,36.2833984 51.4648438,35.4744141 L51.4648438,31.0578125 C51.4648438,30.2488281 50.8089844,29.5929687 50,29.5929687 C49.1910156,29.5929687 48.5351562,30.2488281 48.5351562,31.0578125 L48.5351562,35.4744141 C48.5351562,36.2833984 49.1910156,36.9392578 50,36.9392578 Z" id="Path"></path>
                    <path d="M54.0269531,36.9392578 C54.8359375,36.9392578 55.4917969,36.2833984 55.4917969,35.4744141 L55.4917969,31.0578125 C55.4917969,30.2488281 54.8359375,29.5929687 54.0269531,29.5929687 C53.2179687,29.5929687 52.5621094,30.2488281 52.5621094,31.0578125 L52.5621094,35.4744141 C52.5621094,36.2833984 53.2179687,36.9392578 54.0269531,36.9392578 Z" id="Path"></path>
                    <path d="M45.9730469,63.0607422 C45.1640625,63.0607422 44.5082031,63.7166016 44.5082031,64.5255859 L44.5082031,68.9421875 C44.5082031,69.7511719 45.1640625,70.4070313 45.9730469,70.4070313 C46.7820313,70.4070313 47.4378906,69.7511719 47.4378906,68.9421875 L47.4378906,64.5255859 C47.4378906,63.7166016 46.7820313,63.0607422 45.9730469,63.0607422 Z" id="Path"></path>
                    <path d="M50,63.0607422 C49.1910156,63.0607422 48.5351562,63.7166016 48.5351562,64.5255859 L48.5351562,68.9421875 C48.5351562,69.7511719 49.1910156,70.4070313 50,70.4070313 C50.8089844,70.4070313 51.4648438,69.7511719 51.4648438,68.9421875 L51.4648438,64.5255859 C51.4648438,63.7166016 50.8089844,63.0607422 50,63.0607422 Z" id="Path"></path>
                    <path d="M54.0269531,63.0607422 C53.2179687,63.0607422 52.5621094,63.7166016 52.5621094,64.5255859 L52.5621094,68.9421875 C52.5621094,69.7511719 53.2179687,70.4070313 54.0269531,70.4070313 C54.8359375,70.4070313 55.4917969,69.7511719 55.4917969,68.9421875 L55.4917969,64.5255859 C55.4917969,63.7166016 54.8359375,63.0607422 54.0269531,63.0607422 Z" id="Path"></path>
                    <path d="M30.8498047,45.2847656 L34.6746094,47.4931641 C34.9052734,47.6263672 35.1572266,47.6896484 35.4056641,47.6896484 C35.9119141,47.6896484 36.4042969,47.4269531 36.6755859,46.9570312 C37.0800781,46.2564453 36.8400391,45.3605469 36.1394531,44.9560547 L32.3146484,42.7476562 C31.6138672,42.3429687 30.7181641,42.5832031 30.3136719,43.2837891 C29.9089844,43.984375 30.1490234,44.8802734 30.8498047,45.2847656 Z" id="Path"></path>
                    <path d="M32.8630859,41.7974609 L36.6878906,44.0058594 C36.9185547,44.1390625 37.1705078,44.2023437 37.4189453,44.2023437 C37.9251953,44.2023437 38.4175781,43.9396484 38.6888672,43.4697266 C39.0933594,42.7691406 38.8533203,41.8732422 38.1527344,41.46875 L34.3279297,39.2603516 C33.6271484,38.8554687 32.73125,39.0957031 32.3269531,39.7964844 C31.9224609,40.4970703 32.1625,41.3929687 32.8630859,41.7974609 Z" id="Path"></path>
                    <path d="M40.1662109,37.98125 L36.3414063,35.7730469 C35.6408203,35.3681641 34.7449219,35.6085937 34.3404297,36.3091797 C33.9359375,37.0097656 34.1759766,37.9056641 34.8765625,38.3101562 L38.7013672,40.5183594 C38.9320313,40.6515625 39.1839844,40.7148438 39.4324219,40.7148438 C39.9386719,40.7148438 40.4310547,40.4519531 40.7023438,39.9822266 C41.1070313,39.2816406 40.8669922,38.3857422 40.1662109,37.98125 Z" id="Path"></path>
                    <path d="M65.1234375,61.6898437 L61.2986328,59.4816406 C60.5980469,59.0769531 59.7021484,59.3171875 59.2976563,60.0177734 C58.8931641,60.7183594 59.1332031,61.6142578 59.8337891,62.01875 L63.6585938,64.2269531 C63.8892578,64.3601563 64.1412109,64.4234375 64.3896484,64.4234375 C64.8958984,64.4234375 65.3882813,64.1605469 65.6595703,63.6908203 C66.0640625,62.9902344 65.8240234,62.0943359 65.1234375,61.6898437 Z" id="Path"></path>
                    <path d="M67.1369141,58.2025391 L63.3121094,55.9941406 C62.6115234,55.5892578 61.715625,55.8294922 61.3111328,56.5302734 C60.9066406,57.2308594 61.1466797,58.1267578 61.8472656,58.53125 L65.6720703,60.7396484 C65.9027344,60.8728516 66.1546875,60.9361328 66.403125,60.9361328 C66.909375,60.9361328 67.4017578,60.6734375 67.6730469,60.2035156 C68.0775391,59.5029297 67.8375,58.6070313 67.1369141,58.2025391 Z" id="Path"></path>
                    <path d="M69.1501953,54.7152344 L65.3253906,52.5068359 C64.6246094,52.1021484 63.7287109,52.3421875 63.3244141,53.0429687 C62.9199219,53.7435547 63.1599609,54.6394531 63.8605469,55.0439453 L67.6853516,57.2523438 C67.9160156,57.3855469 68.1679688,57.4488281 68.4164062,57.4488281 C68.9226562,57.4488281 69.4150391,57.1861328 69.6863281,56.7162109 C70.0910156,56.015625 69.8509766,55.1197266 69.1501953,54.7152344 Z" id="Path"></path>
                    <path d="M38.7013672,59.4816406 L34.8765625,61.6898437 C34.1759766,62.0943359 33.9359375,62.9902344 34.3404297,63.6908203 C34.6117188,64.1607422 35.1041016,64.4234375 35.6103516,64.4234375 C35.8587891,64.4234375 36.1107422,64.3601562 36.3414063,64.2269531 L40.1662109,62.01875 C40.8667969,61.6142578 41.1068359,60.7183594 40.7023438,60.0177734 C40.2978516,59.3171875 39.4019531,59.0771484 38.7013672,59.4816406 Z" id="Path"></path>
                    <path d="M38.1529297,58.5314453 C38.8535156,58.1269531 39.0935547,57.2310547 38.6890625,56.5304687 C38.284375,55.8298828 37.3884766,55.5896484 36.6880859,55.9943359 L32.8632812,58.2027344 C32.1626953,58.6072266 31.9226562,59.503125 32.3271484,60.2037109 C32.5984375,60.6736328 33.0908203,60.9363281 33.5970703,60.9363281 C33.8455078,60.9363281 34.0974609,60.8730469 34.328125,60.7398437 L38.1529297,58.5314453 Z" id="Path"></path>
                    <path d="M36.1394531,55.0439453 C36.8400391,54.6394531 37.0800781,53.7435547 36.6755859,53.0429688 C36.2710938,52.3423828 35.3748047,52.1025391 34.6746094,52.5068359 L30.8498047,54.7152344 C30.1492188,55.1197266 29.9091797,56.015625 30.3136719,56.7162109 C30.5849609,57.1861328 31.0773438,57.4488281 31.5835938,57.4488281 C31.8320313,57.4488281 32.0841797,57.3853516 32.3146484,57.2523438 L36.1394531,55.0439453 Z" id="Path"></path>
                    <path d="M63.8605469,44.9560547 C63.1599609,45.3605469 62.9199219,46.2564453 63.3244141,46.9570312 C63.5957031,47.4269531 64.0880859,47.6896484 64.5943359,47.6896484 C64.8427734,47.6896484 65.0949219,47.6261719 65.3253906,47.4931641 L69.1501953,45.2847656 C69.8507812,44.8802734 70.0908203,43.984375 69.6863281,43.2837891 C69.2818359,42.5832031 68.3857422,42.3433594 67.6853516,42.7476562 L63.8605469,44.9560547 Z" id="Path"></path>
                    <path d="M61.8470703,41.4685547 C61.1464844,41.8730469 60.9064453,42.7689453 61.3109375,43.4695312 C61.5822266,43.9394531 62.0746094,44.2021484 62.5808594,44.2021484 C62.8292969,44.2021484 63.08125,44.1388672 63.3119141,44.0056641 L67.1367188,41.7972656 C67.8373047,41.3927734 68.0773437,40.496875 67.6728516,39.7962891 C67.2683594,39.0957031 66.3724609,38.8554687 65.671875,39.2601562 L61.8470703,41.4685547 Z" id="Path"></path>
                    <path d="M60.5673828,40.7148438 C60.8158203,40.7148438 61.0677734,40.6515625 61.2984375,40.5183594 L65.1232422,38.3101562 C65.8238281,37.9056641 66.0638672,37.0097656 65.659375,36.3091797 C65.2548828,35.6085937 64.3587891,35.3683594 63.6583984,35.7730469 L59.8335938,37.98125 C59.1330078,38.3857422 58.8929688,39.2816406 59.2974609,39.9822266 C59.5689453,40.4521484 60.0613281,40.7148438 60.5673828,40.7148438 L60.5673828,40.7148438 Z" id="Path"></path>
                    <path d="M44.3494141,16.7818359 C46.76875,16.7818359 48.7369141,14.8134766 48.7369141,12.3943359 C48.7369141,9.97519531 46.7685547,8.00683594 44.3494141,8.00683594 C41.9302734,8.00683594 39.9619141,9.975 39.9619141,12.3943359 C39.9619141,14.8136719 41.9300781,16.7818359 44.3494141,16.7818359 Z M44.3494141,10.9365234 C45.1533203,10.9365234 45.8072266,11.5904297 45.8072266,12.3943359 C45.8072266,13.1982422 45.153125,13.8521484 44.3494141,13.8521484 C43.5457031,13.8521484 42.8916016,13.1980469 42.8916016,12.3943359 C42.8916016,11.590625 43.5455078,10.9365234 44.3494141,10.9365234 Z" id="Shape"></path>
                    <path d="M55.6505859,83.2181641 C53.23125,83.2181641 51.2630859,85.1865234 51.2630859,87.6056641 C51.2630859,90.0248047 53.2314453,91.9931641 55.6505859,91.9931641 C58.0697266,91.9931641 60.0380859,90.025 60.0380859,87.6056641 C60.0380859,85.1863281 58.0699219,83.2181641 55.6505859,83.2181641 Z M55.6505859,89.0634766 C54.8466797,89.0634766 54.1927734,88.4095703 54.1927734,87.6056641 C54.1927734,86.8017578 54.846875,86.1478516 55.6505859,86.1478516 C56.4542969,86.1478516 57.1083984,86.8019531 57.1083984,87.6056641 C57.1083984,88.409375 56.4544922,89.0634766 55.6505859,89.0634766 Z" id="Shape"></path>
                    <path d="M68.1474609,13.4716797 C67.8441406,12.3396484 67.1179688,11.3933594 66.103125,10.8074219 C64.0080078,9.59765625 61.3191406,10.3181641 60.1095703,12.4134766 C58.9,14.5085937 59.6205078,17.1972656 61.715625,18.4070312 C62.4048828,18.8050781 63.1580078,18.9939453 63.9019531,18.9939453 C65.4195313,18.9939453 66.8972656,18.2068359 67.7091797,16.8009766 C68.2951172,15.7861328 68.4507813,14.6037109 68.1474609,13.4716797 L68.1474609,13.4716797 Z M65.171875,15.3361328 C64.9771484,15.6734375 64.6626953,15.9146484 64.2865234,16.0154297 C63.9105469,16.1166016 63.5175781,16.0646484 63.1802734,15.8697266 C62.4841797,15.4677734 62.2447266,14.5744141 62.6466797,13.878125 C62.9164062,13.4109375 63.4076172,13.1494141 63.9119141,13.1494141 C64.1589844,13.1494141 64.409375,13.2123047 64.6382813,13.3445312 C64.9755859,13.5392578 65.2167969,13.8537109 65.3175781,14.2298828 C65.4183594,14.6060547 65.3666016,14.9988281 65.171875,15.3361328 Z" id="Shape"></path>
                    <path d="M31.8525391,86.5283203 C32.1558594,87.6603516 32.8820312,88.6066406 33.896875,89.1925781 C34.5861328,89.590625 35.3392578,89.7794922 36.0832031,89.7794922 C37.6005859,89.7794922 39.0787109,88.9925781 39.8904297,87.5865234 C41.1,85.4914063 40.3794922,82.8027344 38.284375,81.5929687 C36.1894531,80.3833984 33.5005859,81.1037109 32.2908203,83.1990234 C31.7048828,84.2138672 31.5492187,85.3962891 31.8525391,86.5283203 L31.8525391,86.5283203 Z M34.828125,84.6638672 C35.0228516,84.3265625 35.3373047,84.0853516 35.7134766,83.9845703 C35.8390625,83.9509766 35.9666016,83.934375 36.0931641,83.934375 C36.3457031,83.934375 36.5951172,84.0005859 36.8197266,84.1302734 C37.5158203,84.5322266 37.7552734,85.4255859 37.3533203,86.121875 C36.9513672,86.8177734 36.0582031,87.0576172 35.3617187,86.6554687 C35.0244141,86.4607422 34.7832031,86.1462891 34.6824219,85.7701172 C34.5816406,85.3939453 34.6333984,85.0011719 34.828125,84.6638672 L34.828125,84.6638672 Z" id="Shape"></path>
                    <path d="M87.6056641,39.9617188 C85.1863281,39.9617188 83.2181641,41.9300781 83.2181641,44.3492188 C83.2181641,46.7683594 85.1863281,48.7367188 87.6056641,48.7367188 C90.025,48.7367188 91.9931641,46.7683594 91.9931641,44.3492188 C91.9931641,41.9300781 90.025,39.9617188 87.6056641,39.9617188 Z M87.6056641,45.8072266 C86.8017578,45.8072266 86.1478516,45.153125 86.1478516,44.3494141 C86.1478516,43.5457031 86.8017578,42.8916016 87.6056641,42.8916016 C88.4095703,42.8916016 89.0634766,43.5457031 89.0634766,44.3494141 C89.0634766,45.153125 88.4095703,45.8072266 87.6056641,45.8072266 Z" id="Shape"></path>
                    <path d="M12.3941406,60.0382813 C14.8134766,60.0382813 16.7816406,58.0699219 16.7816406,55.6507813 C16.7816406,53.2316406 14.8132812,51.2632813 12.3941406,51.2632813 C9.975,51.2632813 8.00664062,53.2316406 8.00664062,55.6507813 C8.00664062,58.0699219 9.975,60.0382813 12.3941406,60.0382813 Z M12.3941406,54.1927734 C13.1980469,54.1927734 13.8519531,54.846875 13.8519531,55.6505859 C13.8519531,56.4542969 13.1978516,57.1083984 12.3941406,57.1083984 C11.5904297,57.1083984 10.9363281,56.4542969 10.9363281,55.6505859 C10.9363281,54.846875 11.5904297,54.1927734 12.3941406,54.1927734 Z" id="Shape"></path>
                    <path d="M85.3855469,68.2988281 C85.7667969,68.2988281 86.1503906,68.2486328 86.5283203,68.1474609 C87.6603516,67.8441406 88.6066406,67.1179687 89.1925781,66.103125 C90.4021484,64.0080078 89.6816406,61.3193359 87.5865234,60.1095703 C85.4917969,58.9 82.8027344,59.6205078 81.5929687,61.715625 C80.3832031,63.8107422 81.1037109,66.4994141 83.1990234,67.7091797 C83.875,68.0994141 84.6253906,68.2988281 85.3855469,68.2988281 L85.3855469,68.2988281 Z M84.1302734,63.1802734 C84.4,62.7130859 84.8912109,62.4515625 85.3955078,62.4515625 C85.6425781,62.4515625 85.8929688,62.5144531 86.121875,62.6466797 C86.8179688,63.0486328 87.0574219,63.9419922 86.6554687,64.6382812 C86.4607422,64.9755859 86.1462891,65.2167969 85.7701172,65.3175781 C85.3943359,65.4185547 85.0011719,65.3667969 84.6638672,65.171875 C84.3265625,64.9771484 84.0853516,64.6626953 83.9845703,64.2865234 C83.8837891,63.9103516 83.9355469,63.5175781 84.1302734,63.1802734 L84.1302734,63.1802734 Z" id="Shape"></path>
                    <path d="M16.8009766,32.2910156 C15.7861328,31.7050781 14.6037109,31.5496094 13.4716797,31.8527344 C12.3396484,32.1560547 11.3933594,32.8822266 10.8074219,33.8970703 C9.59785156,35.9921875 10.3183594,38.6808594 12.4134766,39.890625 C13.1027344,40.2886719 13.8558594,40.4775391 14.5998047,40.4775391 C16.1171875,40.4775391 17.5953125,39.690625 18.4070312,38.2845703 C19.6166016,36.1894531 18.8962891,33.5005859 16.8009766,32.2910156 L16.8009766,32.2910156 Z M15.8697266,36.8197266 C15.4675781,37.5158203 14.5744141,37.7550781 13.878125,37.3533203 C13.1822266,36.9511719 12.9425781,36.0578125 13.3445313,35.3617188 C13.5392578,35.0244141 13.8537109,34.7832031 14.2298828,34.6824219 C14.6060547,34.5818359 14.9990234,34.6333984 15.3361328,34.828125 C15.6732422,35.0228516 15.9146484,35.3373047 16.0154297,35.7134766 C16.1162109,36.0896484 16.0644531,36.4824219 15.8697266,36.8197266 L15.8697266,36.8197266 Z" id="Shape"></path>
                </g>
                <circle id="Oval" stroke="#FFFFFF" stroke-width="2.7" cx="50" cy="50" r="26.65"></circle>
            </g>
        </g>
    </g>
</svg>