<?xml version="1.0" encoding="UTF-8"?>
<svg width="100px" height="100px" viewBox="0 0 100 100" version="1.1" xmlns="http://www.w3.org/2000/svg" xmlns:xlink="http://www.w3.org/1999/xlink">
    <title>Group</title>
    <g id="icons" stroke="none" stroke-width="1" fill="none" fill-rule="evenodd">
        <g id="Artboard-Copy" transform="translate(-50.000000, -50.000000)" fill="#FFFFFF" fill-rule="nonzero">
            <g id="Group" transform="translate(50.000037, 49.999984)">
                <path d="M94.1375,38.4246187 C92.575,36.5935625 91.09795,34.8632187 90.4296125,33.2549437 C89.7094,31.5184937 89.5110313,29.1655875 89.2974125,26.6753812 C88.9464606,22.5310937 88.5466813,17.8344437 85.3545438,14.6453812 C82.1654563,11.4532437 77.4687938,11.0534625 73.3275438,10.7025125 C70.8342563,10.4888894 68.48135,10.290525 66.7449188,9.5703125 C65.1366438,8.901975 63.4062938,7.424925 61.5752438,5.862425 C58.3556375,3.11584375 54.7088063,-1.42108547e-14 49.9999313,-1.42108547e-14 C45.2910688,-1.42108547e-14 41.6442438,3.11584375 38.4246188,5.862425 C36.5935625,7.424925 34.8632188,8.901975 33.2549438,9.5703125 C31.5184938,10.290525 29.1655875,10.4888937 26.6753813,10.7025125 C22.5310938,11.053465 17.8344438,11.4532437 14.6453813,14.6453812 C11.4532438,17.8344687 11.0534625,22.5311312 10.7025125,26.6723812 C10.48889,29.1656687 10.2905256,31.518575 9.5703125,33.2550062 C8.901975,34.8632812 7.424925,36.5936312 5.862425,38.4246812 C3.11584375,41.6442875 4.97379915e-14,45.2911187 4.97379915e-14,50 C4.97379915e-14,54.7088562 3.11584375,58.3556812 5.862425,61.5753062 C7.424925,63.4063625 8.901975,65.1367063 9.5703125,66.7449812 C10.290525,68.4814312 10.4888938,70.8343375 10.7025125,73.3245437 C11.0534644,77.4688312 11.4532438,82.1654812 14.6453813,85.3545437 C17.8344688,88.5466812 22.5311313,88.9464625 26.6723813,89.2974125 C29.1656688,89.5110356 31.518575,89.7094 33.2550063,90.4296125 C34.8632813,91.09795 36.5936313,92.575 38.4246813,94.1375 C41.6442875,96.8840812 45.2911188,99.999925 50,99.999925 C54.7088563,99.999925 58.3556813,96.8840812 61.5753063,94.1375 C63.4063625,92.575 65.1367063,91.09795 66.7449813,90.4296125 C68.4814313,89.7094 70.8343375,89.5110312 73.3245438,89.2974125 C77.4688313,88.9464606 82.1654813,88.5466812 85.3545438,85.3545437 C88.5466813,82.1654562 88.9464625,77.4687937 89.2974125,73.3275437 C89.5110356,70.8342562 89.7094,68.48135 90.4296125,66.7449187 C91.09795,65.1366437 92.575,63.4062937 94.1375,61.5752437 C96.8840813,58.3556375 99.999925,54.7088062 99.999925,49.9999312 C99.999925,45.2910687 96.8840813,41.6442437 94.1375,38.4246187 Z M91.4083477,57.9030595 C89.5055848,60.1331057 87.5386519,62.4369555 86.438063,65.0905564 C85.2925583,67.8596698 85.0262316,70.9656936 84.7727454,73.9690126 C84.4711275,77.5178388 84.1855523,80.8709153 82.5266518,82.5266518 C80.8709613,84.1855491 77.5178322,84.4679167 73.9690126,84.7727454 C70.9656673,85.0262329 67.8596369,85.2925557 65.0905564,86.438063 C62.4369555,87.5386453 60.1331057,89.5055848 57.9030595,91.4083477 C55.1371595,93.7699538 52.5252741,96 50,96 C47.4747522,96 44.8628668,93.7699538 42.0969405,91.4083477 C39.8668943,89.5055848 37.5630445,87.5386519 34.9094436,86.438063 C32.1403302,85.2925583 29.0343064,85.0262316 26.0309874,84.7727454 C22.4821284,84.4711275 19.1290847,84.1855523 17.4733482,82.5266518 C15.8144509,80.8709613 15.5320833,77.5178651 15.2272546,73.9690126 C14.9737671,70.9656673 14.7074443,67.8596369 13.561937,65.0905564 C12.4613547,62.4369555 10.4944152,60.1331057 8.59165232,57.9030595 C6.23004619,55.1371595 4,52.5252741 4,50 C4,47.4747522 6.23004619,44.8628668 8.59165232,42.0969405 C10.4944152,39.8668943 12.4613481,37.5630445 13.561937,34.9094436 C14.7074417,32.1403302 14.9737684,29.0343064 15.2272546,26.0309874 C15.5288719,22.4821612 15.814447,19.1290847 17.4733482,17.4733482 C19.1290387,15.8144509 22.4821021,15.5320833 26.0309874,15.2272546 C29.0343327,14.9737671 32.1403631,14.7074443 34.9094436,13.561937 C37.5630445,12.4613547 39.8668943,10.4944152 42.0969405,8.59165232 C44.8628405,6.23004619 47.4747259,4 50,4 C52.5252478,4 55.1371332,6.23004619 57.9030595,8.59165232 C60.1331057,10.4944152 62.4369555,12.4613481 65.0905564,13.561937 C67.8596698,14.7074417 70.9656936,14.9737684 73.9690126,15.2272546 C77.5178059,15.5288725 80.8709153,15.8144477 82.5266518,17.4733482 C84.1855491,19.1290387 84.4679167,22.4821349 84.7727454,26.0309874 C85.0262329,29.0343327 85.2925557,32.1403631 86.438063,34.9094436 C87.5386453,37.5630445 89.5055848,39.8668943 91.4083477,42.0969405 C93.7699538,44.8628405 96,47.4747259 96,50 C96,52.5252478 93.7699538,55.1371332 91.4083477,57.9030595 Z" id="Shape" opacity="0.5" transform="translate(49.999963, 49.999962) rotate(-630.000000) translate(-49.999963, -49.999962) "></path>
                <path d="M65.6249625,12.2779286 C48.3947125,12.2779286 34.3749625,26.2976786 34.3749625,43.5279286 L38.5036422,42.8208218 C38.5036422,29.0360093 51.1330432,16.4066083 64.9178557,16.4066083 L65.6249625,12.2779286 Z" id="Path" transform="translate(49.999963, 27.902929) rotate(-315.000000) translate(-49.999963, -27.902929) "></path>
                <path d="M35.0820693,83.5934228 L34.3749625,87.7221024 C51.6052125,87.7221024 65.6249625,73.7023524 65.6249625,56.4721024 L61.4962828,57.1792092 C61.4962828,70.9640217 48.8668818,83.5934228 35.0820693,83.5934228 Z" id="Path" transform="translate(49.999963, 72.097102) rotate(-315.000000) translate(-49.999963, -72.097102) "></path>
                <path d="M33.8736077,58 C37.4924939,58 40.0871671,56.1590909 40.0871671,53.2045455 C40.0871671,49.7954545 36.6503632,48.9772727 34.2150121,48.3409091 C32.0300242,47.7727273 31.0058111,47.4772727 31.0058111,46.7272727 C31.0058111,45.8409091 32.3714286,45.3409091 33.4866828,45.3409091 C35.0799031,45.3409091 35.9903148,46.3863636 35.9903148,47.1590909 L39.7002421,47.1590909 C39.7002421,44.75 37.5607748,42 33.5322034,42 C30.0043584,42 27.2276029,44.0909091 27.2276029,46.9090909 C27.2276029,50.3409091 31.3016949,51.2045455 33.6232446,51.75 C35.0571429,52.0909091 36.3544794,52.4318182 36.3544794,53.4090909 C36.3544794,54.0681818 35.7399516,54.7727273 34.0784504,54.7727273 C31.0058111,54.7727273 30.7099274,52.3181818 30.7099274,52.3181818 L27,52.3181818 C27,54.7272727 29.0256659,58 33.8736077,58 Z M50.4886199,57.7272727 L50.4886199,45.7272727 L55.9738499,45.7272727 L55.9738499,42.2727273 L41.2251816,42.2727273 L41.2251816,45.7272727 L46.7104116,45.7272727 L46.7104116,57.7272727 L50.4886199,57.7272727 Z M62.2556901,57.7272727 L62.2556901,54.25 L64.9186441,51.3409091 L69.1520581,57.7272727 L74,57.7272727 L67.5360775,48.5 L72.8619855,42.2727273 L68.1733656,42.2727273 L62.2556901,49.0681818 L62.2556901,42.2727273 L58.5230024,42.2727273 L58.5230024,57.7272727 L62.2556901,57.7272727 Z" id="STK"></path>
            </g>
        </g>
    </g>
</svg>