<?xml version="1.0" encoding="UTF-8"?>
<svg width="100px" height="100px" viewBox="0 0 100 100" version="1.1" xmlns="http://www.w3.org/2000/svg" xmlns:xlink="http://www.w3.org/1999/xlink">
    <!-- Generator: Sketch 53.1 (72631) - https://sketchapp.com -->
    <title>spanner</title>
    <desc>Created with Sketch.</desc>
    <g id="web" stroke="none" stroke-width="1" fill="none" fill-rule="evenodd">
        <g id="Kariera" transform="translate(-1060.000000, -799.000000)">
            <g id="Group-9-Copy" transform="translate(930.000000, 759.000000)">
                <g id="wheel">
                    <g id="spanner" transform="translate(130.000000, 40.000000)">
                        <path d="M60.8627859,53.0559707 L78.730022,48.1833096 C79.0093879,48.1069711 79.2643906,47.9591672 79.4690424,47.7537031 L94.2543204,32.9684252 C99.7742333,27.4477002 101.426878,19.1471218 98.4439969,11.9331472 C95.460304,4.71836008 88.4274299,0.00974532225 80.6214266,-7.70095251e-16 L80.6092451,-7.70095251e-16 C75.485642,-0.0138058628 70.5691268,2.02296653 66.9544243,5.65472328 L52.1691464,20.4408133 C51.9636823,20.6454653 51.8158784,20.8996557 51.7395401,21.1790216 L46.866879,39.0519426 L3.0210499,82.8993958 C0.472648233,85.3893256 -0.540865281,89.0568152 0.367885863,92.5017867 C1.27663721,95.946758 3.96715821,98.637279 7.41294179,99.5460304 C10.8579131,100.454782 14.5254029,99.4420802 17.0153326,96.8928665 L23.407452,90.5015593 L23.407452,98.1288981 C23.407452,99.0473948 24.1513449,99.7920998 25.0706536,99.7920998 L41.7026703,99.7920998 C42.6211667,99.7920998 43.3658719,99.0473948 43.3658719,98.1288981 L43.3658719,79.8336798 C43.3642476,77.3567439 42.4376299,74.969952 40.7679314,73.1410798 L60.8627859,53.0559707 Z M14.6634615,94.5418075 C12.0638969,97.0163073 7.97979459,97.0163073 5.37941788,94.5418075 C4.1450104,93.3098362 3.45146819,91.6377015 3.45146819,89.8932888 C3.45146819,88.1496881 4.1450104,86.4775532 5.37941788,85.2455821 L49.5379094,41.0879027 C49.7425611,40.8832511 49.8903651,40.6282484 49.9667035,40.3496946 L54.8418008,22.4865189 L69.3111682,8.01633971 C72.3005457,5.00747152 76.3692179,3.31909439 80.6108692,3.32640333 L80.6214266,3.32640333 C87.0809511,3.33371227 92.9005326,7.22859272 95.3693476,13.1976027 C97.8381626,19.1666125 96.469757,26.0354405 91.9024493,30.6027482 L77.4330821,45.0729274 L59.5650337,49.9464008 C59.2856678,50.021927 59.0314773,50.170543 58.8268256,50.375195 L38.1431913,71.0620778 C35.0506757,69.3850703 31.3044114,69.4605965 28.2817372,71.2594204 C25.2598753,73.0590565 23.407452,76.3164306 23.407452,79.8336798 L23.407452,85.797817 L14.6634615,94.5418075 Z M26.7338553,96.4656965 L26.7338553,87.2514944 C30.5109796,90.6664177 36.261532,90.6664177 40.0394686,87.2514944 L40.0394686,96.4656965 L26.7338553,96.4656965 Z M33.386662,86.4864865 C29.7118632,86.4864865 26.7338553,83.5076663 26.7338553,79.8336798 C26.7338553,76.1596933 29.7118632,73.1808732 33.386662,73.1808732 C37.0606484,73.1808732 40.0394686,76.1596933 40.0394686,79.8336798 C40.0394686,83.5076663 37.0606484,86.4864865 33.386662,86.4864865 Z" id="Shape" fill="#FFFFFF" fill-rule="nonzero" opacity="0.300000012"></path>
                        <path d="M80.7879094,28.2744283 C85.8400468,28.2744283 89.9355185,24.1789565 89.9355185,19.1268191 C89.9355185,14.0746817 85.8400468,9.97920998 80.7879094,9.97920998 C75.7357717,9.97920998 71.6403002,14.0746817 71.6403002,19.1268191 C71.645985,24.1765202 75.7382081,28.2679314 80.7879094,28.2744283 Z M80.7879094,13.3056133 C84.0022414,13.3056133 86.6091152,15.9116748 86.6091152,19.1268191 C86.6091152,22.3419634 84.0022414,24.9480249 80.7879094,24.9480249 C77.5727651,24.9480249 74.9667035,22.3419634 74.9667035,19.1268191 C74.9667035,15.9116748 77.5727651,13.3056133 80.7879094,13.3056133 Z" id="Shape" fill="#FFFFFF" fill-rule="nonzero" opacity="0.300000012"></path>
                        <path d="M73.3035019,39.9168399 L76.6299052,39.9168399 C76.6193476,30.7351222 69.1787942,23.2945686 59.9978886,23.2848233 L59.9978886,26.6112266 C67.3426131,26.6193476 73.2945686,32.5721154 73.3035019,39.9168399 Z" id="Path" fill="#FFFFFF" opacity="0.300000012"></path>
                        <path d="M59.0225443,39.0754938 C60.2374611,41.1739865 62.7866748,42.0924832 65.0605834,41.251137 C67.3344919,40.4097909 68.6720374,38.053859 68.2286254,35.6703158 C67.7852131,33.2867723 65.6891568,31.5691593 63.2650079,31.6016437 C60.8408588,31.6349401 58.792717,33.409401 58.4142736,35.8035019 L54.650143,36.6351027 L55.3656121,39.8851676 L59.0225443,39.0754938 Z M63.3242919,34.9272349 C64.2427884,34.9272349 64.9874936,35.6719399 64.9874936,36.5904366 C64.9874936,37.5089333 64.2427884,38.2536383 63.3242919,38.2536383 C62.4049832,38.2536383 61.6610902,37.5089333 61.6610902,36.5904366 C61.6610902,35.6719399 62.4049832,34.9272349 63.3242919,34.9272349 Z" id="Shape" fill="#FFFFFF" fill-rule="nonzero" opacity="0.300000012"></path>
                        <path d="M86.6091152,56.5488565 C80.21862,56.5586019 74.735252,61.1047946 73.5422622,67.3832185 C73.3920218,67.6260395 73.3099988,67.9054054 73.3035019,68.1912682 L73.3035019,98.1288981 C73.3035019,99.0473948 74.0473948,99.7920998 74.9667035,99.7920998 L98.2515268,99.7920998 C99.1700233,99.7920998 99.9147285,99.0473948 99.9147285,98.1288981 L99.9147285,68.1912682 C99.9066073,67.924084 99.8270206,67.6642087 99.6832769,67.4392541 C98.5146505,61.1356549 93.0199129,56.5594139 86.6091152,56.5488565 L86.6091152,56.5488565 Z M86.6091152,59.8752599 C92.1200948,59.8752599 96.5883252,64.3434902 96.5883252,69.8544699 C96.5883252,75.3662617 92.1200948,79.8336798 86.6091152,79.8336798 C81.0973233,79.8336798 76.6299052,75.3662617 76.6299052,69.8544699 C76.6347778,64.3451143 81.0997597,59.8809447 86.6091152,59.8752599 Z M96.5883252,96.4656965 L76.6299052,96.4656965 L76.6299052,78.6260719 C79.1458225,81.5074389 82.7840761,83.1600832 86.6091152,83.1600832 C90.433342,83.1600832 94.0715956,81.5074389 96.5883252,78.6260719 L96.5883252,96.4656965 Z" id="Shape" fill="#FFFFFF" fill-rule="nonzero"></path>
                        <path d="M83.3671713,76.0200104 C83.6790216,76.3318607 84.102131,76.5072765 84.5431069,76.5072765 L88.6743114,76.5072765 C89.1152871,76.5072765 89.5383967,76.3318607 89.850247,76.0200104 L92.7746557,73.0964137 C93.086506,72.7845634 93.2611098,72.3614541 93.2619218,71.9204782 L93.2619218,67.7884615 C93.2611098,67.3474857 93.086506,66.9251884 92.7746557,66.613338 L89.850247,63.6889293 C89.5383967,63.377079 89.1152871,63.2016632 88.6743114,63.2016632 L84.5431069,63.2016632 C84.102131,63.2016632 83.6790216,63.377079 83.3671713,63.6889293 L80.4435746,66.613338 C80.1317243,66.9251884 79.9563085,67.3474857 79.9563085,67.7884615 L79.9563085,71.9204782 C79.9563085,72.3614541 80.1317243,72.7845634 80.4435746,73.0964137 L83.3671713,76.0200104 Z M83.2827119,68.477131 L85.2317763,66.5280665 L87.985642,66.5280665 L89.9355185,68.477131 L89.9355185,71.2318087 L87.985642,73.1808732 L85.2317763,73.1808732 L83.2827119,71.2318087 L83.2827119,68.477131 Z" id="Shape" fill="#FFFFFF" fill-rule="nonzero"></path>
                        <path d="M58.3346869,66.5280665 C51.9076468,66.5361875 46.7003963,71.7442503 46.6922753,78.1704782 L46.6922753,98.1288981 C46.6922753,99.0473948 47.4361682,99.7920998 48.3554769,99.7920998 L68.3138969,99.7920998 C69.2323933,99.7920998 69.9770985,99.0473948 69.9770985,98.1288981 L69.9770985,78.1704782 C69.9681653,71.7442503 64.7609148,66.5361875 58.3346869,66.5280665 Z M66.6506952,96.4656965 L50.0186786,96.4656965 L50.0186786,86.3021374 C52.2032549,88.54681 55.202378,89.8128898 58.3346869,89.8128898 C61.4661838,89.8128898 64.4661187,88.54681 66.6506952,86.3021374 L66.6506952,96.4656965 Z M58.3346869,86.4864865 C53.7413917,86.4864865 50.0186786,82.7629613 50.0186786,78.1704782 C50.0186786,73.577995 53.7413917,69.8544699 58.3346869,69.8544699 C62.9271701,69.8544699 66.6506952,73.577995 66.6506952,78.1704782 C66.6450104,82.761337 62.9247337,86.4808017 58.3346869,86.4864865 Z" id="Shape" fill="#FFFFFF" fill-rule="nonzero"></path>
                        <path d="M60.8871493,73.6681393 C60.575299,73.356289 60.1521894,73.1808732 59.7112137,73.1808732 L56.957348,73.1808732 C56.5163721,73.1808732 56.0932628,73.356289 55.7814125,73.6681393 L53.832348,75.6172037 C53.5204977,75.9290541 53.3450819,76.3521634 53.3450819,76.7931393 L53.3450819,79.547817 C53.3450819,79.9887929 53.5204977,80.4119023 53.832348,80.7237526 L55.7814125,82.672817 C56.0932628,82.9846674 56.5163721,83.1600832 56.957348,83.1600832 L59.7112137,83.1600832 C60.1521894,83.1600832 60.575299,82.9846674 60.8871493,82.672817 L62.8370258,80.7237526 C63.1488761,80.4119023 63.3234798,79.9887929 63.3242919,79.547817 L63.3242919,76.7931393 C63.3234798,76.3521634 63.1488761,75.9290541 62.8370258,75.6172037 L60.8871493,73.6681393 Z M59.9978886,78.8591476 L59.0225443,79.8336798 L57.6460175,79.8336798 L56.6714852,78.8591476 L56.6714852,77.4818087 L57.6460175,76.5072765 L59.0225443,76.5072765 L59.9978886,77.4818087 L59.9978886,78.8591476 Z" id="Shape" fill="#FFFFFF" fill-rule="nonzero"></path>
                        <g id="Group-8" transform="translate(23.000000, 70.000000)">
                            <rect id="Rectangle" fill="#FFFFFF" fill-rule="nonzero" x="0.4" y="9" width="3.4" height="12"></rect>
                            <circle id="Oval" stroke="#FFFFFF" stroke-width="3.4" fill-rule="nonzero" cx="10.35" cy="9.75" r="8.05"></circle>
                            <path d="M12.546224,5.890625 C12.296224,5.640625 11.9570312,5.5 11.6035157,5.5 L9.39583333,5.5 C9.04231767,5.5 8.703125,5.640625 8.453125,5.890625 L6.890625,7.453125 C6.640625,7.703125 6.5,8.04231767 6.5,8.39583333 L6.5,10.6041667 C6.5,10.9576823 6.640625,11.296875 6.890625,11.546875 L8.453125,13.109375 C8.703125,13.359375 9.04231767,13.5 9.39583333,13.5 L11.6035157,13.5 C11.9570312,13.5 12.296224,13.359375 12.546224,13.109375 L14.109375,11.546875 C14.359375,11.296875 14.499349,10.9576823 14.5,10.6041667 L14.5,8.39583333 C14.499349,8.04231767 14.359375,7.703125 14.109375,7.453125 L12.546224,5.890625 Z M11.8333333,10.0520833 L11.0514323,10.8333333 L9.94791667,10.8333333 L9.16666667,10.0520833 L9.16666667,8.94791667 L9.94791667,8.16666667 L11.0514323,8.16666667 L11.8333333,8.94791667 L11.8333333,10.0520833 Z" id="Shape" fill="#FFFFFF" fill-rule="nonzero"></path>
                            <path d="M6.03923505,14.8697762 C7.20514966,15.8771594 8.72464043,16.4864865 10.386662,16.4864865 C14.0606484,16.4864865 17.0394686,13.5076663 17.0394686,9.83367983 C17.0394686,8.17194141 16.4300798,6.65241587 15.422605,5.48640618 L17.7679314,3.14107983 C19.4376299,4.96995198 20.3642476,7.35674387 20.3658719,9.83367983 L20.3658719,28.1288981 C20.3658719,29.0473948 19.6211667,29.7920998 18.7026703,29.7920998 L2.07065364,29.7920998 C1.15134491,29.7920998 0.407451975,29.0473948 0.407451975,28.1288981 L0.407451975,20.5015593 L6.03923505,14.8697762 Z M3.7338553,26.4656965 L17.0394686,26.4656965 L17.0394686,17.2514944 C13.261532,20.6664177 7.51097963,20.6664177 3.7338553,17.2514944 L3.7338553,26.4656965 Z" id="Combined-Shape" fill="#FFFFFF"></path>
                        </g>
                    </g>
                </g>
            </g>
        </g>
    </g>
</svg>